SplineFontDB: 3.0
FontName: Share-Tech
FullName: Share-Tech
FamilyName: Share-Tech
Weight: Book
Copyright: Copyright (c) This Font is designed by Ralph Oliver du Carrois, 2005. All rights reserved.
Version: 1.000;PS 001.000;hotconv 1.0.38
ItalicAngle: 0
UnderlinePosition: -61
UnderlineWidth: 75
Ascent: 808
Descent: 192
sfntRevision: 0x00010000
LayerCount: 2
Layer: 0 1 "Back"  1
Layer: 1 1 "Fore"  0
XUID: [1021 331 470364002 12289999]
FSType: 0
OS2Version: 2
OS2_WeightWidthSlopeOnly: 0
OS2_UseTypoMetrics: 1
CreationTime: 1130492191
ModificationTime: 1130841185
PfmFamily: 17
TTFWeight: 400
TTFWidth: 5
LineGap: 73
VLineGap: 0
Panose: 2 0 5 6 4 0 0 2 0 4
OS2TypoAscent: 808
OS2TypoAOffset: 0
OS2TypoDescent: -192
OS2TypoDOffset: 0
OS2TypoLinegap: 200
OS2WinAscent: 855
OS2WinAOffset: 0
OS2WinDescent: 200
OS2WinDOffset: 0
HheadAscent: 885
HheadAOffset: 0
HheadDescent: -242
HheadDOffset: 0
OS2SubXSize: 700
OS2SubYSize: 650
OS2SubXOff: 0
OS2SubYOff: 140
OS2SupXSize: 700
OS2SupYSize: 650
OS2SupXOff: 0
OS2SupYOff: 477
OS2StrikeYSize: 50
OS2StrikeYPos: 250
OS2Vendor: 'pyrs'
OS2CodePages: 20000001.00000000
OS2UnicodeRanges: 800000af.4000204a.00000000.00000000
Lookup: 1 0 0 "'aalt' Access All Alternates in Latin lookup 0"  {"'aalt' Access All Alternates in Latin lookup 0 subtable"  } ['aalt' ('latn' <'dflt' > ) ]
Lookup: 4 0 0 "'frac' Diagonal Fractions in Latin lookup 1"  {"'frac' Diagonal Fractions in Latin lookup 1 subtable"  } ['frac' ('latn' <'dflt' > ) ]
Lookup: 1 0 0 "'numr' Numerators in Latin lookup 2"  {"'numr' Numerators in Latin lookup 2 subtable"  } ['numr' ('latn' <'dflt' > ) ]
Lookup: 4 0 1 "'liga' Standard Ligatures in Latin lookup 3"  {"'liga' Standard Ligatures in Latin lookup 3 subtable"  } ['liga' ('latn' <'dflt' > ) ]
Lookup: 1 0 0 "'ordn' Ordinals in Latin lookup 4"  {"'ordn' Ordinals in Latin lookup 4 subtable"  } ['ordn' ('latn' <'dflt' > ) ]

StartChar: .notdef
Encoding: 65536 -1 0
Width: 502
Flags: W
LayerCount: 2
Fore
SplineSet
65 700 m 1,0,-1
 437 700 l 1,1,-1
 437 0 l 1,2,-1
 65 0 l 1,3,-1
 65 700 l 1,0,-1
362 72 m 1,4,-1
 362 628 l 1,5,-1
 140 628 l 1,6,-1
 140 72 l 1,7,-1
 362 72 l 1,4,-1
EndSplineSet
EndChar

StartChar: numbersign
Encoding: 35 35 4
Width: 470
Flags: W
LayerCount: 2
Fore
SplineSet
273 455 m 1,0,-1
 193 455 l 1,1,-1
 193 255 l 1,2,-1
 273 255 l 1,3,-1
 273 455 l 1,0,-1
353 180 m 1,4,-1
 353 0 l 1,5,-1
 273 0 l 1,6,-1
 273 180 l 1,7,-1
 193 180 l 1,8,-1
 193 0 l 1,9,-1
 113 0 l 1,10,-1
 113 180 l 1,11,-1
 43 180 l 1,12,-1
 43 255 l 1,13,-1
 113 255 l 1,14,-1
 113 455 l 1,15,-1
 43 455 l 1,16,-1
 43 530 l 1,17,-1
 113 530 l 1,18,-1
 113 700 l 1,19,-1
 193 700 l 1,20,-1
 193 530 l 1,21,-1
 273 530 l 1,22,-1
 273 700 l 1,23,-1
 353 700 l 1,24,-1
 353 530 l 1,25,-1
 423 530 l 1,26,-1
 423 455 l 1,27,-1
 353 455 l 1,28,-1
 353 255 l 1,29,-1
 423 255 l 1,30,-1
 423 180 l 1,31,-1
 353 180 l 1,4,-1
EndSplineSet
EndChar

StartChar: dollar
Encoding: 36 36 5
Width: 470
Flags: W
LayerCount: 2
Fore
SplineSet
192 -110 m 1,0,-1
 192 0 l 1,1,-1
 87 0 l 1,2,-1
 87 76 l 1,3,-1
 229 76 l 2,4,5
 267 76 267 76 289.5 98.5 c 128,-1,6
 312 121 312 121 312 151 c 2,7,-1
 312 235 l 2,8,9
 312 264 312 264 297 283 c 128,-1,10
 282 302 282 302 250 302 c 2,11,-1
 230 302 l 2,12,13
 158 302 158 302 114 344 c 128,-1,14
 70 386 70 386 70 472 c 2,15,-1
 70 500 l 2,16,17
 70 570 70 570 101 610.5 c 128,-1,18
 132 651 132 651 192 664 c 1,19,-1
 192 780 l 1,20,-1
 277 780 l 1,21,-1
 277 670 l 1,22,-1
 383 670 l 1,23,-1
 383 594 l 1,24,-1
 240 594 l 2,25,26
 202 594 202 594 179.5 571.5 c 128,-1,27
 157 549 157 549 157 519 c 2,28,-1
 157 453 l 2,29,30
 157 423 157 423 176.5 402 c 128,-1,31
 196 381 196 381 229 381 c 2,32,-1
 249 381 l 2,33,34
 318 381 318 381 358.5 341.5 c 128,-1,35
 399 302 399 302 399 216 c 2,36,-1
 399 170 l 2,37,38
 399 100 399 100 367.5 59 c 128,-1,39
 336 18 336 18 277 5 c 1,40,-1
 277 -110 l 1,41,-1
 192 -110 l 1,0,-1
EndSplineSet
EndChar

StartChar: percent
Encoding: 37 37 6
Width: 856
Flags: W
LayerCount: 2
Fore
SplineSet
351 0 m 1,0,-1
 267 0 l 1,1,-1
 512 700 l 1,2,-1
 590 700 l 1,3,-1
 351 0 l 1,0,-1
351 412 m 1,4,5
 351 347 351 347 318.5 315.5 c 128,-1,6
 286 284 286 284 229 284 c 2,7,-1
 211 284 l 2,8,9
 154 284 154 284 121.5 315.5 c 128,-1,10
 89 347 89 347 89 412 c 2,11,-1
 89 572 l 2,12,13
 89 637 89 637 121.5 668.5 c 128,-1,14
 154 700 154 700 211 700 c 2,15,-1
 229 700 l 2,16,17
 286 700 286 700 318.5 668.5 c 128,-1,18
 351 637 351 637 351 572 c 2,19,-1
 351 412 l 1,20,-1
 351 412 l 1,4,5
281 583 m 2,21,22
 281 606 281 606 269 623 c 128,-1,23
 257 640 257 640 229 640 c 2,24,-1
 211 640 l 2,25,26
 183 640 183 640 171 623 c 128,-1,27
 159 606 159 606 159 583 c 2,28,-1
 159 401 l 2,29,30
 159 378 159 378 171 361 c 128,-1,31
 183 344 183 344 211 344 c 2,32,-1
 229 344 l 2,33,34
 257 344 257 344 269 361 c 128,-1,35
 281 378 281 378 281 401 c 2,36,-1
 281 583 l 2,21,22
765 128 m 1,37,38
 765 63 765 63 732.5 31.5 c 128,-1,39
 700 0 700 0 643 0 c 2,40,-1
 625 0 l 2,41,42
 568 0 568 0 535.5 31.5 c 128,-1,43
 503 63 503 63 503 128 c 2,44,-1
 503 288 l 2,45,46
 503 353 503 353 535.5 384.5 c 128,-1,47
 568 416 568 416 625 416 c 2,48,-1
 643 416 l 2,49,50
 700 416 700 416 732.5 384.5 c 128,-1,51
 765 353 765 353 765 288 c 2,52,-1
 765 128 l 1,53,-1
 765 128 l 1,37,38
695 299 m 2,54,55
 695 322 695 322 683 339 c 128,-1,56
 671 356 671 356 643 356 c 2,57,-1
 625 356 l 2,58,59
 597 356 597 356 585 339 c 128,-1,60
 573 322 573 322 573 299 c 2,61,-1
 573 117 l 2,62,63
 573 94 573 94 585 77 c 128,-1,64
 597 60 597 60 625 60 c 2,65,-1
 643 60 l 2,66,67
 671 60 671 60 683 77 c 128,-1,68
 695 94 695 94 695 117 c 2,69,-1
 695 299 l 2,54,55
EndSplineSet
Ligature2: "'frac' Diagonal Fractions in Latin lookup 1 subtable" zero fraction zero
Ligature2: "'frac' Diagonal Fractions in Latin lookup 1 subtable" zero slash zero
EndChar

StartChar: ampersand
Encoding: 38 38 7
Width: 507
Flags: W
LayerCount: 2
Fore
SplineSet
239 0 m 2,0,1
 148 0 148 0 108.5 37.5 c 128,-1,2
 69 75 69 75 69 158 c 2,3,-1
 69 284 l 2,4,5
 69 329 69 329 85.5 359.5 c 128,-1,6
 102 390 102 390 134 407 c 1,7,8
 108 425 108 425 93.5 454 c 128,-1,9
 79 483 79 483 79 523 c 2,10,-1
 79 544 l 2,11,12
 79 627 79 627 123.5 663.5 c 128,-1,13
 168 700 168 700 251 700 c 2,14,-1
 357 700 l 1,15,-1
 357 625 l 1,16,-1
 239 625 l 2,17,18
 201 625 201 625 183.5 608 c 128,-1,19
 166 591 166 591 166 553 c 2,20,-1
 166 513 l 2,21,22
 166 479 166 479 187.5 459.5 c 128,-1,23
 209 440 209 440 239 440 c 2,24,-1
 482 440 l 1,25,-1
 482 365 l 1,26,-1
 403 365 l 1,27,-1
 403 0 l 1,28,-1
 239 0 l 2,0,1
229 365 m 1,29,30
 197 365 197 365 176.5 345.5 c 128,-1,31
 156 326 156 326 156 293 c 2,32,-1
 156 148 l 2,33,34
 156 110 156 110 174 92.5 c 128,-1,35
 192 75 192 75 230 75 c 2,36,-1
 322 75 l 1,37,-1
 322 365 l 1,38,-1
 229 365 l 1,39,-1
 229 365 l 1,29,30
EndSplineSet
EndChar

StartChar: quoteright
Encoding: 8217 8217 8
Width: 225
Flags: W
LayerCount: 2
Fore
SplineSet
115 453 m 1,0,-1
 45 453 l 1,1,-1
 75 610 l 1,2,-1
 75 700 l 1,3,-1
 170 700 l 1,4,-1
 170 610 l 1,5,-1
 115 453 l 1,0,-1
EndSplineSet
EndChar

StartChar: parenleft
Encoding: 40 40 9
Width: 320
Flags: W
LayerCount: 2
Fore
SplineSet
60 505 m 1,0,1
 60 568 60 568 69 616.5 c 128,-1,2
 78 665 78 665 93 702.5 c 128,-1,3
 108 740 108 740 128.5 768 c 128,-1,4
 149 796 149 796 172 820 c 1,5,-1
 260 820 l 1,6,7
 227 780 227 780 205 748.5 c 128,-1,8
 183 717 183 717 169.5 683 c 128,-1,9
 156 649 156 649 150.5 607.5 c 128,-1,10
 145 566 145 566 145 507 c 2,11,-1
 145 193 l 2,12,13
 145 134 145 134 150.5 92.5 c 128,-1,14
 156 51 156 51 169.5 17 c 128,-1,15
 183 -17 183 -17 205 -48.5 c 128,-1,16
 227 -80 227 -80 260 -120 c 1,17,-1
 172 -120 l 1,18,19
 149 -96 149 -96 128.5 -68 c 128,-1,20
 108 -40 108 -40 93 -2.5 c 128,-1,21
 78 35 78 35 69 83.5 c 128,-1,22
 60 132 60 132 60 195 c 2,23,-1
 60 505 l 1,24,-1
 60 505 l 1,0,1
EndSplineSet
EndChar

StartChar: parenright
Encoding: 41 41 10
Width: 320
Flags: W
LayerCount: 2
Fore
SplineSet
260 195 m 2,0,1
 260 132 260 132 251 83.5 c 128,-1,2
 242 35 242 35 227 -2.5 c 128,-1,3
 212 -40 212 -40 191.5 -68 c 128,-1,4
 171 -96 171 -96 148 -120 c 1,5,-1
 60 -120 l 1,6,7
 93 -80 93 -80 115 -48.5 c 128,-1,8
 137 -17 137 -17 150.5 17 c 128,-1,9
 164 51 164 51 169.5 92.5 c 128,-1,10
 175 134 175 134 175 193 c 2,11,-1
 175 507 l 2,12,13
 175 566 175 566 169.5 607.5 c 128,-1,14
 164 649 164 649 150.5 683 c 128,-1,15
 137 717 137 717 115 748.5 c 128,-1,16
 93 780 93 780 60 820 c 1,17,-1
 148 820 l 1,18,19
 171 796 171 796 191.5 768 c 128,-1,20
 212 740 212 740 227 702.5 c 128,-1,21
 242 665 242 665 251 616.5 c 128,-1,22
 260 568 260 568 260 505 c 2,23,-1
 260 195 l 2,0,1
EndSplineSet
EndChar

StartChar: asterisk
Encoding: 42 42 11
Width: 480
Flags: W
LayerCount: 2
Fore
SplineSet
293 515 m 1,0,-1
 399 392 l 1,1,-1
 327 340 l 1,2,-1
 239 482 l 1,3,-1
 148 340 l 1,4,-1
 78 393 l 1,5,-1
 185 515 l 1,6,-1
 40 547 l 1,7,-1
 67 627 l 1,8,-1
 208 570 l 1,9,-1
 195 722 l 1,10,-1
 285 722 l 1,11,-1
 272 570 l 1,12,-1
 415 625 l 1,13,-1
 440 546 l 1,14,-1
 293 515 l 1,0,-1
EndSplineSet
EndChar

StartChar: plus
Encoding: 43 43 12
Width: 550
Flags: W
LayerCount: 2
Fore
SplineSet
315 275 m 1,0,-1
 315 118 l 1,1,-1
 235 118 l 1,2,-1
 235 275 l 1,3,-1
 84 275 l 1,4,-1
 84 350 l 1,5,-1
 235 350 l 1,6,-1
 235 508 l 1,7,-1
 315 508 l 1,8,-1
 315 350 l 1,9,-1
 465 350 l 1,10,-1
 465 275 l 1,11,-1
 315 275 l 1,0,-1
EndSplineSet
EndChar

StartChar: comma
Encoding: 44 44 13
Width: 230
Flags: W
LayerCount: 2
Fore
SplineSet
103 -140 m 1,0,-1
 25 -140 l 1,1,-1
 65 0 l 1,2,-1
 65 100 l 1,3,-1
 165 100 l 1,4,-1
 165 0 l 1,5,-1
 103 -140 l 1,0,-1
EndSplineSet
EndChar

StartChar: hyphen
Encoding: 45 45 14
Width: 495
Flags: W
LayerCount: 2
Fore
SplineSet
85 275 m 1,0,-1
 85 350 l 1,1,-1
 410 350 l 1,2,-1
 410 275 l 1,3,-1
 85 275 l 1,0,-1
EndSplineSet
EndChar

StartChar: period
Encoding: 46 46 15
Width: 230
Flags: W
LayerCount: 2
Fore
SplineSet
65 0 m 1,0,-1
 65 100 l 1,1,-1
 165 100 l 1,2,-1
 165 0 l 1,3,-1
 65 0 l 1,0,-1
EndSplineSet
EndChar

StartChar: slash
Encoding: 47 47 16
Width: 325
Flags: W
LayerCount: 2
Fore
SplineSet
84 -110 m 1,0,-1
 5 -110 l 1,1,-1
 241 810 l 1,2,-1
 320 810 l 1,3,-1
 84 -110 l 1,0,-1
EndSplineSet
Substitution2: "'numr' Numerators in Latin lookup 2 subtable" fraction
Substitution2: "'aalt' Access All Alternates in Latin lookup 0 subtable" fraction
EndChar

StartChar: zero
Encoding: 48 48 17
Width: 470
Flags: W
LayerCount: 2
Fore
SplineSet
408 170 m 1,0,1
 408 84 408 84 361.5 42 c 128,-1,2
 315 0 315 0 240 0 c 2,3,-1
 230 0 l 2,4,5
 155 0 155 0 108.5 42 c 128,-1,6
 62 84 62 84 62 170 c 2,7,-1
 62 530 l 2,8,9
 62 617 62 617 108.5 658.5 c 128,-1,10
 155 700 155 700 230 700 c 2,11,-1
 240 700 l 2,12,13
 315 700 315 700 361.5 658.5 c 128,-1,14
 408 617 408 617 408 530 c 2,15,-1
 408 170 l 1,16,-1
 408 170 l 1,0,1
323 549 m 2,17,18
 323 579 323 579 300.5 602 c 128,-1,19
 278 625 278 625 240 625 c 2,20,-1
 230 625 l 2,21,22
 192 625 192 625 169.5 602 c 128,-1,23
 147 579 147 579 147 549 c 2,24,-1
 147 151 l 2,25,26
 147 121 147 121 169.5 98 c 128,-1,27
 192 75 192 75 230 75 c 2,28,-1
 240 75 l 2,29,30
 278 75 278 75 300.5 98 c 128,-1,31
 323 121 323 121 323 151 c 2,32,-1
 323 549 l 2,17,18
EndSplineSet
EndChar

StartChar: one
Encoding: 49 49 18
Width: 470
Flags: W
LayerCount: 2
Fore
SplineSet
92 0 m 1,0,-1
 92 75 l 1,1,-1
 213 75 l 1,2,-1
 213 621 l 1,3,-1
 82 569 l 1,4,-1
 82 650 l 1,5,-1
 203 700 l 1,6,-1
 298 700 l 1,7,-1
 298 75 l 1,8,-1
 397 75 l 1,9,-1
 397 0 l 1,10,-1
 92 0 l 1,0,-1
EndSplineSet
Substitution2: "'sups' Superscript in Latin lookup 5 subtable" onesuperior
Substitution2: "'numr' Numerators in Latin lookup 2 subtable" onesuperior
Substitution2: "'aalt' Access All Alternates in Latin lookup 0 subtable" onesuperior
EndChar

StartChar: two
Encoding: 50 50 19
Width: 470
Flags: W
LayerCount: 2
Fore
SplineSet
63 0 m 1,0,-1
 63 88 l 1,1,-1
 213 316 l 2,2,3
 234 348 234 348 246.5 368 c 128,-1,4
 259 388 259 388 265.5 403.5 c 128,-1,5
 272 419 272 419 274 436 c 128,-1,6
 276 453 276 453 276 479 c 2,7,-1
 276 549 l 2,8,9
 276 579 276 579 253.5 601.5 c 128,-1,10
 231 624 231 624 193 624 c 2,11,-1
 83 624 l 1,12,-1
 83 700 l 1,13,-1
 183 700 l 2,14,15
 270 700 270 700 316.5 658 c 128,-1,16
 363 616 363 616 363 530 c 2,17,-1
 363 488 l 2,18,19
 363 451 363 451 360.5 428 c 128,-1,20
 358 405 358 405 350.5 385 c 128,-1,21
 343 365 343 365 329 342.5 c 128,-1,22
 315 320 315 320 292 285 c 2,23,-1
 154 76 l 1,24,-1
 383 76 l 1,25,-1
 383 0 l 1,26,-1
 63 0 l 1,0,-1
EndSplineSet
Substitution2: "'sups' Superscript in Latin lookup 5 subtable" twosuperior
Substitution2: "'numr' Numerators in Latin lookup 2 subtable" twosuperior
Substitution2: "'aalt' Access All Alternates in Latin lookup 0 subtable" twosuperior
EndChar

StartChar: three
Encoding: 51 51 20
Width: 470
Flags: W
LayerCount: 2
Fore
SplineSet
372 158 m 1,0,1
 372 75 372 75 332.5 37.5 c 128,-1,2
 293 0 293 0 202 0 c 2,3,-1
 84 0 l 1,4,-1
 84 75 l 1,5,-1
 211 75 l 2,6,7
 249 75 249 75 267 92.5 c 128,-1,8
 285 110 285 110 285 148 c 2,9,-1
 285 251 l 2,10,11
 285 284 285 284 264.5 303.5 c 128,-1,12
 244 323 244 323 212 323 c 2,13,-1
 115 323 l 1,14,-1
 115 398 l 1,15,-1
 202 398 l 2,16,17
 232 398 232 398 253.5 417.5 c 128,-1,18
 275 437 275 437 275 471 c 2,19,-1
 275 553 l 2,20,21
 275 591 275 591 257.5 608 c 128,-1,22
 240 625 240 625 202 625 c 2,23,-1
 84 625 l 1,24,-1
 84 700 l 1,25,-1
 190 700 l 2,26,27
 273 700 273 700 317.5 663.5 c 128,-1,28
 362 627 362 627 362 544 c 2,29,-1
 362 481 l 2,30,31
 362 441 362 441 347.5 412 c 128,-1,32
 333 383 333 383 307 365 c 1,33,34
 339 348 339 348 355.5 317.5 c 128,-1,35
 372 287 372 287 372 242 c 2,36,-1
 372 158 l 1,37,-1
 372 158 l 1,0,1
EndSplineSet
Substitution2: "'sups' Superscript in Latin lookup 5 subtable" threesuperior
Substitution2: "'numr' Numerators in Latin lookup 2 subtable" threesuperior
Substitution2: "'aalt' Access All Alternates in Latin lookup 0 subtable" threesuperior
EndChar

StartChar: four
Encoding: 52 52 21
Width: 470
Flags: W
LayerCount: 2
Fore
SplineSet
352 156 m 1,0,-1
 352 0 l 1,1,-1
 267 0 l 1,2,-1
 267 156 l 1,3,-1
 69 156 l 1,4,-1
 69 242 l 1,5,-1
 168 700 l 1,6,-1
 249 700 l 1,7,-1
 155 229 l 1,8,-1
 267 229 l 1,9,-1
 267 457 l 1,10,-1
 352 457 l 1,11,-1
 352 229 l 1,12,-1
 422 229 l 1,13,-1
 422 156 l 1,14,-1
 352 156 l 1,0,-1
EndSplineSet
EndChar

StartChar: five
Encoding: 53 53 22
Width: 470
Flags: W
LayerCount: 2
Fore
SplineSet
374 158 m 1,0,1
 374 75 374 75 334.5 37.5 c 128,-1,2
 295 0 295 0 204 0 c 2,3,-1
 83 0 l 1,4,-1
 83 75 l 1,5,-1
 213 75 l 2,6,7
 251 75 251 75 269 92.5 c 128,-1,8
 287 110 287 110 287 148 c 2,9,-1
 287 275 l 2,10,11
 287 308 287 308 266.5 327.5 c 128,-1,12
 246 347 246 347 214 347 c 2,13,-1
 93 347 l 1,14,-1
 93 700 l 1,15,-1
 359 700 l 1,16,-1
 359 625 l 1,17,-1
 178 625 l 1,18,-1
 178 422 l 1,19,-1
 209 422 l 2,20,21
 282 422 282 422 328 385.5 c 128,-1,22
 374 349 374 349 374 266 c 2,23,-1
 374 158 l 1,24,-1
 374 158 l 1,0,1
EndSplineSet
EndChar

StartChar: six
Encoding: 54 54 23
Width: 470
Flags: W
LayerCount: 2
Fore
SplineSet
405 170 m 1,0,1
 405 127 405 127 392.5 95 c 128,-1,2
 380 63 380 63 358 42 c 128,-1,3
 336 21 336 21 307.5 10.5 c 128,-1,4
 279 0 279 0 247 0 c 2,5,-1
 222 0 l 2,6,7
 190 0 190 0 161.5 10.5 c 128,-1,8
 133 21 133 21 111 42 c 128,-1,9
 89 63 89 63 76.5 95 c 128,-1,10
 64 127 64 127 64 170 c 2,11,-1
 64 530 l 2,12,13
 64 616 64 616 109.5 658 c 128,-1,14
 155 700 155 700 242 700 c 2,15,-1
 357 700 l 1,16,-1
 357 624 l 1,17,-1
 232 624 l 2,18,19
 194 624 194 624 171.5 601.5 c 128,-1,20
 149 579 149 579 149 549 c 2,21,-1
 149 440 l 1,22,-1
 237 440 l 2,23,24
 322 440 322 440 363.5 403 c 128,-1,25
 405 366 405 366 405 280 c 2,26,-1
 405 170 l 1,27,-1
 405 170 l 1,0,1
149 365 m 1,28,-1
 149 151 l 2,29,30
 149 121 149 121 169 98 c 128,-1,31
 189 75 189 75 227 75 c 2,32,-1
 242 75 l 2,33,34
 280 75 280 75 300 98 c 128,-1,35
 320 121 320 121 320 151 c 2,36,-1
 320 299 l 2,37,38
 320 329 320 329 302.5 347 c 128,-1,39
 285 365 285 365 247 365 c 2,40,-1
 149 365 l 1,28,-1
EndSplineSet
EndChar

StartChar: seven
Encoding: 55 55 24
Width: 470
Flags: W
LayerCount: 2
Fore
SplineSet
212 0 m 1,0,-1
 123 0 l 1,1,-1
 290 625 l 1,2,-1
 68 625 l 1,3,-1
 68 700 l 1,4,-1
 373 700 l 1,5,-1
 373 603 l 1,6,-1
 212 0 l 1,0,-1
EndSplineSet
EndChar

StartChar: eight
Encoding: 56 56 25
Width: 470
Flags: W
LayerCount: 2
Fore
SplineSet
414 158 m 1,0,1
 414 75 414 75 374.5 37.5 c 128,-1,2
 335 0 335 0 244 0 c 2,3,-1
 226 0 l 2,4,5
 135 0 135 0 95.5 37.5 c 128,-1,6
 56 75 56 75 56 158 c 2,7,-1
 56 242 l 2,8,9
 56 287 56 287 72.5 317.5 c 128,-1,10
 89 348 89 348 121 365 c 1,11,12
 68 402 68 402 68 481 c 2,13,-1
 68 544 l 2,14,15
 68 627 68 627 111.5 663.5 c 128,-1,16
 155 700 155 700 230 700 c 2,17,-1
 240 700 l 2,18,19
 315 700 315 700 358.5 663.5 c 128,-1,20
 402 627 402 627 402 544 c 2,21,-1
 402 481 l 2,22,23
 402 402 402 402 349 365 c 1,24,25
 381 348 381 348 397.5 317.5 c 128,-1,26
 414 287 414 287 414 242 c 2,27,-1
 414 158 l 1,28,-1
 414 158 l 1,0,1
327 251 m 1,29,30
 327 284 327 284 306.5 303.5 c 128,-1,31
 286 323 286 323 254 323 c 2,32,-1
 216 323 l 2,33,34
 184 323 184 323 163.5 303.5 c 128,-1,35
 143 284 143 284 143 251 c 2,36,-1
 143 148 l 2,37,38
 143 111 143 111 158.5 93 c 128,-1,39
 174 75 174 75 209 75 c 2,40,-1
 253 75 l 2,41,42
 291 75 291 75 309 92.5 c 128,-1,43
 327 110 327 110 327 148 c 2,44,-1
 327 251 l 1,45,-1
 327 251 l 1,29,30
218 625 m 2,46,47
 184 625 184 625 169.5 606.5 c 128,-1,48
 155 588 155 588 155 553 c 2,49,-1
 155 471 l 2,50,51
 155 439 155 439 173.5 419.5 c 128,-1,52
 192 400 192 400 220 398 c 1,53,-1
 244 398 l 2,54,55
 274 398 274 398 294.5 417.5 c 128,-1,56
 315 437 315 437 315 471 c 2,57,-1
 315 553 l 2,58,59
 315 591 315 591 298.5 608 c 128,-1,60
 282 625 282 625 244 625 c 2,61,-1
 218 625 l 2,46,47
EndSplineSet
EndChar

StartChar: nine
Encoding: 57 57 26
Width: 470
Flags: W
LayerCount: 2
Fore
SplineSet
65 530 m 1,0,1
 65 573 65 573 77.5 605 c 128,-1,2
 90 637 90 637 112 658 c 128,-1,3
 134 679 134 679 162.5 689.5 c 128,-1,4
 191 700 191 700 223 700 c 2,5,-1
 248 700 l 2,6,7
 280 700 280 700 308.5 689.5 c 128,-1,8
 337 679 337 679 359 658 c 128,-1,9
 381 637 381 637 393.5 605 c 128,-1,10
 406 573 406 573 406 530 c 2,11,-1
 406 170 l 2,12,13
 406 84 406 84 360.5 42 c 128,-1,14
 315 0 315 0 228 0 c 2,15,-1
 123 0 l 1,16,-1
 123 76 l 1,17,-1
 238 76 l 2,18,19
 276 76 276 76 298.5 98.5 c 128,-1,20
 321 121 321 121 321 151 c 2,21,-1
 321 260 l 1,22,-1
 233 260 l 2,23,24
 148 260 148 260 106.5 297 c 128,-1,25
 65 334 65 334 65 420 c 2,26,-1
 65 530 l 1,27,-1
 65 530 l 1,0,1
321 335 m 1,28,-1
 321 549 l 2,29,30
 321 579 321 579 301 602 c 128,-1,31
 281 625 281 625 243 625 c 2,32,-1
 228 625 l 2,33,34
 190 625 190 625 170 602 c 128,-1,35
 150 579 150 579 150 549 c 2,36,-1
 150 401 l 2,37,38
 150 371 150 371 167.5 353 c 128,-1,39
 185 335 185 335 223 335 c 2,40,-1
 321 335 l 1,28,-1
EndSplineSet
EndChar

StartChar: colon
Encoding: 58 58 27
Width: 230
Flags: W
LayerCount: 2
Fore
SplineSet
65 0 m 1,0,-1
 65 100 l 1,1,-1
 165 100 l 1,2,-1
 165 0 l 1,3,-1
 65 0 l 1,0,-1
65 400 m 1,4,-1
 65 500 l 1,5,-1
 165 500 l 1,6,-1
 165 400 l 1,7,-1
 65 400 l 1,4,-1
EndSplineSet
EndChar

StartChar: semicolon
Encoding: 59 59 28
Width: 230
Flags: W
LayerCount: 2
Fore
SplineSet
103 -140 m 1,0,-1
 25 -140 l 1,1,-1
 65 0 l 1,2,-1
 65 100 l 1,3,-1
 165 100 l 1,4,-1
 165 0 l 1,5,-1
 103 -140 l 1,0,-1
65 400 m 1,6,-1
 65 500 l 1,7,-1
 165 500 l 1,8,-1
 165 400 l 1,9,-1
 65 400 l 1,6,-1
EndSplineSet
EndChar

StartChar: less
Encoding: 60 60 29
Width: 550
Flags: W
LayerCount: 2
Fore
SplineSet
85 280 m 1,0,-1
 85 385 l 1,1,-1
 465 564 l 1,2,-1
 465 472 l 1,3,-1
 155 336 l 1,4,-1
 465 199 l 1,5,-1
 465 105 l 1,6,-1
 85 280 l 1,0,-1
EndSplineSet
EndChar

StartChar: equal
Encoding: 61 61 30
Width: 550
Flags: W
LayerCount: 2
Fore
SplineSet
85 175 m 1,0,-1
 85 250 l 1,1,-1
 465 250 l 1,2,-1
 465 175 l 1,3,-1
 85 175 l 1,0,-1
85 375 m 1,4,-1
 85 450 l 1,5,-1
 465 450 l 1,6,-1
 465 375 l 1,7,-1
 85 375 l 1,4,-1
EndSplineSet
EndChar

StartChar: greater
Encoding: 62 62 31
Width: 550
Flags: W
LayerCount: 2
Fore
SplineSet
85 105 m 1,0,-1
 85 199 l 1,1,-1
 401 336 l 1,2,-1
 85 472 l 1,3,-1
 85 564 l 1,4,-1
 465 385 l 1,5,-1
 465 280 l 1,6,-1
 85 105 l 1,0,-1
EndSplineSet
EndChar

StartChar: question
Encoding: 63 63 32
Width: 328
Flags: W
LayerCount: 2
Fore
SplineSet
298 518 m 1,0,1
 298 490 298 490 296.5 471.5 c 128,-1,2
 295 453 295 453 288 437.5 c 128,-1,3
 281 422 281 422 266.5 404 c 128,-1,4
 252 386 252 386 227 358 c 2,5,-1
 179 304 l 1,6,-1
 179 208 l 1,7,-1
 94 208 l 1,8,-1
 94 329 l 1,9,-1
 147 390 l 2,10,11
 170 416 170 416 183 432 c 128,-1,12
 196 448 196 448 203 459.5 c 128,-1,13
 210 471 210 471 211.5 482 c 128,-1,14
 213 493 213 493 213 509 c 2,15,-1
 213 559 l 2,16,17
 213 589 213 589 195.5 606.5 c 128,-1,18
 178 624 178 624 140 624 c 2,19,-1
 30 624 l 1,20,-1
 30 700 l 1,21,-1
 130 700 l 2,22,23
 211 700 211 700 254.5 664.5 c 128,-1,24
 298 629 298 629 298 550 c 2,25,-1
 298 518 l 1,26,-1
 298 518 l 1,0,1
87 0 m 1,27,-1
 87 100 l 1,28,-1
 187 100 l 1,29,-1
 187 0 l 1,30,-1
 87 0 l 1,27,-1
EndSplineSet
EndChar

StartChar: at
Encoding: 64 64 33
Width: 815
Flags: W
LayerCount: 2
Fore
SplineSet
275 0 m 2,0,1
 188 0 188 0 141.5 42 c 128,-1,2
 95 84 95 84 95 170 c 2,3,-1
 95 520 l 2,4,5
 95 607 95 607 141.5 653.5 c 128,-1,6
 188 700 188 700 275 700 c 2,7,-1
 540 700 l 2,8,9
 627 700 627 700 673.5 653.5 c 128,-1,10
 720 607 720 607 720 520 c 2,11,-1
 720 250 l 2,12,13
 720 175 720 175 686 145 c 128,-1,14
 652 115 652 115 593 115 c 0,15,16
 581 115 581 115 566 118.5 c 128,-1,17
 551 122 551 122 536 130 c 128,-1,18
 521 138 521 138 508.5 151.5 c 128,-1,19
 496 165 496 165 488 184 c 1,20,21
 452 144 452 144 375 144 c 0,22,23
 350 144 350 144 326 149.5 c 128,-1,24
 302 155 302 155 283 169.5 c 128,-1,25
 264 184 264 184 252.5 209.5 c 128,-1,26
 241 235 241 235 241 275 c 2,27,-1
 241 393 l 2,28,29
 241 476 241 476 287 507.5 c 128,-1,30
 333 539 333 539 418 539 c 2,31,-1
 552 539 l 1,32,-1
 552 217 l 2,33,34
 552 202 552 202 563.5 191 c 128,-1,35
 575 180 575 180 596 180 c 0,36,37
 619 180 619 180 628 193.5 c 128,-1,38
 637 207 637 207 637 230 c 2,39,-1
 637 540 l 2,40,41
 637 577 637 577 613 602 c 128,-1,42
 589 627 589 627 550 627 c 2,43,-1
 265 627 l 2,44,45
 227 627 227 627 202.5 602.5 c 128,-1,46
 178 578 178 578 178 540 c 2,47,-1
 178 150 l 2,48,49
 178 120 178 120 202.5 96.5 c 128,-1,50
 227 73 227 73 265 73 c 2,51,-1
 561 73 l 1,52,-1
 561 0 l 1,53,-1
 275 0 l 2,0,1
394 212 m 0,54,55
 417 212 417 212 432 217 c 128,-1,56
 447 222 447 222 456 229.5 c 128,-1,57
 465 237 465 237 468.5 246 c 128,-1,58
 472 255 472 255 472 264 c 2,59,-1
 472 472 l 1,60,-1
 407 472 l 2,61,62
 365 472 365 472 343 455.5 c 128,-1,63
 321 439 321 439 321 389 c 2,64,-1
 321 279 l 2,65,66
 321 241 321 241 340.5 226.5 c 128,-1,67
 360 212 360 212 394 212 c 0,54,55
EndSplineSet
EndChar

StartChar: A
Encoding: 65 65 34
Width: 500
Flags: W
LayerCount: 2
Fore
SplineSet
250 634 m 1,0,-1
 169 252 l 1,1,-1
 332 252 l 1,2,-1
 250 634 l 1,0,-1
386 0 m 1,3,-1
 348 177 l 1,4,-1
 153 177 l 1,5,-1
 114 0 l 1,6,-1
 25 0 l 1,7,-1
 194 700 l 1,8,-1
 309 700 l 1,9,-1
 475 0 l 1,10,-1
 386 0 l 1,3,-1
EndSplineSet
Substitution2: "'ordn' Ordinals in Latin lookup 4 subtable" ordfeminine
Substitution2: "'aalt' Access All Alternates in Latin lookup 0 subtable" ordfeminine
Position2: "'cpsp' Capital Spacing in Latin lookup 0 subtable" dx=5 dy=0 dh=10 dv=0
EndChar

StartChar: B
Encoding: 66 66 35
Width: 520
Flags: W
LayerCount: 2
Fore
SplineSet
445 158 m 1,0,1
 445 72 445 72 405 36 c 128,-1,2
 365 0 365 0 275 0 c 2,3,-1
 85 0 l 1,4,-1
 85 700 l 1,5,-1
 263 700 l 2,6,7
 349 700 349 700 392 665 c 128,-1,8
 435 630 435 630 435 544 c 2,9,-1
 435 487 l 2,10,11
 435 447 435 447 420.5 418 c 128,-1,12
 406 389 406 389 380 371 c 1,13,14
 412 354 412 354 428.5 323.5 c 128,-1,15
 445 293 445 293 445 248 c 2,16,-1
 445 158 l 1,17,-1
 445 158 l 1,0,1
348 553 m 2,18,19
 348 591 348 591 330.5 608 c 128,-1,20
 313 625 313 625 275 625 c 2,21,-1
 172 625 l 1,22,-1
 172 404 l 1,23,-1
 275 404 l 2,24,25
 305 404 305 404 326.5 423.5 c 128,-1,26
 348 443 348 443 348 477 c 2,27,-1
 348 553 l 2,18,19
358 257 m 2,28,29
 358 290 358 290 337.5 309.5 c 128,-1,30
 317 329 317 329 285 329 c 2,31,-1
 172 329 l 1,32,-1
 172 75 l 1,33,-1
 284 75 l 2,34,35
 322 75 322 75 340 92.5 c 128,-1,36
 358 110 358 110 358 148 c 2,37,-1
 358 257 l 2,28,29
EndSplineSet
Position2: "'cpsp' Capital Spacing in Latin lookup 0 subtable" dx=5 dy=0 dh=10 dv=0
EndChar

StartChar: C
Encoding: 67 67 36
Width: 417
Flags: W
LayerCount: 2
Fore
SplineSet
255 0 m 2,0,1
 168 0 168 0 121.5 42 c 128,-1,2
 75 84 75 84 75 170 c 2,3,-1
 75 530 l 2,4,5
 75 616 75 616 121.5 658 c 128,-1,6
 168 700 168 700 255 700 c 2,7,-1
 377 700 l 1,8,-1
 377 624 l 1,9,-1
 245 624 l 2,10,11
 207 624 207 624 184.5 601.5 c 128,-1,12
 162 579 162 579 162 549 c 2,13,-1
 162 151 l 2,14,15
 162 121 162 121 184.5 98.5 c 128,-1,16
 207 76 207 76 245 76 c 2,17,-1
 377 76 l 1,18,-1
 377 0 l 1,19,-1
 255 0 l 2,0,1
EndSplineSet
Position2: "'cpsp' Capital Spacing in Latin lookup 0 subtable" dx=5 dy=0 dh=10 dv=0
EndChar

StartChar: D
Encoding: 68 68 37
Width: 526
Flags: W
LayerCount: 2
Fore
SplineSet
451 158 m 1,0,1
 451 72 451 72 411 36 c 128,-1,2
 371 0 371 0 281 0 c 2,3,-1
 85 0 l 1,4,-1
 85 700 l 1,5,-1
 269 700 l 2,6,7
 355 700 355 700 403 665 c 128,-1,8
 451 630 451 630 451 544 c 2,9,-1
 451 158 l 1,10,-1
 451 158 l 1,0,1
364 553 m 2,11,12
 364 586 364 586 343.5 605.5 c 128,-1,13
 323 625 323 625 291 625 c 2,14,-1
 172 625 l 1,15,-1
 172 75 l 1,16,-1
 290 75 l 2,17,18
 328 75 328 75 346 92.5 c 128,-1,19
 364 110 364 110 364 148 c 2,20,-1
 364 553 l 2,11,12
EndSplineSet
Position2: "'cpsp' Capital Spacing in Latin lookup 0 subtable" dx=5 dy=0 dh=10 dv=0
EndChar

StartChar: E
Encoding: 69 69 38
Width: 473
Flags: W
LayerCount: 2
Fore
SplineSet
85 0 m 1,0,-1
 85 700 l 1,1,-1
 413 700 l 1,2,-1
 413 627 l 1,3,-1
 172 627 l 1,4,-1
 172 398 l 1,5,-1
 388 398 l 1,6,-1
 388 325 l 1,7,-1
 172 325 l 1,8,-1
 172 73 l 1,9,-1
 413 73 l 1,10,-1
 413 0 l 1,11,-1
 85 0 l 1,0,-1
EndSplineSet
Position2: "'cpsp' Capital Spacing in Latin lookup 0 subtable" dx=5 dy=0 dh=10 dv=0
EndChar

StartChar: F
Encoding: 70 70 39
Width: 458
Flags: W
LayerCount: 2
Fore
SplineSet
172 627 m 1,0,-1
 172 388 l 1,1,-1
 388 388 l 1,2,-1
 388 315 l 1,3,-1
 172 315 l 1,4,-1
 172 0 l 1,5,-1
 85 0 l 1,6,-1
 85 700 l 1,7,-1
 413 700 l 1,8,-1
 413 627 l 1,9,-1
 172 627 l 1,0,-1
EndSplineSet
Position2: "'cpsp' Capital Spacing in Latin lookup 0 subtable" dx=5 dy=0 dh=10 dv=0
EndChar

StartChar: G
Encoding: 71 71 40
Width: 490
Flags: W
LayerCount: 2
Fore
SplineSet
255 0 m 2,0,1
 168 0 168 0 121.5 42 c 128,-1,2
 75 84 75 84 75 170 c 2,3,-1
 75 530 l 2,4,5
 75 616 75 616 121.5 658 c 128,-1,6
 168 700 168 700 255 700 c 2,7,-1
 390 700 l 1,8,-1
 390 624 l 1,9,-1
 245 624 l 2,10,11
 207 624 207 624 184.5 601.5 c 128,-1,12
 162 579 162 579 162 549 c 2,13,-1
 162 151 l 2,14,15
 162 121 162 121 184.5 98.5 c 128,-1,16
 207 76 207 76 245 76 c 2,17,-1
 337 76 l 1,18,-1
 337 293 l 1,19,-1
 253 293 l 1,20,-1
 253 368 l 1,21,-1
 420 368 l 1,22,-1
 420 0 l 1,23,-1
 255 0 l 2,0,1
EndSplineSet
Position2: "'cpsp' Capital Spacing in Latin lookup 0 subtable" dx=5 dy=0 dh=10 dv=0
EndChar

StartChar: H
Encoding: 72 72 41
Width: 550
Flags: W
LayerCount: 2
Fore
SplineSet
378 0 m 1,0,-1
 378 322 l 1,1,-1
 172 322 l 1,2,-1
 172 0 l 1,3,-1
 85 0 l 1,4,-1
 85 700 l 1,5,-1
 172 700 l 1,6,-1
 172 396 l 1,7,-1
 378 396 l 1,8,-1
 378 700 l 1,9,-1
 465 700 l 1,10,-1
 465 0 l 1,11,-1
 378 0 l 1,0,-1
EndSplineSet
Position2: "'cpsp' Capital Spacing in Latin lookup 0 subtable" dx=5 dy=0 dh=10 dv=0
EndChar

StartChar: I
Encoding: 73 73 42
Width: 317
Flags: W
LayerCount: 2
Fore
SplineSet
45 0 m 1,0,-1
 45 73 l 1,1,-1
 115 73 l 1,2,-1
 115 627 l 1,3,-1
 45 627 l 1,4,-1
 45 700 l 1,5,-1
 272 700 l 1,6,-1
 272 627 l 1,7,-1
 202 627 l 1,8,-1
 202 73 l 1,9,-1
 272 73 l 1,10,-1
 272 0 l 1,11,-1
 45 0 l 1,0,-1
EndSplineSet
Position2: "'cpsp' Capital Spacing in Latin lookup 0 subtable" dx=5 dy=0 dh=10 dv=0
EndChar

StartChar: J
Encoding: 74 74 43
Width: 380
Flags: W
LayerCount: 2
Fore
SplineSet
305 170 m 1,0,1
 305 84 305 84 258.5 42 c 128,-1,2
 212 0 212 0 125 0 c 2,3,-1
 30 0 l 1,4,-1
 30 76 l 1,5,-1
 135 76 l 2,6,7
 173 76 173 76 195.5 98.5 c 128,-1,8
 218 121 218 121 218 151 c 2,9,-1
 218 625 l 1,10,-1
 67 625 l 1,11,-1
 67 700 l 1,12,-1
 305 700 l 1,13,-1
 305 170 l 1,14,-1
 305 170 l 1,0,1
EndSplineSet
Position2: "'cpsp' Capital Spacing in Latin lookup 0 subtable" dx=5 dy=0 dh=10 dv=0
EndChar

StartChar: K
Encoding: 75 75 44
Width: 492
Flags: W
LayerCount: 2
Fore
SplineSet
364 0 m 1,0,-1
 208 318 l 1,1,-1
 172 258 l 1,2,-1
 172 0 l 1,3,-1
 85 0 l 1,4,-1
 85 700 l 1,5,-1
 172 700 l 1,6,-1
 172 398 l 1,7,-1
 357 700 l 1,8,-1
 452 700 l 1,9,-1
 262 394 l 1,10,-1
 462 0 l 1,11,-1
 364 0 l 1,0,-1
EndSplineSet
Position2: "'cpsp' Capital Spacing in Latin lookup 0 subtable" dx=5 dy=0 dh=10 dv=0
EndChar

StartChar: L
Encoding: 76 76 45
Width: 410
Flags: W
LayerCount: 2
Fore
SplineSet
85 0 m 1,0,-1
 85 700 l 1,1,-1
 172 700 l 1,2,-1
 172 76 l 1,3,-1
 395 76 l 1,4,-1
 395 0 l 1,5,-1
 85 0 l 1,0,-1
EndSplineSet
Position2: "'cpsp' Capital Spacing in Latin lookup 0 subtable" dx=5 dy=0 dh=10 dv=0
EndChar

StartChar: M
Encoding: 77 77 46
Width: 630
Flags: W
LayerCount: 2
Fore
SplineSet
462 0 m 1,0,-1
 462 628 l 1,1,-1
 355 235 l 1,2,-1
 272 235 l 1,3,-1
 165 628 l 1,4,-1
 165 0 l 1,5,-1
 85 0 l 1,6,-1
 85 700 l 1,7,-1
 226 700 l 1,8,-1
 317 342 l 1,9,-1
 407 700 l 1,10,-1
 545 700 l 1,11,-1
 545 0 l 1,12,-1
 462 0 l 1,0,-1
EndSplineSet
Position2: "'cpsp' Capital Spacing in Latin lookup 0 subtable" dx=5 dy=0 dh=10 dv=0
EndChar

StartChar: N
Encoding: 78 78 47
Width: 547
Flags: W
LayerCount: 2
Fore
SplineSet
319 0 m 1,0,-1
 166 626 l 1,1,-1
 166 0 l 1,2,-1
 85 0 l 1,3,-1
 85 700 l 1,4,-1
 227 700 l 1,5,-1
 381 74 l 1,6,-1
 381 700 l 1,7,-1
 462 700 l 1,8,-1
 462 0 l 1,9,-1
 319 0 l 1,0,-1
EndSplineSet
Position2: "'cpsp' Capital Spacing in Latin lookup 0 subtable" dx=5 dy=0 dh=10 dv=0
EndChar

StartChar: O
Encoding: 79 79 48
Width: 544
Flags: W
LayerCount: 2
Fore
SplineSet
469 170 m 1,0,1
 469 84 469 84 422.5 42 c 128,-1,2
 376 0 376 0 289 0 c 2,3,-1
 255 0 l 2,4,5
 168 0 168 0 121.5 42 c 128,-1,6
 75 84 75 84 75 170 c 2,7,-1
 75 530 l 2,8,9
 75 616 75 616 121.5 658 c 128,-1,10
 168 700 168 700 255 700 c 2,11,-1
 289 700 l 2,12,13
 376 700 376 700 422.5 658 c 128,-1,14
 469 616 469 616 469 530 c 2,15,-1
 469 170 l 1,16,-1
 469 170 l 1,0,1
382 549 m 2,17,18
 382 579 382 579 359.5 601.5 c 128,-1,19
 337 624 337 624 299 624 c 2,20,-1
 245 624 l 2,21,22
 207 624 207 624 184.5 601.5 c 128,-1,23
 162 579 162 579 162 549 c 2,24,-1
 162 151 l 2,25,26
 162 121 162 121 184.5 98.5 c 128,-1,27
 207 76 207 76 245 76 c 2,28,-1
 299 76 l 2,29,30
 337 76 337 76 359.5 98.5 c 128,-1,31
 382 121 382 121 382 151 c 2,32,-1
 382 549 l 2,17,18
EndSplineSet
Substitution2: "'ordn' Ordinals in Latin lookup 4 subtable" ordmasculine
Substitution2: "'aalt' Access All Alternates in Latin lookup 0 subtable" ordmasculine
Position2: "'cpsp' Capital Spacing in Latin lookup 0 subtable" dx=5 dy=0 dh=10 dv=0
EndChar

StartChar: P
Encoding: 80 80 49
Width: 491
Flags: W
LayerCount: 2
Fore
SplineSet
436 430 m 1,0,1
 436 347 436 347 392.5 309.5 c 128,-1,2
 349 272 349 272 266 272 c 2,3,-1
 172 272 l 1,4,-1
 172 0 l 1,5,-1
 85 0 l 1,6,-1
 85 700 l 1,7,-1
 264 700 l 2,8,9
 347 700 347 700 391.5 663.5 c 128,-1,10
 436 627 436 627 436 544 c 2,11,-1
 436 430 l 1,12,-1
 436 430 l 1,0,1
349 553 m 2,13,14
 349 591 349 591 331.5 608 c 128,-1,15
 314 625 314 625 276 625 c 2,16,-1
 172 625 l 1,17,-1
 172 347 l 1,18,-1
 276 347 l 2,19,20
 314 347 314 347 331.5 364.5 c 128,-1,21
 349 382 349 382 349 420 c 2,22,-1
 349 553 l 2,13,14
EndSplineSet
Position2: "'cpsp' Capital Spacing in Latin lookup 0 subtable" dx=5 dy=0 dh=10 dv=0
EndChar

StartChar: Q
Encoding: 81 81 50
Width: 544
Flags: W
LayerCount: 2
Fore
SplineSet
463 -59 m 1,0,-1
 386 19 l 1,1,2
 347 0 347 0 289 0 c 2,3,-1
 255 0 l 2,4,5
 168 0 168 0 121.5 42 c 128,-1,6
 75 84 75 84 75 170 c 2,7,-1
 75 530 l 2,8,9
 75 616 75 616 121.5 658 c 128,-1,10
 168 700 168 700 255 700 c 2,11,-1
 289 700 l 2,12,13
 376 700 376 700 422.5 658 c 128,-1,14
 469 616 469 616 469 530 c 2,15,-1
 469 170 l 2,16,17
 469 111 469 111 445 73 c 1,18,-1
 520 -2 l 1,19,-1
 463 -59 l 1,0,-1
382 549 m 2,20,21
 382 579 382 579 359.5 601.5 c 128,-1,22
 337 624 337 624 299 624 c 2,23,-1
 245 624 l 2,24,25
 207 624 207 624 184.5 601.5 c 128,-1,26
 162 579 162 579 162 549 c 2,27,-1
 162 151 l 2,28,29
 162 121 162 121 184.5 98.5 c 128,-1,30
 207 76 207 76 245 76 c 2,31,-1
 299 76 l 2,32,33
 337 76 337 76 359.5 95 c 128,-1,34
 382 114 382 114 382 151 c 2,35,-1
 382 549 l 2,20,21
EndSplineSet
Position2: "'cpsp' Capital Spacing in Latin lookup 0 subtable" dx=5 dy=0 dh=10 dv=0
EndChar

StartChar: R
Encoding: 82 82 51
Width: 520
Flags: W
LayerCount: 2
Fore
SplineSet
390 0 m 1,0,-1
 261 290 l 1,1,-1
 172 290 l 1,2,-1
 172 0 l 1,3,-1
 85 0 l 1,4,-1
 85 700 l 1,5,-1
 264 700 l 2,6,7
 347 700 347 700 391.5 663.5 c 128,-1,8
 436 627 436 627 436 544 c 2,9,-1
 436 448 l 2,10,11
 436 388 436 388 412.5 354.5 c 128,-1,12
 389 321 389 321 346 307 c 1,13,-1
 485 0 l 1,14,-1
 390 0 l 1,0,-1
349 553 m 2,15,16
 349 591 349 591 331.5 608 c 128,-1,17
 314 625 314 625 276 625 c 2,18,-1
 172 625 l 1,19,-1
 172 365 l 1,20,-1
 276 365 l 2,21,22
 314 365 314 365 331.5 382.5 c 128,-1,23
 349 400 349 400 349 438 c 2,24,-1
 349 553 l 2,15,16
EndSplineSet
Position2: "'cpsp' Capital Spacing in Latin lookup 0 subtable" dx=5 dy=0 dh=10 dv=0
EndChar

StartChar: S
Encoding: 83 83 52
Width: 439
Flags: W
LayerCount: 2
Fore
SplineSet
384 170 m 1,0,1
 384 84 384 84 337.5 42 c 128,-1,2
 291 0 291 0 204 0 c 2,3,-1
 72 0 l 1,4,-1
 72 76 l 1,5,-1
 214 76 l 2,6,7
 252 76 252 76 274.5 98.5 c 128,-1,8
 297 121 297 121 297 151 c 2,9,-1
 297 255 l 2,10,11
 297 284 297 284 282 303 c 128,-1,12
 267 322 267 322 235 322 c 2,13,-1
 215 322 l 2,14,15
 143 322 143 322 99 364 c 128,-1,16
 55 406 55 406 55 492 c 2,17,-1
 55 530 l 2,18,19
 55 616 55 616 101.5 658 c 128,-1,20
 148 700 148 700 235 700 c 2,21,-1
 368 700 l 1,22,-1
 368 624 l 1,23,-1
 225 624 l 2,24,25
 187 624 187 624 164.5 601.5 c 128,-1,26
 142 579 142 579 142 549 c 2,27,-1
 142 473 l 2,28,29
 142 443 142 443 161.5 422 c 128,-1,30
 181 401 181 401 214 401 c 2,31,-1
 234 401 l 2,32,33
 303 401 303 401 343.5 361.5 c 128,-1,34
 384 322 384 322 384 236 c 2,35,-1
 384 170 l 1,36,-1
 384 170 l 1,0,1
EndSplineSet
Position2: "'cpsp' Capital Spacing in Latin lookup 0 subtable" dx=5 dy=0 dh=10 dv=0
EndChar

StartChar: T
Encoding: 84 84 53
Width: 425
Flags: W
LayerCount: 2
Fore
SplineSet
256 624 m 1,0,-1
 256 0 l 1,1,-1
 169 0 l 1,2,-1
 169 624 l 1,3,-1
 15 624 l 1,4,-1
 15 700 l 1,5,-1
 410 700 l 1,6,-1
 410 624 l 1,7,-1
 256 624 l 1,0,-1
EndSplineSet
Position2: "'cpsp' Capital Spacing in Latin lookup 0 subtable" dx=5 dy=0 dh=10 dv=0
EndChar

StartChar: U
Encoding: 85 85 54
Width: 535
Flags: W
LayerCount: 2
Fore
SplineSet
455 170 m 1,0,1
 455 84 455 84 408.5 42 c 128,-1,2
 362 0 362 0 275 0 c 2,3,-1
 260 0 l 2,4,5
 173 0 173 0 126.5 42 c 128,-1,6
 80 84 80 84 80 170 c 2,7,-1
 80 700 l 1,8,-1
 167 700 l 1,9,-1
 167 151 l 2,10,11
 167 121 167 121 189.5 98.5 c 128,-1,12
 212 76 212 76 250 76 c 2,13,-1
 285 76 l 2,14,15
 323 76 323 76 345.5 98.5 c 128,-1,16
 368 121 368 121 368 151 c 2,17,-1
 368 700 l 1,18,-1
 455 700 l 1,19,-1
 455 170 l 1,20,-1
 455 170 l 1,0,1
EndSplineSet
Position2: "'cpsp' Capital Spacing in Latin lookup 0 subtable" dx=5 dy=0 dh=10 dv=0
EndChar

StartChar: V
Encoding: 86 86 55
Width: 473
Flags: W
LayerCount: 2
Fore
SplineSet
291 0 m 1,0,-1
 172 0 l 1,1,-1
 35 700 l 1,2,-1
 123 700 l 1,3,-1
 233 88 l 1,4,-1
 352 700 l 1,5,-1
 438 700 l 1,6,-1
 291 0 l 1,0,-1
EndSplineSet
Position2: "'cpsp' Capital Spacing in Latin lookup 0 subtable" dx=5 dy=0 dh=10 dv=0
EndChar

StartChar: W
Encoding: 87 87 56
Width: 589
Flags: W
LayerCount: 2
Fore
SplineSet
505 0 m 1,0,-1
 369 0 l 1,1,-1
 302 304 l 1,2,-1
 229 0 l 1,3,-1
 99 0 l 1,4,-1
 65 700 l 1,5,-1
 142 700 l 1,6,-1
 172 55 l 1,7,-1
 262 405 l 1,8,-1
 344 405 l 1,9,-1
 435 55 l 1,10,-1
 466 700 l 1,11,-1
 539 700 l 1,12,-1
 505 0 l 1,0,-1
EndSplineSet
Position2: "'cpsp' Capital Spacing in Latin lookup 0 subtable" dx=5 dy=0 dh=10 dv=0
EndChar

StartChar: X
Encoding: 88 88 57
Width: 496
Flags: W
LayerCount: 2
Fore
SplineSet
363 0 m 1,0,-1
 249 268 l 1,1,-1
 129 0 l 1,2,-1
 35 0 l 1,3,-1
 205 362 l 1,4,-1
 50 700 l 1,5,-1
 145 700 l 1,6,-1
 250 459 l 1,7,-1
 358 700 l 1,8,-1
 451 700 l 1,9,-1
 293 363 l 1,10,-1
 461 0 l 1,11,-1
 363 0 l 1,0,-1
EndSplineSet
Position2: "'cpsp' Capital Spacing in Latin lookup 0 subtable" dx=5 dy=0 dh=10 dv=0
EndChar

StartChar: Y
Encoding: 89 89 58
Width: 491
Flags: W
LayerCount: 2
Fore
SplineSet
289 325 m 1,0,-1
 289 0 l 1,1,-1
 199 0 l 1,2,-1
 199 325 l 1,3,-1
 20 700 l 1,4,-1
 116 700 l 1,5,-1
 248 409 l 1,6,-1
 380 700 l 1,7,-1
 471 700 l 1,8,-1
 289 325 l 1,0,-1
EndSplineSet
Position2: "'cpsp' Capital Spacing in Latin lookup 0 subtable" dx=5 dy=0 dh=10 dv=0
EndChar

StartChar: Z
Encoding: 90 90 59
Width: 436
Flags: W
LayerCount: 2
Fore
SplineSet
134 74 m 1,0,-1
 381 74 l 1,1,-1
 381 0 l 1,2,-1
 45 0 l 1,3,-1
 45 88 l 1,4,-1
 303 626 l 1,5,-1
 68 626 l 1,6,-1
 68 700 l 1,7,-1
 391 700 l 1,8,-1
 391 612 l 1,9,-1
 134 74 l 1,0,-1
EndSplineSet
Position2: "'cpsp' Capital Spacing in Latin lookup 0 subtable" dx=5 dy=0 dh=10 dv=0
EndChar

StartChar: bracketleft
Encoding: 91 91 60
Width: 325
Flags: W
LayerCount: 2
Fore
SplineSet
85 -120 m 1,0,-1
 85 820 l 1,1,-1
 275 820 l 1,2,-1
 275 745 l 1,3,-1
 165 745 l 1,4,-1
 165 -45 l 1,5,-1
 275 -45 l 1,6,-1
 275 -120 l 1,7,-1
 85 -120 l 1,0,-1
EndSplineSet
EndChar

StartChar: backslash
Encoding: 92 92 61
Width: 325
Flags: W
LayerCount: 2
Fore
SplineSet
5 810 m 1,0,-1
 84 810 l 1,1,-1
 320 -110 l 1,2,-1
 241 -110 l 1,3,-1
 5 810 l 1,0,-1
EndSplineSet
EndChar

StartChar: bracketright
Encoding: 93 93 62
Width: 325
Flags: W
LayerCount: 2
Fore
SplineSet
50 -120 m 1,0,-1
 50 -45 l 1,1,-1
 160 -45 l 1,2,-1
 160 745 l 1,3,-1
 50 745 l 1,4,-1
 50 820 l 1,5,-1
 240 820 l 1,6,-1
 240 -120 l 1,7,-1
 50 -120 l 1,0,-1
EndSplineSet
EndChar

StartChar: asciicircum
Encoding: 94 94 63
Width: 487
Flags: W
LayerCount: 2
Fore
SplineSet
351 420 m 1,0,-1
 247 700 l 1,1,-1
 133 420 l 1,2,-1
 45 420 l 1,3,-1
 189 760 l 1,4,-1
 303 760 l 1,5,-1
 442 420 l 1,6,-1
 351 420 l 1,0,-1
EndSplineSet
EndChar

StartChar: underscore
Encoding: 95 95 64
Width: 510
Flags: W
LayerCount: 2
Fore
SplineSet
3 -170 m 1,0,-1
 3 -95 l 1,1,-1
 507 -95 l 1,2,-1
 507 -170 l 1,3,-1
 3 -170 l 1,0,-1
EndSplineSet
EndChar

StartChar: quoteleft
Encoding: 8216 8216 65
Width: 225
Flags: W
LayerCount: 2
Fore
SplineSet
110 699 m 1,0,-1
 180 699 l 1,1,-1
 150 542 l 1,2,-1
 150 452 l 1,3,-1
 55 452 l 1,4,-1
 55 542 l 1,5,-1
 110 699 l 1,0,-1
EndSplineSet
EndChar

StartChar: a
Encoding: 97 97 66
Width: 470
Flags: W
LayerCount: 2
Fore
SplineSet
375 0 m 2,0,1
 361 0 361 0 346 8 c 128,-1,2
 331 16 331 16 320 30 c 1,3,4
 309 16 309 16 294 8 c 128,-1,5
 279 0 279 0 259 0 c 2,6,-1
 190 0 l 2,7,8
 115 0 115 0 80 30 c 128,-1,9
 45 60 45 60 45 135 c 2,10,-1
 45 155 l 2,11,12
 45 230 45 230 80.5 270 c 128,-1,13
 116 310 116 310 191 310 c 2,14,-1
 295 310 l 1,15,-1
 295 360 l 2,16,17
 295 390 295 390 276.5 407.5 c 128,-1,18
 258 425 258 425 220 425 c 2,19,-1
 85 425 l 1,20,-1
 85 500 l 1,21,-1
 210 500 l 2,22,23
 297 500 297 500 338.5 463 c 128,-1,24
 380 426 380 426 380 340 c 2,25,-1
 380 100 l 2,26,27
 380 85 380 85 391 77.5 c 128,-1,28
 402 70 402 70 430 70 c 1,29,-1
 430 0 l 1,30,-1
 375 0 l 2,0,1
249 75 m 1,31,32
 266 75 266 75 275.5 80 c 128,-1,33
 285 85 285 85 289.5 92.5 c 128,-1,34
 294 100 294 100 294.5 109 c 128,-1,35
 295 118 295 118 295 125 c 2,36,-1
 295 235 l 1,37,-1
 190 235 l 2,38,39
 164 235 164 235 147 218 c 128,-1,40
 130 201 130 201 130 175 c 2,41,-1
 130 125 l 2,42,43
 130 75 130 75 180 75 c 2,44,-1
 249 75 l 1,45,-1
 249 75 l 1,31,32
EndSplineSet
Substitution2: "'ordn' Ordinals in Latin lookup 4 subtable" ordfeminine
Substitution2: "'aalt' Access All Alternates in Latin lookup 0 subtable" ordfeminine
EndChar

StartChar: b
Encoding: 98 98 67
Width: 496
Flags: W
LayerCount: 2
Fore
SplineSet
426 160 m 1,0,1
 426 74 426 74 384.5 37 c 128,-1,2
 343 0 343 0 256 0 c 2,3,-1
 80 0 l 1,4,-1
 80 700 l 1,5,-1
 165 700 l 1,6,-1
 165 480 l 1,7,8
 181 491 181 491 200 495.5 c 128,-1,9
 219 500 219 500 240 500 c 2,10,-1
 256 500 l 2,11,12
 343 500 343 500 384.5 463.5 c 128,-1,13
 426 427 426 427 426 340 c 2,14,-1
 426 160 l 1,15,-1
 426 160 l 1,0,1
230 425 m 1,16,17
 211 425 211 425 198.5 419 c 128,-1,18
 186 413 186 413 178.5 405 c 128,-1,19
 171 397 171 397 168 387.5 c 128,-1,20
 165 378 165 378 165 370 c 2,21,-1
 165 75 l 1,22,-1
 266 75 l 2,23,24
 304 75 304 75 322.5 92.5 c 128,-1,25
 341 110 341 110 341 140 c 2,26,-1
 341 360 l 2,27,28
 341 390 341 390 322.5 407.5 c 128,-1,29
 304 425 304 425 266 425 c 2,30,-1
 230 425 l 1,31,-1
 230 425 l 1,16,17
EndSplineSet
EndChar

StartChar: c
Encoding: 99 99 68
Width: 399
Flags: W
LayerCount: 2
Fore
SplineSet
240 0 m 2,0,1
 153 0 153 0 111.5 36.5 c 128,-1,2
 70 73 70 73 70 160 c 2,3,-1
 70 340 l 2,4,5
 70 426 70 426 111.5 463 c 128,-1,6
 153 500 153 500 240 500 c 2,7,-1
 349 500 l 1,8,-1
 349 425 l 1,9,-1
 230 425 l 2,10,11
 192 425 192 425 173.5 407.5 c 128,-1,12
 155 390 155 390 155 360 c 2,13,-1
 155 140 l 2,14,15
 155 110 155 110 173.5 92.5 c 128,-1,16
 192 75 192 75 230 75 c 2,17,-1
 349 75 l 1,18,-1
 349 0 l 1,19,-1
 240 0 l 2,0,1
EndSplineSet
EndChar

StartChar: d
Encoding: 100 100 69
Width: 501
Flags: W
LayerCount: 2
Fore
SplineSet
341 0 m 1,0,-1
 341 23 l 1,1,2
 308 0 308 0 261 0 c 2,3,-1
 240 0 l 2,4,5
 153 0 153 0 111.5 36.5 c 128,-1,6
 70 73 70 73 70 160 c 2,7,-1
 70 340 l 2,8,9
 70 426 70 426 111.5 463 c 128,-1,10
 153 500 153 500 240 500 c 2,11,-1
 336 500 l 1,12,-1
 336 700 l 1,13,-1
 421 700 l 1,14,-1
 421 0 l 1,15,-1
 341 0 l 1,0,-1
271 75 m 1,16,17
 290 75 290 75 302.5 81 c 128,-1,18
 315 87 315 87 322.5 95 c 128,-1,19
 330 103 330 103 333 113 c 128,-1,20
 336 123 336 123 336 130 c 2,21,-1
 336 425 l 1,22,-1
 230 425 l 2,23,24
 192 425 192 425 173.5 407.5 c 128,-1,25
 155 390 155 390 155 360 c 2,26,-1
 155 140 l 2,27,28
 155 110 155 110 173.5 92.5 c 128,-1,29
 192 75 192 75 230 75 c 2,30,-1
 271 75 l 1,31,-1
 271 75 l 1,16,17
EndSplineSet
EndChar

StartChar: e
Encoding: 101 101 70
Width: 466
Flags: W
LayerCount: 2
Fore
SplineSet
240 0 m 2,0,1
 153 0 153 0 111.5 36.5 c 128,-1,2
 70 73 70 73 70 160 c 2,3,-1
 70 340 l 2,4,5
 70 426 70 426 107 463 c 128,-1,6
 144 500 144 500 230 500 c 2,7,-1
 257 500 l 2,8,9
 329 500 329 500 365 460 c 128,-1,10
 401 420 401 420 401 345 c 2,11,-1
 401 215 l 1,12,-1
 155 215 l 1,13,-1
 155 140 l 2,14,15
 155 110 155 110 173.5 92.5 c 128,-1,16
 192 75 192 75 230 75 c 2,17,-1
 369 75 l 1,18,-1
 369 0 l 1,19,-1
 240 0 l 2,0,1
155 290 m 1,20,-1
 318 290 l 1,21,-1
 318 365 l 2,22,23
 318 391 318 391 301 408 c 128,-1,24
 284 425 284 425 258 425 c 2,25,-1
 220 425 l 2,26,27
 182 425 182 425 168.5 407.5 c 128,-1,28
 155 390 155 390 155 360 c 2,29,-1
 155 290 l 1,20,-1
EndSplineSet
EndChar

StartChar: f
Encoding: 102 102 71
Width: 306
Flags: W
LayerCount: 2
Fore
SplineSet
215 625 m 2,0,1
 198 625 198 625 189 616.5 c 128,-1,2
 180 608 180 608 180 595 c 2,3,-1
 180 500 l 1,4,-1
 301 500 l 1,5,-1
 301 425 l 1,6,-1
 180 425 l 1,7,-1
 180 0 l 1,8,-1
 95 0 l 1,9,-1
 95 425 l 1,10,-1
 30 425 l 1,11,-1
 30 500 l 1,12,-1
 95 500 l 1,13,-1
 95 590 l 2,14,15
 95 643 95 643 124.5 671.5 c 128,-1,16
 154 700 154 700 199 700 c 2,17,-1
 311 700 l 1,18,-1
 311 625 l 1,19,-1
 215 625 l 2,0,1
EndSplineSet
EndChar

StartChar: g
Encoding: 103 103 72
Width: 494
Flags: W
LayerCount: 2
Fore
SplineSet
444 -35 m 1,0,1
 444 -103 444 -103 404 -136.5 c 128,-1,2
 364 -170 364 -170 277 -170 c 2,3,-1
 75 -170 l 1,4,-1
 75 -95 l 1,5,-1
 287 -95 l 2,6,7
 325 -95 325 -95 342 -80 c 128,-1,8
 359 -65 359 -65 359 -45 c 2,9,-1
 359 -13 l 2,10,11
 359 10 359 10 342 23.5 c 128,-1,12
 325 37 325 37 287 37 c 2,13,-1
 120 37 l 1,14,-1
 120 175 l 1,15,16
 87 193 87 193 71 227 c 128,-1,17
 55 261 55 261 55 315 c 2,18,-1
 55 340 l 2,19,20
 55 426 55 426 96.5 463 c 128,-1,21
 138 500 138 500 225 500 c 2,22,-1
 429 500 l 1,23,-1
 429 315 l 2,24,25
 429 239 429 239 388 197 c 128,-1,26
 347 155 347 155 279 155 c 2,27,-1
 205 155 l 1,28,-1
 205 112 l 1,29,-1
 277 112 l 2,30,31
 364 112 364 112 404 78.5 c 128,-1,32
 444 45 444 45 444 -23 c 2,33,-1
 444 -35 l 1,34,-1
 444 -35 l 1,0,1
279 230 m 1,35,36
 297 230 297 230 309 236.5 c 128,-1,37
 321 243 321 243 328.5 253 c 128,-1,38
 336 263 336 263 339.5 273.5 c 128,-1,39
 343 284 343 284 344 292 c 1,40,-1
 344 425 l 1,41,-1
 215 425 l 2,42,43
 177 425 177 425 158.5 407.5 c 128,-1,44
 140 390 140 390 140 360 c 2,45,-1
 140 295 l 2,46,47
 140 265 140 265 158.5 247.5 c 128,-1,48
 177 230 177 230 215 230 c 2,49,-1
 279 230 l 1,50,-1
 279 230 l 1,35,36
EndSplineSet
EndChar

StartChar: h
Encoding: 104 104 73
Width: 501
Flags: W
LayerCount: 2
Fore
SplineSet
80 0 m 1,0,-1
 80 700 l 1,1,-1
 165 700 l 1,2,-1
 165 480 l 1,3,4
 181 491 181 491 200 495.5 c 128,-1,5
 219 500 219 500 240 500 c 2,6,-1
 266 500 l 2,7,8
 345 500 345 500 385.5 463.5 c 128,-1,9
 426 427 426 427 426 340 c 2,10,-1
 426 0 l 1,11,-1
 341 0 l 1,12,-1
 341 360 l 2,13,14
 341 390 341 390 323.5 407.5 c 128,-1,15
 306 425 306 425 276 425 c 2,16,-1
 230 425 l 2,17,18
 212 425 212 425 199.5 419.5 c 128,-1,19
 187 414 187 414 179.5 406.5 c 128,-1,20
 172 399 172 399 168.5 390 c 128,-1,21
 165 381 165 381 165 373 c 2,22,-1
 165 0 l 1,23,-1
 80 0 l 1,0,-1
EndSplineSet
EndChar

StartChar: i
Encoding: 105 105 74
Width: 245
Flags: W
LayerCount: 2
Fore
SplineSet
75 610 m 1,0,-1
 75 700 l 1,1,-1
 170 700 l 1,2,-1
 170 610 l 1,3,-1
 75 610 l 1,0,-1
80 0 m 1,4,-1
 80 500 l 1,5,-1
 165 500 l 1,6,-1
 165 0 l 1,7,-1
 80 0 l 1,4,-1
EndSplineSet
EndChar

StartChar: j
Encoding: 106 106 75
Width: 245
Flags: W
LayerCount: 2
Fore
SplineSet
75 610 m 1,0,-1
 75 700 l 1,1,-1
 170 700 l 1,2,-1
 170 610 l 1,3,-1
 75 610 l 1,0,-1
46 -95 m 2,4,5
 63 -95 63 -95 72 -86.5 c 128,-1,6
 81 -78 81 -78 81 -65 c 2,7,-1
 81 500 l 1,8,-1
 166 500 l 1,9,-1
 166 -60 l 2,10,11
 166 -113 166 -113 136.5 -141.5 c 128,-1,12
 107 -170 107 -170 62 -170 c 2,13,-1
 -45 -170 l 1,14,-1
 -45 -95 l 1,15,-1
 46 -95 l 2,4,5
EndSplineSet
EndChar

StartChar: k
Encoding: 107 107 76
Width: 464
Flags: W
LayerCount: 2
Fore
SplineSet
330 0 m 1,0,-1
 193 247 l 1,1,-1
 165 214 l 1,2,-1
 165 0 l 1,3,-1
 80 0 l 1,4,-1
 80 700 l 1,5,-1
 165 700 l 1,6,-1
 165 326 l 1,7,-1
 315 500 l 1,8,-1
 422 500 l 1,9,-1
 253 307 l 1,10,-1
 429 0 l 1,11,-1
 330 0 l 1,0,-1
EndSplineSet
EndChar

StartChar: l
Encoding: 108 108 77
Width: 250
Flags: W
LayerCount: 2
Fore
SplineSet
160 0 m 2,0,1
 145 0 145 0 130 5 c 128,-1,2
 115 10 115 10 103 21.5 c 128,-1,3
 91 33 91 33 83 52.5 c 128,-1,4
 75 72 75 72 75 100 c 2,5,-1
 75 700 l 1,6,-1
 160 700 l 1,7,-1
 160 105 l 2,8,9
 160 89 160 89 167.5 82 c 128,-1,10
 175 75 175 75 195 75 c 2,11,-1
 215 75 l 1,12,-1
 215 0 l 1,13,-1
 160 0 l 2,0,1
EndSplineSet
EndChar

StartChar: m
Encoding: 109 109 78
Width: 720
Flags: W
LayerCount: 2
Fore
SplineSet
80 0 m 1,0,-1
 80 500 l 1,1,-1
 160 500 l 1,2,-1
 160 476 l 1,3,4
 177 489 177 489 197 494.5 c 128,-1,5
 217 500 217 500 240 500 c 2,6,-1
 246 500 l 2,7,8
 337 500 337 500 376 454 c 1,9,10
 396 478 396 478 422 489 c 128,-1,11
 448 500 448 500 479 500 c 2,12,-1
 485 500 l 2,13,14
 564 500 564 500 604.5 463.5 c 128,-1,15
 645 427 645 427 645 340 c 2,16,-1
 645 0 l 1,17,-1
 560 0 l 1,18,-1
 560 360 l 2,19,20
 560 390 560 390 542.5 407.5 c 128,-1,21
 525 425 525 425 495 425 c 2,22,-1
 469 425 l 2,23,24
 452 425 452 425 440 419 c 128,-1,25
 428 413 428 413 420.5 404 c 128,-1,26
 413 395 413 395 409.5 385 c 128,-1,27
 406 375 406 375 405 367 c 1,28,-1
 405 0 l 1,29,-1
 320 0 l 1,30,-1
 320 360 l 2,31,32
 320 390 320 390 303 407.5 c 128,-1,33
 286 425 286 425 256 425 c 2,34,-1
 230 425 l 2,35,36
 212 425 212 425 199.5 419.5 c 128,-1,37
 187 414 187 414 179.5 406.5 c 128,-1,38
 172 399 172 399 168.5 390 c 128,-1,39
 165 381 165 381 165 373 c 2,40,-1
 165 0 l 1,41,-1
 80 0 l 1,0,-1
EndSplineSet
EndChar

StartChar: n
Encoding: 110 110 79
Width: 501
Flags: W
LayerCount: 2
Fore
SplineSet
80 0 m 1,0,-1
 80 500 l 1,1,-1
 160 500 l 1,2,-1
 160 476 l 1,3,4
 177 489 177 489 197 494.5 c 128,-1,5
 217 500 217 500 240 500 c 2,6,-1
 266 500 l 2,7,8
 345 500 345 500 385.5 463.5 c 128,-1,9
 426 427 426 427 426 340 c 2,10,-1
 426 0 l 1,11,-1
 341 0 l 1,12,-1
 341 360 l 2,13,14
 341 390 341 390 323.5 407.5 c 128,-1,15
 306 425 306 425 276 425 c 2,16,-1
 230 425 l 2,17,18
 211 425 211 425 198.5 419 c 128,-1,19
 186 413 186 413 178.5 405 c 128,-1,20
 171 397 171 397 168 387.5 c 128,-1,21
 165 378 165 378 165 370 c 2,22,-1
 165 0 l 1,23,-1
 80 0 l 1,0,-1
EndSplineSet
EndChar

StartChar: o
Encoding: 111 111 80
Width: 493
Flags: W
LayerCount: 2
Fore
SplineSet
423 160 m 1,0,1
 423 74 423 74 381.5 37 c 128,-1,2
 340 0 340 0 253 0 c 2,3,-1
 240 0 l 2,4,5
 153 0 153 0 111.5 37 c 128,-1,6
 70 74 70 74 70 160 c 2,7,-1
 70 340 l 2,8,9
 70 426 70 426 111.5 463 c 128,-1,10
 153 500 153 500 240 500 c 2,11,-1
 253 500 l 2,12,13
 340 500 340 500 381.5 463 c 128,-1,14
 423 426 423 426 423 340 c 2,15,-1
 423 160 l 1,16,-1
 423 160 l 1,0,1
338 360 m 2,17,18
 338 390 338 390 319.5 407.5 c 128,-1,19
 301 425 301 425 263 425 c 2,20,-1
 230 425 l 2,21,22
 192 425 192 425 173.5 407.5 c 128,-1,23
 155 390 155 390 155 360 c 2,24,-1
 155 140 l 2,25,26
 155 110 155 110 173.5 92.5 c 128,-1,27
 192 75 192 75 230 75 c 2,28,-1
 263 75 l 2,29,30
 301 75 301 75 319.5 92.5 c 128,-1,31
 338 110 338 110 338 140 c 2,32,-1
 338 360 l 2,17,18
EndSplineSet
Substitution2: "'ordn' Ordinals in Latin lookup 4 subtable" ordmasculine
Substitution2: "'aalt' Access All Alternates in Latin lookup 0 subtable" ordmasculine
EndChar

StartChar: p
Encoding: 112 112 81
Width: 496
Flags: W
LayerCount: 2
Fore
SplineSet
80 -170 m 1,0,-1
 80 500 l 1,1,-1
 160 500 l 1,2,-1
 160 476 l 1,3,4
 177 489 177 489 197 494.5 c 128,-1,5
 217 500 217 500 240 500 c 2,6,-1
 256 500 l 2,7,8
 343 500 343 500 384.5 463.5 c 128,-1,9
 426 427 426 427 426 340 c 2,10,-1
 426 160 l 2,11,12
 426 74 426 74 384.5 37 c 128,-1,13
 343 0 343 0 256 0 c 2,14,-1
 165 0 l 1,15,-1
 165 -170 l 1,16,-1
 80 -170 l 1,0,-1
230 425 m 1,17,18
 211 425 211 425 198.5 419 c 128,-1,19
 186 413 186 413 178.5 405 c 128,-1,20
 171 397 171 397 168 387.5 c 128,-1,21
 165 378 165 378 165 370 c 2,22,-1
 165 75 l 1,23,-1
 266 75 l 2,24,25
 304 75 304 75 322.5 92.5 c 128,-1,26
 341 110 341 110 341 140 c 2,27,-1
 341 360 l 2,28,29
 341 390 341 390 322.5 407.5 c 128,-1,30
 304 425 304 425 266 425 c 2,31,-1
 230 425 l 1,32,-1
 230 425 l 1,17,18
EndSplineSet
EndChar

StartChar: q
Encoding: 113 113 82
Width: 501
Flags: W
LayerCount: 2
Fore
SplineSet
336 -170 m 1,0,-1
 336 20 l 1,1,2
 305 0 305 0 261 0 c 2,3,-1
 240 0 l 2,4,5
 153 0 153 0 111.5 36.5 c 128,-1,6
 70 73 70 73 70 160 c 2,7,-1
 70 340 l 2,8,9
 70 426 70 426 111.5 463 c 128,-1,10
 153 500 153 500 240 500 c 2,11,-1
 421 500 l 1,12,-1
 421 -170 l 1,13,-1
 336 -170 l 1,0,-1
271 75 m 1,14,15
 290 75 290 75 302.5 81 c 128,-1,16
 315 87 315 87 322.5 95 c 128,-1,17
 330 103 330 103 333 113 c 128,-1,18
 336 123 336 123 336 130 c 2,19,-1
 336 425 l 1,20,-1
 230 425 l 2,21,22
 192 425 192 425 173.5 407.5 c 128,-1,23
 155 390 155 390 155 360 c 2,24,-1
 155 140 l 2,25,26
 155 110 155 110 173.5 92.5 c 128,-1,27
 192 75 192 75 230 75 c 2,28,-1
 271 75 l 1,29,-1
 271 75 l 1,14,15
EndSplineSet
EndChar

StartChar: r
Encoding: 114 114 83
Width: 333
Flags: W
LayerCount: 2
Fore
SplineSet
80 0 m 1,0,-1
 80 500 l 1,1,-1
 160 500 l 1,2,-1
 160 473 l 1,3,4
 193 500 193 500 240 500 c 2,5,-1
 313 500 l 1,6,-1
 313 420 l 1,7,-1
 230 420 l 2,8,9
 211 420 211 420 198.5 412.5 c 128,-1,10
 186 405 186 405 178.5 395 c 128,-1,11
 171 385 171 385 168 374 c 128,-1,12
 165 363 165 363 165 355 c 2,13,-1
 165 0 l 1,14,-1
 80 0 l 1,0,-1
EndSplineSet
EndChar

StartChar: s
Encoding: 115 115 84
Width: 399
Flags: W
LayerCount: 2
Fore
SplineSet
344 125 m 1,0,1
 344 60 344 60 305 30 c 128,-1,2
 266 0 266 0 194 0 c 2,3,-1
 65 0 l 1,4,-1
 65 75 l 1,5,-1
 204 75 l 2,6,7
 259 75 259 75 259 120 c 2,8,-1
 259 173 l 2,9,10
 259 218 259 218 216 218 c 2,11,-1
 199 218 l 2,12,13
 130 218 130 218 95 247.5 c 128,-1,14
 60 277 60 277 60 345 c 2,15,-1
 60 374 l 2,16,17
 60 444 60 444 99 472 c 128,-1,18
 138 500 138 500 210 500 c 2,19,-1
 324 500 l 1,20,-1
 324 425 l 1,21,-1
 200 425 l 2,22,23
 176 425 176 425 160.5 414 c 128,-1,24
 145 403 145 403 145 380 c 2,25,-1
 145 344 l 2,26,27
 145 320 145 320 159.5 309.5 c 128,-1,28
 174 299 174 299 193 299 c 2,29,-1
 207 299 l 2,30,31
 274 299 274 299 309 266.5 c 128,-1,32
 344 234 344 234 344 170 c 2,33,-1
 344 125 l 1,34,-1
 344 125 l 1,0,1
EndSplineSet
EndChar

StartChar: t
Encoding: 116 116 85
Width: 311
Flags: W
LayerCount: 2
Fore
SplineSet
190 0 m 2,0,1
 137 0 137 0 111 33.5 c 128,-1,2
 85 67 85 67 85 120 c 2,3,-1
 85 425 l 1,4,-1
 20 425 l 1,5,-1
 20 500 l 1,6,-1
 85 500 l 1,7,-1
 85 620 l 1,8,-1
 170 620 l 1,9,-1
 170 500 l 1,10,-1
 286 500 l 1,11,-1
 286 425 l 1,12,-1
 170 425 l 1,13,-1
 170 115 l 2,14,15
 170 92 170 92 181 83.5 c 128,-1,16
 192 75 192 75 215 75 c 2,17,-1
 286 75 l 1,18,-1
 286 0 l 1,19,-1
 190 0 l 2,0,1
EndSplineSet
EndChar

StartChar: u
Encoding: 117 117 86
Width: 489
Flags: W
LayerCount: 2
Fore
SplineSet
329 0 m 1,0,-1
 329 23 l 1,1,2
 296 0 296 0 249 0 c 2,3,-1
 235 0 l 2,4,5
 156 0 156 0 115.5 36.5 c 128,-1,6
 75 73 75 73 75 160 c 2,7,-1
 75 500 l 1,8,-1
 160 500 l 1,9,-1
 160 140 l 2,10,11
 160 110 160 110 177.5 92.5 c 128,-1,12
 195 75 195 75 225 75 c 2,13,-1
 259 75 l 2,14,15
 277 75 277 75 289 80 c 128,-1,16
 301 85 301 85 308.5 93 c 128,-1,17
 316 101 316 101 319.5 110 c 128,-1,18
 323 119 323 119 324 127 c 1,19,-1
 324 500 l 1,20,-1
 409 500 l 1,21,-1
 409 0 l 1,22,-1
 329 0 l 1,0,-1
EndSplineSet
EndChar

StartChar: v
Encoding: 118 118 87
Width: 462
Flags: W
LayerCount: 2
Fore
SplineSet
293 0 m 1,0,-1
 170 0 l 1,1,-1
 35 500 l 1,2,-1
 126 500 l 1,3,-1
 234 71 l 1,4,-1
 339 500 l 1,5,-1
 427 500 l 1,6,-1
 293 0 l 1,0,-1
EndSplineSet
EndChar

StartChar: w
Encoding: 119 119 88
Width: 670
Flags: W
LayerCount: 2
Fore
SplineSet
531 0 m 1,0,-1
 400 0 l 1,1,-1
 337 271 l 1,2,-1
 268 0 l 1,3,-1
 140 0 l 1,4,-1
 40 500 l 1,5,-1
 128 500 l 1,6,-1
 209 64 l 1,7,-1
 298 410 l 1,8,-1
 383 410 l 1,9,-1
 466 64 l 1,10,-1
 547 500 l 1,11,-1
 630 500 l 1,12,-1
 531 0 l 1,0,-1
EndSplineSet
EndChar

StartChar: x
Encoding: 120 120 89
Width: 464
Flags: W
LayerCount: 2
Fore
SplineSet
329 0 m 1,0,-1
 234 185 l 1,1,-1
 134 0 l 1,2,-1
 40 0 l 1,3,-1
 185 258 l 1,4,-1
 52 500 l 1,5,-1
 150 500 l 1,6,-1
 236 335 l 1,7,-1
 323 500 l 1,8,-1
 416 500 l 1,9,-1
 281 262 l 1,10,-1
 429 0 l 1,11,-1
 329 0 l 1,0,-1
EndSplineSet
EndChar

StartChar: y
Encoding: 121 121 90
Width: 463
Flags: W
LayerCount: 2
Fore
SplineSet
283 -44 m 2,0,1
 275 -73 275 -73 266 -97.5 c 128,-1,2
 257 -122 257 -122 243.5 -139 c 128,-1,3
 230 -156 230 -156 209.5 -165.5 c 128,-1,4
 189 -175 189 -175 159 -175 c 0,5,6
 143 -175 143 -175 127 -173 c 128,-1,7
 111 -171 111 -171 102 -169 c 1,8,-1
 102 -96 l 1,9,10
 113 -98 113 -98 126 -99 c 128,-1,11
 139 -100 139 -100 154 -100 c 0,12,13
 182 -100 182 -100 194 -55 c 1,14,-1
 210 0 l 1,15,-1
 190 0 l 1,16,-1
 35 500 l 1,17,-1
 127 500 l 1,18,-1
 243 87 l 1,19,-1
 341 500 l 1,20,-1
 428 500 l 1,21,-1
 283 -44 l 2,0,1
EndSplineSet
EndChar

StartChar: z
Encoding: 122 122 91
Width: 403
Flags: W
LayerCount: 2
Fore
SplineSet
137 74 m 1,0,-1
 343 74 l 1,1,-1
 343 0 l 1,2,-1
 45 0 l 1,3,-1
 45 80 l 1,4,-1
 262 426 l 1,5,-1
 65 426 l 1,6,-1
 65 500 l 1,7,-1
 353 500 l 1,8,-1
 353 411 l 1,9,-1
 137 74 l 1,0,-1
EndSplineSet
EndChar

StartChar: braceleft
Encoding: 123 123 92
Width: 325
Flags: W
LayerCount: 2
Fore
SplineSet
40 405 m 1,0,1
 78 405 78 405 94.5 417 c 128,-1,2
 111 429 111 429 111 469 c 2,3,-1
 111 698 l 2,4,5
 111 765 111 765 135.5 792.5 c 128,-1,6
 160 820 160 820 220 820 c 2,7,-1
 265 820 l 1,8,-1
 265 750 l 1,9,-1
 234 750 l 2,10,11
 211 750 211 750 200 743 c 128,-1,12
 189 736 189 736 189 713 c 2,13,-1
 189 469 l 2,14,15
 189 416 189 416 163.5 385 c 128,-1,16
 138 354 138 354 104 349 c 1,17,18
 138 345 138 345 163.5 314.5 c 128,-1,19
 189 284 189 284 189 231 c 2,20,-1
 189 -13 l 2,21,22
 189 -36 189 -36 200 -43 c 128,-1,23
 211 -50 211 -50 234 -50 c 2,24,-1
 265 -50 l 1,25,-1
 265 -120 l 1,26,-1
 220 -120 l 2,27,28
 160 -120 160 -120 135.5 -92.5 c 128,-1,29
 111 -65 111 -65 111 2 c 2,30,-1
 111 231 l 2,31,32
 111 251 111 251 107 263.5 c 128,-1,33
 103 276 103 276 94.5 283 c 128,-1,34
 86 290 86 290 72.5 292.5 c 128,-1,35
 59 295 59 295 40 295 c 1,36,-1
 40 405 l 1,0,1
EndSplineSet
EndChar

StartChar: bar
Encoding: 124 124 93
Width: 290
Flags: W
LayerCount: 2
Fore
SplineSet
105 -110 m 1,0,-1
 105 810 l 1,1,-1
 185 810 l 1,2,-1
 185 -110 l 1,3,-1
 105 -110 l 1,0,-1
EndSplineSet
EndChar

StartChar: braceright
Encoding: 125 125 94
Width: 325
Flags: W
LayerCount: 2
Fore
SplineSet
286 295 m 1,0,1
 267 295 267 295 253.5 292.5 c 128,-1,2
 240 290 240 290 231.5 283 c 128,-1,3
 223 276 223 276 219 263.5 c 128,-1,4
 215 251 215 251 215 231 c 2,5,-1
 215 2 l 2,6,7
 215 -65 215 -65 190.5 -92.5 c 128,-1,8
 166 -120 166 -120 106 -120 c 2,9,-1
 61 -120 l 1,10,-1
 61 -50 l 1,11,-1
 92 -50 l 2,12,13
 115 -50 115 -50 126 -43 c 128,-1,14
 137 -36 137 -36 137 -13 c 2,15,-1
 137 231 l 2,16,17
 137 284 137 284 162.5 314.5 c 128,-1,18
 188 345 188 345 222 349 c 1,19,20
 188 354 188 354 162.5 385 c 128,-1,21
 137 416 137 416 137 469 c 2,22,-1
 137 713 l 2,23,24
 137 736 137 736 126 743 c 128,-1,25
 115 750 115 750 92 750 c 2,26,-1
 61 750 l 1,27,-1
 61 820 l 1,28,-1
 106 820 l 2,29,30
 166 820 166 820 190.5 792.5 c 128,-1,31
 215 765 215 765 215 698 c 2,32,-1
 215 469 l 2,33,34
 215 429 215 429 231.5 417 c 128,-1,35
 248 405 248 405 286 405 c 1,36,-1
 286 295 l 1,0,1
EndSplineSet
EndChar

StartChar: asciitilde
Encoding: 126 126 95
Width: 510
Flags: W
LayerCount: 2
Fore
SplineSet
85 346 m 1,0,1
 107 356 107 356 126 364 c 0,2,3
 143 371 143 371 159 376 c 128,-1,4
 175 381 175 381 182 381 c 2,5,-1
 197 381 l 2,6,7
 206 381 206 381 224.5 375 c 128,-1,8
 243 369 243 369 263 361.5 c 128,-1,9
 283 354 283 354 301 347.5 c 128,-1,10
 319 341 319 341 328 341 c 2,11,-1
 338 341 l 2,12,13
 343 341 343 341 357 346.5 c 128,-1,14
 371 352 371 352 386 359 c 0,15,16
 404 367 404 367 425 377 c 1,17,-1
 425 297 l 1,18,19
 405 288 405 288 387 280 c 0,20,21
 372 273 372 273 358 267.5 c 128,-1,22
 344 262 344 262 337 262 c 2,23,-1
 322 262 l 2,24,25
 317 262 317 262 299 268.5 c 128,-1,26
 281 275 281 275 259.5 282.5 c 128,-1,27
 238 290 238 290 219 296 c 128,-1,28
 200 302 200 302 192 302 c 2,29,-1
 182 302 l 2,30,31
 177 302 177 302 161 296.5 c 128,-1,32
 145 291 145 291 128 284 c 0,33,34
 108 276 108 276 85 266 c 1,35,-1
 85 346 l 1,0,1
EndSplineSet
EndChar

StartChar: exclamdown
Encoding: 161 161 96
Width: 250
Flags: W
LayerCount: 2
Fore
SplineSet
175 500 m 1,0,-1
 175 400 l 1,1,-1
 75 400 l 1,2,-1
 75 500 l 1,3,-1
 175 500 l 1,0,-1
168 292 m 1,4,-1
 168 -200 l 1,5,-1
 83 -200 l 1,6,-1
 83 292 l 1,7,-1
 168 292 l 1,4,-1
EndSplineSet
EndChar

StartChar: cent
Encoding: 162 162 97
Width: 470
Flags: W
LayerCount: 2
Fore
SplineSet
237 -110 m 1,0,-1
 237 0 l 1,1,2
 166 6 166 6 132.5 43.5 c 128,-1,3
 99 81 99 81 99 159 c 2,4,-1
 99 339 l 2,5,6
 99 417 99 417 132.5 454 c 128,-1,7
 166 491 166 491 237 497 c 1,8,-1
 237 600 l 1,9,-1
 317 600 l 1,10,-1
 317 499 l 1,11,-1
 378 499 l 1,12,-1
 378 424 l 1,13,-1
 259 424 l 2,14,15
 221 424 221 424 202.5 406.5 c 128,-1,16
 184 389 184 389 184 359 c 2,17,-1
 184 139 l 2,18,19
 184 109 184 109 202.5 91.5 c 128,-1,20
 221 74 221 74 259 74 c 2,21,-1
 378 74 l 1,22,-1
 378 -1 l 1,23,-1
 317 -1 l 1,24,-1
 317 -110 l 1,25,-1
 237 -110 l 1,0,-1
EndSplineSet
EndChar

StartChar: sterling
Encoding: 163 163 98
Width: 470
Flags: W
LayerCount: 2
Fore
SplineSet
66 413 m 1,0,-1
 136 413 l 1,1,-1
 136 530 l 2,2,3
 136 616 136 616 182.5 658 c 128,-1,4
 229 700 229 700 316 700 c 2,5,-1
 413 700 l 1,6,-1
 413 624 l 1,7,-1
 306 624 l 2,8,9
 268 624 268 624 245.5 601.5 c 128,-1,10
 223 579 223 579 223 549 c 2,11,-1
 223 413 l 1,12,-1
 351 413 l 1,13,-1
 351 340 l 1,14,-1
 223 340 l 1,15,-1
 223 73 l 1,16,-1
 421 73 l 1,17,-1
 421 0 l 1,18,-1
 66 0 l 1,19,-1
 66 73 l 1,20,-1
 136 73 l 1,21,-1
 136 340 l 1,22,-1
 66 340 l 1,23,-1
 66 413 l 1,0,-1
EndSplineSet
EndChar

StartChar: fraction
Encoding: 8260 8260 99
Width: 230
Flags: W
LayerCount: 2
Fore
SplineSet
-5 -100 m 1,0,-1
 -85 -100 l 1,1,-1
 235 810 l 1,2,-1
 315 810 l 1,3,-1
 -5 -100 l 1,0,-1
EndSplineSet
EndChar

StartChar: yen
Encoding: 165 165 100
Width: 470
Flags: W
LayerCount: 2
Fore
SplineSet
279 115 m 1,0,-1
 279 0 l 1,1,-1
 189 0 l 1,2,-1
 189 115 l 1,3,-1
 59 115 l 1,4,-1
 59 190 l 1,5,-1
 189 190 l 1,6,-1
 189 265 l 1,7,-1
 59 265 l 1,8,-1
 59 340 l 1,9,-1
 186 340 l 1,10,-1
 20 700 l 1,11,-1
 116 700 l 1,12,-1
 238 427 l 1,13,-1
 359 700 l 1,14,-1
 450 700 l 1,15,-1
 281 340 l 1,16,-1
 409 340 l 1,17,-1
 409 265 l 1,18,-1
 279 265 l 1,19,-1
 279 190 l 1,20,-1
 409 190 l 1,21,-1
 409 115 l 1,22,-1
 279 115 l 1,0,-1
EndSplineSet
EndChar

StartChar: florin
Encoding: 402 402 101
Width: 310
Flags: W
LayerCount: 2
Fore
SplineSet
215 625 m 2,0,1
 198 625 198 625 189 616.5 c 128,-1,2
 180 608 180 608 180 595 c 2,3,-1
 180 500 l 1,4,-1
 301 500 l 1,5,-1
 301 425 l 1,6,-1
 180 425 l 1,7,-1
 180 -60 l 2,8,9
 180 -113 180 -113 150.5 -141.5 c 128,-1,10
 121 -170 121 -170 76 -170 c 2,11,-1
 -31 -170 l 1,12,-1
 -31 -95 l 1,13,-1
 60 -95 l 2,14,15
 77 -95 77 -95 86 -86.5 c 128,-1,16
 95 -78 95 -78 95 -65 c 2,17,-1
 95 425 l 1,18,-1
 30 425 l 1,19,-1
 30 500 l 1,20,-1
 95 500 l 1,21,-1
 95 590 l 2,22,23
 95 643 95 643 124.5 671.5 c 128,-1,24
 154 700 154 700 199 700 c 2,25,-1
 311 700 l 1,26,-1
 311 625 l 1,27,-1
 215 625 l 2,0,1
EndSplineSet
EndChar

StartChar: section
Encoding: 167 167 102
Width: 470
Flags: W
LayerCount: 2
Fore
SplineSet
90 355 m 1,0,1
 90 392 90 392 102.5 420 c 128,-1,2
 115 448 115 448 134 462 c 1,3,4
 120 476 120 476 112 498.5 c 128,-1,5
 104 521 104 521 104 550 c 2,6,-1
 104 560 l 2,7,8
 104 635 104 635 143 667.5 c 128,-1,9
 182 700 182 700 254 700 c 2,10,-1
 358 700 l 1,11,-1
 358 625 l 1,12,-1
 244 625 l 2,13,14
 221 625 221 625 205 614 c 128,-1,15
 189 603 189 603 189 580 c 2,16,-1
 189 540 l 2,17,18
 189 516 189 516 202.5 505.5 c 128,-1,19
 216 495 216 495 237 495 c 2,20,-1
 246 495 l 2,21,22
 313 495 313 495 348 460 c 128,-1,23
 383 425 383 425 383 350 c 2,24,-1
 383 345 l 2,25,26
 383 307 383 307 370.5 281 c 128,-1,27
 358 255 358 255 339 238 c 1,28,29
 353 227 353 227 361 203 c 128,-1,30
 369 179 369 179 369 150 c 2,31,-1
 369 140 l 2,32,33
 369 65 369 65 330 32.5 c 128,-1,34
 291 0 291 0 219 0 c 2,35,-1
 115 0 l 1,36,-1
 115 75 l 1,37,-1
 229 75 l 2,38,39
 252 75 252 75 268 86 c 128,-1,40
 284 97 284 97 284 120 c 2,41,-1
 284 160 l 2,42,43
 284 205 284 205 240 205 c 2,44,-1
 227 205 l 2,45,46
 160 205 160 205 125 240 c 128,-1,47
 90 275 90 275 90 350 c 2,48,-1
 90 355 l 1,49,-1
 90 355 l 1,0,1
210 420 m 2,50,51
 175 420 175 420 175 375 c 2,52,-1
 175 330 l 2,53,54
 175 309 175 309 187 294.5 c 128,-1,55
 199 280 199 280 228 280 c 2,56,-1
 263 280 l 2,57,58
 279 280 279 280 288.5 291 c 128,-1,59
 298 302 298 302 298 325 c 2,60,-1
 298 370 l 2,61,62
 298 390 298 390 288.5 405 c 128,-1,63
 279 420 279 420 246 420 c 2,64,-1
 210 420 l 2,50,51
EndSplineSet
EndChar

StartChar: currency
Encoding: 164 164 103
Width: 570
Flags: W
LayerCount: 2
Fore
SplineSet
108 174 m 1,0,1
 96 206 96 206 96 252 c 2,2,-1
 96 350 l 2,3,4
 96 398 96 398 108 429 c 1,5,-1
 37 501 l 1,6,-1
 94 558 l 1,7,-1
 162 490 l 1,8,9
 199 510 199 510 266 510 c 2,10,-1
 303 510 l 2,11,12
 368 510 368 510 407 489 c 1,13,-1
 476 558 l 1,14,-1
 533 501 l 1,15,-1
 460 428 l 1,16,17
 473 398 473 398 473 350 c 2,18,-1
 473 252 l 2,19,20
 473 207 473 207 461 175 c 1,21,-1
 533 103 l 1,22,-1
 476 46 l 1,23,-1
 409 113 l 1,24,25
 369 92 369 92 303 92 c 2,26,-1
 266 92 l 2,27,28
 233 92 233 92 207 97 c 128,-1,29
 181 102 181 102 161 113 c 1,30,-1
 94 46 l 1,31,-1
 37 103 l 1,32,-1
 108 174 l 1,0,1
388 370 m 2,33,34
 388 400 388 400 369.5 417.5 c 128,-1,35
 351 435 351 435 313 435 c 2,36,-1
 256 435 l 2,37,38
 218 435 218 435 199.5 417.5 c 128,-1,39
 181 400 181 400 181 370 c 2,40,-1
 181 232 l 2,41,42
 181 202 181 202 199.5 184.5 c 128,-1,43
 218 167 218 167 256 167 c 2,44,-1
 313 167 l 2,45,46
 351 167 351 167 369.5 184.5 c 128,-1,47
 388 202 388 202 388 232 c 2,48,-1
 388 370 l 2,33,34
EndSplineSet
EndChar

StartChar: quotesingle
Encoding: 39 39 104
Width: 205
Flags: W
LayerCount: 2
Fore
SplineSet
130 453 m 1,0,-1
 75 453 l 1,1,-1
 55 610 l 1,2,-1
 55 700 l 1,3,-1
 150 700 l 1,4,-1
 150 610 l 1,5,-1
 130 453 l 1,0,-1
EndSplineSet
EndChar

StartChar: quotedblleft
Encoding: 8220 8220 105
Width: 380
Flags: W
LayerCount: 2
Fore
SplineSet
110 699 m 1,0,-1
 180 699 l 1,1,-1
 150 542 l 1,2,-1
 150 452 l 1,3,-1
 55 452 l 1,4,-1
 55 542 l 1,5,-1
 110 699 l 1,0,-1
265 699 m 1,6,-1
 335 699 l 1,7,-1
 305 542 l 1,8,-1
 305 452 l 1,9,-1
 210 452 l 1,10,-1
 210 542 l 1,11,-1
 265 699 l 1,6,-1
EndSplineSet
EndChar

StartChar: guillemotleft
Encoding: 171 171 106
Width: 465
Flags: W
LayerCount: 2
Fore
SplineSet
164 92 m 1,0,-1
 75 299 l 1,1,-1
 164 506 l 1,2,-1
 230 506 l 1,3,-1
 167 299 l 1,4,-1
 230 92 l 1,5,-1
 164 92 l 1,0,-1
324 92 m 1,6,-1
 235 299 l 1,7,-1
 324 506 l 1,8,-1
 390 506 l 1,9,-1
 327 299 l 1,10,-1
 390 92 l 1,11,-1
 324 92 l 1,6,-1
EndSplineSet
EndChar

StartChar: guilsinglleft
Encoding: 8249 8249 107
Width: 305
Flags: W
LayerCount: 2
Fore
SplineSet
164 92 m 1,0,-1
 75 299 l 1,1,-1
 164 506 l 1,2,-1
 230 506 l 1,3,-1
 167 299 l 1,4,-1
 230 92 l 1,5,-1
 164 92 l 1,0,-1
EndSplineSet
EndChar

StartChar: guilsinglright
Encoding: 8250 8250 108
Width: 305
Flags: W
LayerCount: 2
Fore
SplineSet
75 92 m 1,0,-1
 138 299 l 1,1,-1
 75 506 l 1,2,-1
 141 506 l 1,3,-1
 230 299 l 1,4,-1
 141 92 l 1,5,-1
 75 92 l 1,0,-1
EndSplineSet
EndChar

StartChar: fi
Encoding: 64257 64257 109
Width: 515
Flags: W
LayerCount: 2
Fore
SplineSet
215 625 m 2,0,1
 198 625 198 625 189 616.5 c 128,-1,2
 180 608 180 608 180 595 c 2,3,-1
 180 500 l 1,4,-1
 435 500 l 1,5,-1
 435 0 l 1,6,-1
 350 0 l 1,7,-1
 350 425 l 1,8,-1
 180 425 l 1,9,-1
 180 0 l 1,10,-1
 95 0 l 1,11,-1
 95 425 l 1,12,-1
 30 425 l 1,13,-1
 30 500 l 1,14,-1
 95 500 l 1,15,-1
 95 590 l 2,16,17
 95 643 95 643 124.5 671.5 c 128,-1,18
 154 700 154 700 199 700 c 2,19,-1
 414 700 l 1,20,-1
 414 625 l 1,21,-1
 215 625 l 2,0,1
EndSplineSet
Ligature2: "'liga' Standard Ligatures in Latin lookup 3 subtable" f i
EndChar

StartChar: fl
Encoding: 64258 64258 110
Width: 530
Flags: W
LayerCount: 2
Fore
SplineSet
435 0 m 2,0,1
 420 0 420 0 405 5 c 128,-1,2
 390 10 390 10 378 21.5 c 128,-1,3
 366 33 366 33 358 52.5 c 128,-1,4
 350 72 350 72 350 100 c 2,5,-1
 350 625 l 1,6,-1
 215 625 l 2,7,8
 198 625 198 625 189 616.5 c 128,-1,9
 180 608 180 608 180 595 c 2,10,-1
 180 500 l 1,11,-1
 272 500 l 1,12,-1
 272 425 l 1,13,-1
 180 425 l 1,14,-1
 180 0 l 1,15,-1
 95 0 l 1,16,-1
 95 425 l 1,17,-1
 30 425 l 1,18,-1
 30 500 l 1,19,-1
 95 500 l 1,20,-1
 95 590 l 2,21,22
 95 643 95 643 124.5 671.5 c 128,-1,23
 154 700 154 700 199 700 c 2,24,-1
 435 700 l 1,25,-1
 435 105 l 2,26,27
 435 89 435 89 442.5 82 c 128,-1,28
 450 75 450 75 470 75 c 2,29,-1
 490 75 l 1,30,-1
 490 0 l 1,31,-1
 435 0 l 2,0,1
EndSplineSet
Ligature2: "'liga' Standard Ligatures in Latin lookup 3 subtable" f l
EndChar

StartChar: endash
Encoding: 8211 8211 111
Width: 550
Flags: W
LayerCount: 2
Fore
SplineSet
85 275 m 1,0,-1
 85 350 l 1,1,-1
 465 350 l 1,2,-1
 465 275 l 1,3,-1
 85 275 l 1,0,-1
EndSplineSet
EndChar

StartChar: dagger
Encoding: 8224 8224 112
Width: 470
Flags: W
LayerCount: 2
Fore
SplineSet
196 0 m 1,0,-1
 196 425 l 1,1,-1
 55 425 l 1,2,-1
 55 500 l 1,3,-1
 196 500 l 1,4,-1
 196 700 l 1,5,-1
 276 700 l 1,6,-1
 276 500 l 1,7,-1
 416 500 l 1,8,-1
 416 425 l 1,9,-1
 276 425 l 1,10,-1
 276 0 l 1,11,-1
 196 0 l 1,0,-1
EndSplineSet
EndChar

StartChar: daggerdbl
Encoding: 8225 8225 113
Width: 470
Flags: W
LayerCount: 2
Fore
SplineSet
196 0 m 1,0,-1
 196 210 l 1,1,-1
 55 210 l 1,2,-1
 55 285 l 1,3,-1
 196 285 l 1,4,-1
 196 425 l 1,5,-1
 55 425 l 1,6,-1
 55 500 l 1,7,-1
 196 500 l 1,8,-1
 196 700 l 1,9,-1
 276 700 l 1,10,-1
 276 500 l 1,11,-1
 416 500 l 1,12,-1
 416 425 l 1,13,-1
 276 425 l 1,14,-1
 276 285 l 1,15,-1
 416 285 l 1,16,-1
 416 210 l 1,17,-1
 276 210 l 1,18,-1
 276 0 l 1,19,-1
 196 0 l 1,0,-1
EndSplineSet
EndChar

StartChar: periodcentered
Encoding: 183 183 114
Width: 230
Flags: W
LayerCount: 2
Fore
SplineSet
65 260 m 1,0,-1
 65 360 l 1,1,-1
 165 360 l 1,2,-1
 165 260 l 1,3,-1
 65 260 l 1,0,-1
EndSplineSet
EndChar

StartChar: paragraph
Encoding: 182 182 115
Width: 510
Flags: W
LayerCount: 2
Fore
SplineSet
224 0 m 1,0,-1
 224 374 l 1,1,-1
 218 374 l 2,2,3
 132 374 132 374 91.5 407.5 c 128,-1,4
 51 441 51 441 51 527 c 2,5,-1
 51 540 l 2,6,7
 51 626 51 626 91 663 c 128,-1,8
 131 700 131 700 218 700 c 2,9,-1
 307 700 l 1,10,-1
 307 630 l 1,11,-1
 207 630 l 2,12,13
 169 630 169 630 150.5 610 c 128,-1,14
 132 590 132 590 132 560 c 2,15,-1
 132 507 l 2,16,17
 132 477 132 477 150.5 459.5 c 128,-1,18
 169 442 169 442 207 442 c 2,19,-1
 307 442 l 1,20,-1
 307 0 l 1,21,-1
 224 0 l 1,0,-1
362 0 m 1,22,-1
 362 700 l 1,23,-1
 442 700 l 1,24,-1
 442 0 l 1,25,-1
 362 0 l 1,22,-1
EndSplineSet
EndChar

StartChar: bullet
Encoding: 8226 8226 116
Width: 290
Flags: W
LayerCount: 2
Fore
SplineSet
70 235 m 1,0,-1
 70 390 l 1,1,-1
 220 390 l 1,2,-1
 220 235 l 1,3,-1
 70 235 l 1,0,-1
EndSplineSet
EndChar

StartChar: quotesinglbase
Encoding: 8218 8218 117
Width: 220
Flags: W
LayerCount: 2
Fore
SplineSet
120 -157 m 1,0,-1
 50 -157 l 1,1,-1
 80 0 l 1,2,-1
 80 90 l 1,3,-1
 175 90 l 1,4,-1
 175 0 l 1,5,-1
 120 -157 l 1,0,-1
EndSplineSet
EndChar

StartChar: quotedblbase
Encoding: 8222 8222 118
Width: 375
Flags: W
LayerCount: 2
Fore
SplineSet
275 -157 m 1,0,-1
 205 -157 l 1,1,-1
 235 0 l 1,2,-1
 235 90 l 1,3,-1
 330 90 l 1,4,-1
 330 0 l 1,5,-1
 275 -157 l 1,0,-1
120 -157 m 1,6,-1
 50 -157 l 1,7,-1
 80 0 l 1,8,-1
 80 90 l 1,9,-1
 175 90 l 1,10,-1
 175 0 l 1,11,-1
 120 -157 l 1,6,-1
EndSplineSet
EndChar

StartChar: quotedblright
Encoding: 8221 8221 119
Width: 380
Flags: W
LayerCount: 2
Fore
SplineSet
270 453 m 1,0,-1
 200 453 l 1,1,-1
 230 610 l 1,2,-1
 230 700 l 1,3,-1
 325 700 l 1,4,-1
 325 610 l 1,5,-1
 270 453 l 1,0,-1
115 453 m 1,6,-1
 45 453 l 1,7,-1
 75 610 l 1,8,-1
 75 700 l 1,9,-1
 170 700 l 1,10,-1
 170 610 l 1,11,-1
 115 453 l 1,6,-1
EndSplineSet
EndChar

StartChar: guillemotright
Encoding: 187 187 120
Width: 465
Flags: W
LayerCount: 2
Fore
SplineSet
235 92 m 1,0,-1
 298 299 l 1,1,-1
 235 506 l 1,2,-1
 301 506 l 1,3,-1
 390 299 l 1,4,-1
 301 92 l 1,5,-1
 235 92 l 1,0,-1
75 92 m 1,6,-1
 138 299 l 1,7,-1
 75 506 l 1,8,-1
 141 506 l 1,9,-1
 230 299 l 1,10,-1
 141 92 l 1,11,-1
 75 92 l 1,6,-1
EndSplineSet
EndChar

StartChar: ellipsis
Encoding: 8230 8230 121
Width: 670
Flags: W
LayerCount: 2
Fore
SplineSet
65 0 m 1,0,-1
 65 100 l 1,1,-1
 165 100 l 1,2,-1
 165 0 l 1,3,-1
 65 0 l 1,0,-1
285 0 m 1,4,-1
 285 100 l 1,5,-1
 385 100 l 1,6,-1
 385 0 l 1,7,-1
 285 0 l 1,4,-1
505 0 m 1,8,-1
 505 100 l 1,9,-1
 605 100 l 1,10,-1
 605 0 l 1,11,-1
 505 0 l 1,8,-1
EndSplineSet
EndChar

StartChar: perthousand
Encoding: 8240 8240 122
Width: 1178
Flags: W
LayerCount: 2
Fore
SplineSet
351 0 m 1,0,-1
 267 0 l 1,1,-1
 512 700 l 1,2,-1
 590 700 l 1,3,-1
 351 0 l 1,0,-1
351 412 m 1,4,5
 351 347 351 347 318.5 315.5 c 128,-1,6
 286 284 286 284 229 284 c 2,7,-1
 211 284 l 2,8,9
 154 284 154 284 121.5 315.5 c 128,-1,10
 89 347 89 347 89 412 c 2,11,-1
 89 572 l 2,12,13
 89 637 89 637 121.5 668.5 c 128,-1,14
 154 700 154 700 211 700 c 2,15,-1
 229 700 l 2,16,17
 286 700 286 700 318.5 668.5 c 128,-1,18
 351 637 351 637 351 572 c 2,19,-1
 351 412 l 1,20,-1
 351 412 l 1,4,5
281 583 m 2,21,22
 281 606 281 606 269 623 c 128,-1,23
 257 640 257 640 229 640 c 2,24,-1
 211 640 l 2,25,26
 183 640 183 640 171 623 c 128,-1,27
 159 606 159 606 159 583 c 2,28,-1
 159 401 l 2,29,30
 159 378 159 378 171 361 c 128,-1,31
 183 344 183 344 211 344 c 2,32,-1
 229 344 l 2,33,34
 257 344 257 344 269 361 c 128,-1,35
 281 378 281 378 281 401 c 2,36,-1
 281 583 l 2,21,22
765 128 m 1,37,38
 765 63 765 63 732.5 31.5 c 128,-1,39
 700 0 700 0 643 0 c 2,40,-1
 625 0 l 2,41,42
 568 0 568 0 535.5 31.5 c 128,-1,43
 503 63 503 63 503 128 c 2,44,-1
 503 288 l 2,45,46
 503 353 503 353 535.5 384.5 c 128,-1,47
 568 416 568 416 625 416 c 2,48,-1
 643 416 l 2,49,50
 700 416 700 416 732.5 384.5 c 128,-1,51
 765 353 765 353 765 288 c 2,52,-1
 765 128 l 1,53,-1
 765 128 l 1,37,38
695 299 m 2,54,55
 695 322 695 322 683 339 c 128,-1,56
 671 356 671 356 643 356 c 2,57,-1
 625 356 l 2,58,59
 597 356 597 356 585 339 c 128,-1,60
 573 322 573 322 573 299 c 2,61,-1
 573 117 l 2,62,63
 573 94 573 94 585 77 c 128,-1,64
 597 60 597 60 625 60 c 2,65,-1
 643 60 l 2,66,67
 671 60 671 60 683 77 c 128,-1,68
 695 94 695 94 695 117 c 2,69,-1
 695 299 l 2,54,55
1089 128 m 1,70,71
 1089 63 1089 63 1056.5 31.5 c 128,-1,72
 1024 0 1024 0 967 0 c 2,73,-1
 949 0 l 2,74,75
 892 0 892 0 859.5 31.5 c 128,-1,76
 827 63 827 63 827 128 c 2,77,-1
 827 288 l 2,78,79
 827 353 827 353 859.5 384.5 c 128,-1,80
 892 416 892 416 949 416 c 2,81,-1
 967 416 l 2,82,83
 1024 416 1024 416 1056.5 384.5 c 128,-1,84
 1089 353 1089 353 1089 288 c 2,85,-1
 1089 128 l 1,86,-1
 1089 128 l 1,70,71
1019 299 m 2,87,88
 1019 322 1019 322 1007 339 c 128,-1,89
 995 356 995 356 967 356 c 2,90,-1
 949 356 l 2,91,92
 921 356 921 356 909 339 c 128,-1,93
 897 322 897 322 897 299 c 2,94,-1
 897 117 l 2,95,96
 897 94 897 94 909 77 c 128,-1,97
 921 60 921 60 949 60 c 2,98,-1
 967 60 l 2,99,100
 995 60 995 60 1007 77 c 128,-1,101
 1019 94 1019 94 1019 117 c 2,102,-1
 1019 299 l 2,87,88
EndSplineSet
Ligature2: "'frac' Diagonal Fractions in Latin lookup 1 subtable" zero fraction zero zero
Ligature2: "'frac' Diagonal Fractions in Latin lookup 1 subtable" zero slash zero zero
EndChar

StartChar: questiondown
Encoding: 191 191 123
Width: 360
Flags: W
LayerCount: 2
Fore
SplineSet
256 500 m 1,0,-1
 256 400 l 1,1,-1
 156 400 l 1,2,-1
 156 500 l 1,3,-1
 256 500 l 1,0,-1
45 -18 m 1,4,5
 45 11 45 11 46.5 29 c 128,-1,6
 48 47 48 47 55 62.5 c 128,-1,7
 62 78 62 78 76.5 96 c 128,-1,8
 91 114 91 114 116 142 c 2,9,-1
 164 196 l 1,10,-1
 164 292 l 1,11,-1
 249 292 l 1,12,-1
 249 171 l 1,13,-1
 196 110 l 2,14,15
 173 84 173 84 160 68 c 128,-1,16
 147 52 147 52 140 40.5 c 128,-1,17
 133 29 133 29 131.5 18.5 c 128,-1,18
 130 8 130 8 130 -9 c 2,19,-1
 130 -59 l 2,20,21
 130 -89 130 -89 147.5 -106.5 c 128,-1,22
 165 -124 165 -124 203 -124 c 2,23,-1
 313 -124 l 1,24,-1
 313 -200 l 1,25,-1
 213 -200 l 2,26,27
 132 -200 132 -200 88.5 -164.5 c 128,-1,28
 45 -129 45 -129 45 -50 c 2,29,-1
 45 -18 l 1,30,-1
 45 -18 l 1,4,5
EndSplineSet
EndChar

StartChar: grave
Encoding: 96 96 124
Width: 303
Flags: W
LayerCount: 2
Fore
SplineSet
179 580 m 1,0,-1
 52 715 l 1,1,-1
 161 715 l 1,2,-1
 265 580 l 1,3,-1
 179 580 l 1,0,-1
EndSplineSet
EndChar

StartChar: acute
Encoding: 180 180 125
Width: 303
Flags: W
LayerCount: 2
Fore
SplineSet
45 580 m 1,0,-1
 149 715 l 1,1,-1
 258 715 l 1,2,-1
 131 580 l 1,3,-1
 45 580 l 1,0,-1
EndSplineSet
EndChar

StartChar: circumflex
Encoding: 710 710 126
Width: 383
Flags: W
LayerCount: 2
Fore
SplineSet
251 580 m 1,0,-1
 191 655 l 1,1,-1
 131 580 l 1,2,-1
 35 580 l 1,3,-1
 147 715 l 1,4,-1
 235 715 l 1,5,-1
 348 580 l 1,6,-1
 251 580 l 1,0,-1
EndSplineSet
EndChar

StartChar: tilde
Encoding: 732 732 127
Width: 350
Flags: W
LayerCount: 2
Fore
SplineSet
35 667 m 1,0,1
 51 677 51 677 66 684 c 0,2,3
 79 690 79 690 92 695 c 128,-1,4
 105 700 105 700 112 700 c 2,5,-1
 127 700 l 2,6,7
 136 700 136 700 151 694 c 128,-1,8
 166 688 166 688 182.5 680.5 c 128,-1,9
 199 673 199 673 214 666.5 c 128,-1,10
 229 660 229 660 238 660 c 2,11,-1
 248 660 l 2,12,13
 253 660 253 660 264 665.5 c 128,-1,14
 275 671 275 671 286 678 c 0,15,16
 299 686 299 686 315 696 c 1,17,-1
 315 624 l 1,18,19
 300 615 300 615 287 608 c 0,20,21
 276 602 276 602 265 596.5 c 128,-1,22
 254 591 254 591 247 591 c 2,23,-1
 232 591 l 2,24,25
 227 591 227 591 212 597.5 c 128,-1,26
 197 604 197 604 179.5 611.5 c 128,-1,27
 162 619 162 619 146 625 c 128,-1,28
 130 631 130 631 122 631 c 2,29,-1
 112 631 l 2,30,31
 107 631 107 631 94.5 625.5 c 128,-1,32
 82 620 82 620 68 613 c 0,33,34
 52 605 52 605 35 595 c 1,35,-1
 35 667 l 1,0,1
EndSplineSet
EndChar

StartChar: macron
Encoding: 175 175 128
Width: 325
Flags: W
LayerCount: 2
Fore
SplineSet
35 605 m 1,0,-1
 35 675 l 1,1,-1
 290 675 l 1,2,-1
 290 605 l 1,3,-1
 35 605 l 1,0,-1
EndSplineSet
EndChar

StartChar: breve
Encoding: 728 728 129
Width: 354
Flags: W
LayerCount: 2
Fore
SplineSet
187 649 m 1,0,1
 220 649 220 649 228.5 668.5 c 128,-1,2
 237 688 237 688 237 715 c 1,3,-1
 319 715 l 1,4,5
 319 694 319 694 313 671.5 c 128,-1,6
 307 649 307 649 292 629.5 c 128,-1,7
 277 610 277 610 251.5 597.5 c 128,-1,8
 226 585 226 585 187 585 c 2,9,-1
 167 585 l 2,10,11
 128 585 128 585 102.5 597.5 c 128,-1,12
 77 610 77 610 62 629.5 c 128,-1,13
 47 649 47 649 41 671.5 c 128,-1,14
 35 694 35 694 35 715 c 1,15,-1
 117 715 l 1,16,17
 117 688 117 688 125.5 668.5 c 128,-1,18
 134 649 134 649 167 649 c 2,19,-1
 187 649 l 1,20,-1
 187 649 l 1,0,1
EndSplineSet
EndChar

StartChar: dotaccent
Encoding: 729 729 130
Width: 164
Flags: W
LayerCount: 2
Fore
SplineSet
35 615 m 1,0,-1
 35 700 l 1,1,-1
 120 700 l 1,2,-1
 120 615 l 1,3,-1
 35 615 l 1,0,-1
EndSplineSet
EndChar

StartChar: dieresis
Encoding: 168 168 131
Width: 355
Flags: W
LayerCount: 2
Fore
SplineSet
235 595 m 1,0,-1
 235 675 l 1,1,-1
 320 675 l 1,2,-1
 320 595 l 1,3,-1
 235 595 l 1,0,-1
35 595 m 1,4,-1
 35 675 l 1,5,-1
 120 675 l 1,6,-1
 120 595 l 1,7,-1
 35 595 l 1,4,-1
EndSplineSet
EndChar

StartChar: ring
Encoding: 730 730 132
Width: 260
Flags: W
LayerCount: 2
Fore
SplineSet
222 633 m 1,0,1
 222 590 222 590 196.5 569 c 128,-1,2
 171 548 171 548 133 548 c 2,3,-1
 127 548 l 2,4,5
 89 548 89 548 63.5 569 c 128,-1,6
 38 590 38 590 38 633 c 2,7,-1
 38 662 l 2,8,9
 38 706 38 706 63.5 726.5 c 128,-1,10
 89 747 89 747 127 747 c 2,11,-1
 133 747 l 2,12,13
 171 747 171 747 196.5 726.5 c 128,-1,14
 222 706 222 706 222 662 c 2,15,-1
 222 633 l 1,16,-1
 222 633 l 1,0,1
165 663 m 2,17,18
 165 678 165 678 158.5 689.5 c 128,-1,19
 152 701 152 701 133 701 c 2,20,-1
 127 701 l 2,21,22
 108 701 108 701 100.5 689.5 c 128,-1,23
 93 678 93 678 93 663 c 2,24,-1
 93 632 l 2,25,26
 93 617 93 617 100.5 605.5 c 128,-1,27
 108 594 108 594 127 594 c 2,28,-1
 133 594 l 2,29,30
 152 594 152 594 158.5 605.5 c 128,-1,31
 165 617 165 617 165 632 c 2,32,-1
 165 663 l 2,17,18
EndSplineSet
EndChar

StartChar: cedilla
Encoding: 184 184 133
Width: 302
Flags: W
LayerCount: 2
Fore
SplineSet
64 -200 m 1,0,-1
 64 -136 l 1,1,-1
 131 -136 l 2,2,3
 164 -136 164 -136 164 -105 c 0,4,5
 164 -88 164 -88 155 -82 c 128,-1,6
 146 -76 146 -76 129 -76 c 2,7,-1
 80 -76 l 1,8,-1
 80 50 l 1,9,-1
 150 50 l 1,10,-1
 150 -21 l 1,11,12
 194 -21 194 -21 215.5 -37 c 128,-1,13
 237 -53 237 -53 237 -105 c 0,14,15
 237 -138 237 -138 228 -157 c 128,-1,16
 219 -176 219 -176 206 -185.5 c 128,-1,17
 193 -195 193 -195 177.5 -197.5 c 128,-1,18
 162 -200 162 -200 149 -200 c 2,19,-1
 64 -200 l 1,0,-1
EndSplineSet
EndChar

StartChar: hungarumlaut
Encoding: 733 733 134
Width: 463
Flags: W
LayerCount: 2
Fore
SplineSet
131 598 m 1,0,-1
 40 598 l 1,1,-1
 143 745 l 1,2,-1
 258 745 l 1,3,-1
 131 598 l 1,0,-1
301 598 m 1,4,-1
 210 598 l 1,5,-1
 313 745 l 1,6,-1
 428 745 l 1,7,-1
 301 598 l 1,4,-1
EndSplineSet
EndChar

StartChar: ogonek
Encoding: 731 731 135
Width: 318
Flags: W
LayerCount: 2
Fore
SplineSet
163 -180 m 2,0,1
 150 -180 150 -180 134.5 -177.5 c 128,-1,2
 119 -175 119 -175 106 -165.5 c 128,-1,3
 93 -156 93 -156 84 -137 c 128,-1,4
 75 -118 75 -118 75 -85 c 2,5,-1
 75 60 l 1,6,-1
 149 60 l 1,7,-1
 149 -85 l 2,8,9
 149 -102 149 -102 157 -107.5 c 128,-1,10
 165 -113 165 -113 181 -113 c 2,11,-1
 252 -113 l 1,12,-1
 252 -180 l 1,13,-1
 163 -180 l 2,0,1
EndSplineSet
EndChar

StartChar: caron
Encoding: 711 711 136
Width: 383
Flags: W
LayerCount: 2
Fore
SplineSet
132 714 m 1,0,-1
 192 639 l 1,1,-1
 252 714 l 1,2,-1
 348 714 l 1,3,-1
 236 579 l 1,4,-1
 148 579 l 1,5,-1
 35 714 l 1,6,-1
 132 714 l 1,0,-1
EndSplineSet
EndChar

StartChar: emdash
Encoding: 8212 8212 137
Width: 605
Flags: W
LayerCount: 2
Fore
SplineSet
65 275 m 1,0,-1
 65 350 l 1,1,-1
 540 350 l 1,2,-1
 540 275 l 1,3,-1
 65 275 l 1,0,-1
EndSplineSet
EndChar

StartChar: AE
Encoding: 198 198 138
Width: 748
Flags: W
LayerCount: 2
Fore
SplineSet
390 0 m 1,0,-1
 370 177 l 1,1,-1
 171 177 l 1,2,-1
 114 0 l 1,3,-1
 25 0 l 1,4,-1
 264 700 l 1,5,-1
 668 700 l 1,6,-1
 668 627 l 1,7,-1
 401 627 l 1,8,-1
 428 398 l 1,9,-1
 663 398 l 1,10,-1
 663 325 l 1,11,-1
 437 325 l 1,12,-1
 467 73 l 1,13,-1
 688 73 l 1,14,-1
 688 0 l 1,15,-1
 390 0 l 1,0,-1
195 252 m 1,16,-1
 361 252 l 1,17,-1
 320 627 l 1,18,-1
 195 252 l 1,16,-1
EndSplineSet
Position2: "'cpsp' Capital Spacing in Latin lookup 0 subtable" dx=5 dy=0 dh=10 dv=0
EndChar

StartChar: ordfeminine
Encoding: 170 170 139
Width: 395
Flags: W
LayerCount: 2
Fore
SplineSet
292 324 m 2,0,1
 283 324 283 324 271.5 329 c 128,-1,2
 260 334 260 334 252 344 c 1,3,4
 244 335 244 335 233.5 329.5 c 128,-1,5
 223 324 223 324 209 324 c 2,6,-1
 157 324 l 2,7,8
 100 324 100 324 74 346.5 c 128,-1,9
 48 369 48 369 48 426 c 2,10,-1
 48 441 l 2,11,12
 48 498 48 498 74.5 527.5 c 128,-1,13
 101 557 101 557 158 557 c 2,14,-1
 232 557 l 1,15,-1
 232 595 l 2,16,17
 232 618 232 618 220 628.5 c 128,-1,18
 208 639 208 639 179 639 c 2,19,-1
 78 639 l 1,20,-1
 78 700 l 1,21,-1
 172 700 l 2,22,23
 237 700 237 700 268.5 672 c 128,-1,24
 300 644 300 644 300 580 c 2,25,-1
 300 399 l 2,26,27
 300 388 300 388 308 382.5 c 128,-1,28
 316 377 316 377 337 377 c 1,29,-1
 337 324 l 1,30,-1
 292 324 l 2,0,1
70 0 m 1,31,-1
 70 75 l 1,32,-1
 321 75 l 1,33,-1
 321 0 l 1,34,-1
 70 0 l 1,31,-1
197 383 m 1,35,36
 210 383 210 383 217 386.5 c 128,-1,37
 224 390 224 390 227.5 395.5 c 128,-1,38
 231 401 231 401 231.5 407.5 c 128,-1,39
 232 414 232 414 232 420 c 2,40,-1
 232 499 l 1,41,-1
 161 499 l 2,42,43
 141 499 141 499 128.5 486.5 c 128,-1,44
 116 474 116 474 116 454 c 2,45,-1
 116 422 l 2,46,47
 116 383 116 383 153 383 c 2,48,-1
 197 383 l 1,49,-1
 197 383 l 1,35,36
EndSplineSet
EndChar

StartChar: Lslash
Encoding: 321 321 140
Width: 410
Flags: W
LayerCount: 2
Fore
SplineSet
85 0 m 1,0,-1
 85 329 l 1,1,-1
 25 300 l 1,2,-1
 25 380 l 1,3,-1
 85 409 l 1,4,-1
 85 700 l 1,5,-1
 172 700 l 1,6,-1
 172 451 l 1,7,-1
 295 510 l 1,8,-1
 295 430 l 1,9,-1
 172 371 l 1,10,-1
 172 76 l 1,11,-1
 395 76 l 1,12,-1
 395 0 l 1,13,-1
 85 0 l 1,0,-1
EndSplineSet
Position2: "'cpsp' Capital Spacing in Latin lookup 0 subtable" dx=5 dy=0 dh=10 dv=0
EndChar

StartChar: Oslash
Encoding: 216 216 141
Width: 544
Flags: W
LayerCount: 2
Fore
SplineSet
469 170 m 1,0,1
 469 84 469 84 422.5 42 c 128,-1,2
 376 0 376 0 289 0 c 2,3,-1
 255 0 l 2,4,5
 244 0 244 0 234 0.5 c 128,-1,6
 224 1 224 1 215 2 c 1,7,-1
 189 -91 l 1,8,-1
 113 -91 l 1,9,-1
 145 25 l 1,10,11
 75 65 75 65 75 170 c 2,12,-1
 75 530 l 2,13,14
 75 616 75 616 121.5 658 c 128,-1,15
 168 700 168 700 255 700 c 2,16,-1
 289 700 l 2,17,18
 312 700 312 700 331 697 c 1,19,-1
 357 791 l 1,20,-1
 433 791 l 1,21,-1
 400 674 l 1,22,23
 469 633 469 633 469 530 c 2,24,-1
 469 170 l 1,25,-1
 469 170 l 1,0,1
162 151 m 1,26,27
 162 133 162 133 170 117 c 1,28,-1
 310 623 l 1,29,30
 307 624 307 624 299 624 c 2,31,-1
 245 624 l 2,32,33
 207 624 207 624 184.5 601.5 c 128,-1,34
 162 579 162 579 162 549 c 2,35,-1
 162 151 l 1,36,-1
 162 151 l 1,26,27
382 549 m 2,37,38
 382 563 382 563 375 580 c 1,39,-1
 235 76 l 1,40,-1
 299 76 l 2,41,42
 337 76 337 76 359.5 98.5 c 128,-1,43
 382 121 382 121 382 151 c 2,44,-1
 382 549 l 2,37,38
EndSplineSet
Position2: "'cpsp' Capital Spacing in Latin lookup 0 subtable" dx=5 dy=0 dh=10 dv=0
EndChar

StartChar: OE
Encoding: 338 338 142
Width: 741
Flags: W
LayerCount: 2
Fore
SplineSet
255 0 m 2,0,1
 168 0 168 0 121.5 42 c 128,-1,2
 75 84 75 84 75 170 c 2,3,-1
 75 530 l 2,4,5
 75 616 75 616 121.5 658 c 128,-1,6
 168 700 168 700 255 700 c 2,7,-1
 681 700 l 1,8,-1
 681 627 l 1,9,-1
 445 627 l 1,10,11
 456 607 456 607 462.5 583 c 128,-1,12
 469 559 469 559 469 530 c 2,13,-1
 469 398 l 1,14,-1
 666 398 l 1,15,-1
 666 325 l 1,16,-1
 469 325 l 1,17,-1
 469 170 l 2,18,19
 469 141 469 141 462.5 116.5 c 128,-1,20
 456 92 456 92 445 73 c 1,21,-1
 681 73 l 1,22,-1
 681 0 l 1,23,-1
 255 0 l 2,0,1
382 549 m 2,24,25
 382 579 382 579 359.5 601.5 c 128,-1,26
 337 624 337 624 299 624 c 2,27,-1
 245 624 l 2,28,29
 207 624 207 624 184.5 601.5 c 128,-1,30
 162 579 162 579 162 549 c 2,31,-1
 162 151 l 2,32,33
 162 121 162 121 184.5 98.5 c 128,-1,34
 207 76 207 76 245 76 c 2,35,-1
 299 76 l 2,36,37
 337 76 337 76 359.5 98.5 c 128,-1,38
 382 121 382 121 382 151 c 2,39,-1
 382 549 l 2,24,25
EndSplineSet
Position2: "'cpsp' Capital Spacing in Latin lookup 0 subtable" dx=5 dy=0 dh=10 dv=0
EndChar

StartChar: ordmasculine
Encoding: 186 186 143
Width: 416
Flags: W
LayerCount: 2
Fore
SplineSet
70 0 m 1,0,-1
 70 75 l 1,1,-1
 346 75 l 1,2,-1
 346 0 l 1,3,-1
 70 0 l 1,0,-1
338 446 m 1,4,5
 338 382 338 382 307 354 c 128,-1,6
 276 326 276 326 211 326 c 2,7,-1
 201 326 l 2,8,9
 135 326 135 326 104 354 c 128,-1,10
 73 382 73 382 73 446 c 2,11,-1
 73 582 l 2,12,13
 73 646 73 646 104 674 c 128,-1,14
 135 702 135 702 201 702 c 2,15,-1
 211 702 l 2,16,17
 276 702 276 702 307 674 c 128,-1,18
 338 646 338 646 338 582 c 2,19,-1
 338 446 l 1,20,-1
 338 446 l 1,4,5
270 593 m 2,21,22
 270 616 270 616 256.5 628.5 c 128,-1,23
 243 641 243 641 214 641 c 2,24,-1
 197 641 l 2,25,26
 169 641 169 641 155 628.5 c 128,-1,27
 141 616 141 616 141 593 c 2,28,-1
 141 435 l 2,29,30
 141 412 141 412 155 399.5 c 128,-1,31
 169 387 169 387 197 387 c 2,32,-1
 214 387 l 2,33,34
 243 387 243 387 256.5 399.5 c 128,-1,35
 270 412 270 412 270 435 c 2,36,-1
 270 593 l 2,21,22
EndSplineSet
EndChar

StartChar: ae
Encoding: 230 230 144
Width: 691
Flags: W
LayerCount: 2
Fore
SplineSet
465 0 m 2,0,1
 417 0 417 0 387 11 c 128,-1,2
 357 22 357 22 338 47 c 1,3,4
 328 29 328 29 306.5 14.5 c 128,-1,5
 285 0 285 0 259 0 c 2,6,-1
 190 0 l 2,7,8
 115 0 115 0 80 30 c 128,-1,9
 45 60 45 60 45 135 c 2,10,-1
 45 145 l 2,11,12
 45 220 45 220 80.5 260 c 128,-1,13
 116 300 116 300 191 300 c 2,14,-1
 295 300 l 1,15,-1
 295 360 l 2,16,17
 295 390 295 390 276.5 407.5 c 128,-1,18
 258 425 258 425 220 425 c 2,19,-1
 85 425 l 1,20,-1
 85 500 l 1,21,-1
 210 500 l 2,22,23
 258 500 258 500 286 490.5 c 128,-1,24
 314 481 314 481 335 463 c 1,25,26
 354 481 354 481 380.5 490.5 c 128,-1,27
 407 500 407 500 455 500 c 2,28,-1
 482 500 l 2,29,30
 554 500 554 500 590 460 c 128,-1,31
 626 420 626 420 626 345 c 2,32,-1
 626 225 l 1,33,-1
 380 225 l 1,34,-1
 380 134 l 1,35,36
 382 106 382 106 400.5 90.5 c 128,-1,37
 419 75 419 75 455 75 c 2,38,-1
 594 75 l 1,39,-1
 594 0 l 1,40,-1
 465 0 l 2,0,1
295 225 m 1,41,-1
 190 225 l 2,42,43
 164 225 164 225 147 208 c 128,-1,44
 130 191 130 191 130 165 c 2,45,-1
 130 125 l 2,46,47
 130 75 130 75 180 75 c 2,48,-1
 249 75 l 2,49,50
 266 75 266 75 275.5 80 c 128,-1,51
 285 85 285 85 289.5 92.5 c 128,-1,52
 294 100 294 100 294.5 109 c 128,-1,53
 295 118 295 118 295 125 c 2,54,-1
 295 225 l 1,41,-1
380 300 m 1,55,-1
 543 300 l 1,56,-1
 543 365 l 2,57,58
 543 391 543 391 526 408 c 128,-1,59
 509 425 509 425 483 425 c 2,60,-1
 445 425 l 2,61,62
 407 425 407 425 393.5 407.5 c 128,-1,63
 380 390 380 390 380 360 c 2,64,-1
 380 300 l 1,55,-1
EndSplineSet
EndChar

StartChar: dotlessi
Encoding: 305 305 145
Width: 245
Flags: W
LayerCount: 2
Fore
SplineSet
80 0 m 1,0,-1
 80 500 l 1,1,-1
 165 500 l 1,2,-1
 165 0 l 1,3,-1
 80 0 l 1,0,-1
EndSplineSet
EndChar

StartChar: lslash
Encoding: 322 322 146
Width: 271
Flags: W
LayerCount: 2
Fore
SplineSet
170 0 m 2,0,1
 155 0 155 0 140 5 c 128,-1,2
 125 10 125 10 113 21.5 c 128,-1,3
 101 33 101 33 93 52.5 c 128,-1,4
 85 72 85 72 85 100 c 2,5,-1
 85 332 l 1,6,-1
 35 300 l 1,7,-1
 35 378 l 1,8,-1
 85 411 l 1,9,-1
 85 700 l 1,10,-1
 170 700 l 1,11,-1
 170 467 l 1,12,-1
 231 508 l 1,13,-1
 231 428 l 1,14,-1
 170 388 l 1,15,-1
 170 105 l 2,16,17
 170 89 170 89 177.5 82 c 128,-1,18
 185 75 185 75 205 75 c 2,19,-1
 225 75 l 1,20,-1
 225 0 l 1,21,-1
 170 0 l 2,0,1
EndSplineSet
EndChar

StartChar: oslash
Encoding: 248 248 147
Width: 493
Flags: W
LayerCount: 2
Fore
SplineSet
423 160 m 1,0,1
 423 74 423 74 381.5 37 c 128,-1,2
 340 0 340 0 253 0 c 2,3,-1
 240 0 l 2,4,5
 232 0 232 0 225 0 c 128,-1,6
 218 0 218 0 211 1 c 1,7,-1
 184 -89 l 1,8,-1
 106 -89 l 1,9,-1
 139 19 l 1,10,11
 70 53 70 53 70 160 c 2,12,-1
 70 340 l 2,13,14
 70 426 70 426 111.5 463 c 128,-1,15
 153 500 153 500 240 500 c 2,16,-1
 253 500 l 2,17,18
 261 500 261 500 268.5 499.5 c 128,-1,19
 276 499 276 499 284 498 c 1,20,-1
 312 589 l 1,21,-1
 389 589 l 1,22,-1
 356 480 l 1,23,24
 390 462 390 462 406.5 428 c 128,-1,25
 423 394 423 394 423 340 c 2,26,-1
 423 160 l 1,27,-1
 423 160 l 1,0,1
155 140 m 1,28,29
 155 118 155 118 164 103 c 1,30,-1
 262 425 l 1,31,-1
 230 425 l 2,32,33
 192 425 192 425 173.5 407.5 c 128,-1,34
 155 390 155 390 155 360 c 2,35,-1
 155 140 l 1,36,-1
 155 140 l 1,28,29
338 360 m 2,37,38
 338 378 338 378 330 394 c 1,39,-1
 234 75 l 1,40,-1
 263 75 l 2,41,42
 301 75 301 75 319.5 92.5 c 128,-1,43
 338 110 338 110 338 140 c 2,44,-1
 338 360 l 2,37,38
EndSplineSet
EndChar

StartChar: oe
Encoding: 339 339 148
Width: 734
Flags: W
LayerCount: 2
Fore
SplineSet
508 0 m 2,0,1
 458 0 458 0 429.5 10 c 128,-1,2
 401 20 401 20 380 39 c 1,3,4
 359 20 359 20 330 10 c 128,-1,5
 301 0 301 0 253 0 c 2,6,-1
 240 0 l 2,7,8
 153 0 153 0 111.5 37 c 128,-1,9
 70 74 70 74 70 160 c 2,10,-1
 70 340 l 2,11,12
 70 426 70 426 111.5 463 c 128,-1,13
 153 500 153 500 240 500 c 2,14,-1
 253 500 l 2,15,16
 300 500 300 500 328.5 489.5 c 128,-1,17
 357 479 357 479 378 461 c 1,18,19
 397 479 397 479 424 489.5 c 128,-1,20
 451 500 451 500 498 500 c 2,21,-1
 525 500 l 2,22,23
 597 500 597 500 633 460 c 128,-1,24
 669 420 669 420 669 345 c 2,25,-1
 669 215 l 1,26,-1
 423 215 l 1,27,-1
 423 140 l 2,28,29
 423 110 423 110 441.5 92.5 c 128,-1,30
 460 75 460 75 498 75 c 2,31,-1
 637 75 l 1,32,-1
 637 0 l 1,33,-1
 508 0 l 2,0,1
338 360 m 2,34,35
 338 390 338 390 319.5 407.5 c 128,-1,36
 301 425 301 425 263 425 c 2,37,-1
 230 425 l 2,38,39
 192 425 192 425 173.5 407.5 c 128,-1,40
 155 390 155 390 155 360 c 2,41,-1
 155 140 l 2,42,43
 155 110 155 110 173.5 92.5 c 128,-1,44
 192 75 192 75 230 75 c 2,45,-1
 263 75 l 2,46,47
 301 75 301 75 319.5 92.5 c 128,-1,48
 338 110 338 110 338 140 c 2,49,-1
 338 360 l 2,34,35
423 290 m 1,50,-1
 586 290 l 1,51,-1
 586 365 l 2,52,53
 586 391 586 391 569 408 c 128,-1,54
 552 425 552 425 526 425 c 2,55,-1
 488 425 l 2,56,57
 450 425 450 425 436.5 407.5 c 128,-1,58
 423 390 423 390 423 360 c 2,59,-1
 423 290 l 1,50,-1
EndSplineSet
EndChar

StartChar: germandbls
Encoding: 223 223 149
Width: 519
Flags: W
LayerCount: 2
Fore
SplineSet
80 0 m 1,0,-1
 80 560 l 2,1,2
 80 598 80 598 92.5 624.5 c 128,-1,3
 105 651 105 651 126 667.5 c 128,-1,4
 147 684 147 684 174 692 c 128,-1,5
 201 700 201 700 230 700 c 2,6,-1
 256 700 l 2,7,8
 343 700 343 700 384.5 663.5 c 128,-1,9
 426 627 426 627 426 540 c 2,10,-1
 426 415 l 1,11,-1
 348 415 l 2,12,13
 317 415 317 415 305 404 c 128,-1,14
 293 393 293 393 293 370 c 2,15,-1
 293 355 l 2,16,17
 293 331 293 331 305 320.5 c 128,-1,18
 317 310 317 310 336 310 c 0,19,20
 392 310 392 310 423.5 278 c 128,-1,21
 455 246 455 246 455 190 c 2,22,-1
 455 125 l 2,23,24
 455 99 455 99 447 76 c 128,-1,25
 439 53 439 53 422 36 c 128,-1,26
 405 19 405 19 379 9.5 c 128,-1,27
 353 0 353 0 317 0 c 2,28,-1
 218 0 l 1,29,-1
 218 75 l 1,30,-1
 323 75 l 2,31,32
 370 75 370 75 370 120 c 2,33,-1
 370 190 l 2,34,35
 370 210 370 210 360 222.5 c 128,-1,36
 350 235 350 235 324 235 c 0,37,38
 273 235 273 235 240.5 267.5 c 128,-1,39
 208 300 208 300 208 356 c 2,40,-1
 208 366 l 2,41,42
 208 400 208 400 217.5 422.5 c 128,-1,43
 227 445 227 445 244.5 458.5 c 128,-1,44
 262 472 262 472 286.5 478.5 c 128,-1,45
 311 485 311 485 341 486 c 1,46,-1
 341 560 l 2,47,48
 341 590 341 590 322.5 607.5 c 128,-1,49
 304 625 304 625 266 625 c 2,50,-1
 225 625 l 2,51,52
 206 625 206 625 194.5 619 c 128,-1,53
 183 613 183 613 176.5 605 c 128,-1,54
 170 597 170 597 167.5 587.5 c 128,-1,55
 165 578 165 578 165 570 c 2,56,-1
 165 0 l 1,57,-1
 80 0 l 1,0,-1
EndSplineSet
EndChar

StartChar: onesuperior
Encoding: 185 185 150
Width: 410
Flags: W
LayerCount: 2
Fore
SplineSet
102 205 m 1,0,-1
 102 269 l 1,1,-1
 193 269 l 1,2,-1
 193 633 l 1,3,-1
 94 594 l 1,4,-1
 94 662 l 1,5,-1
 185 700 l 1,6,-1
 267 700 l 1,7,-1
 267 269 l 1,8,-1
 341 269 l 1,9,-1
 341 205 l 1,10,-1
 102 205 l 1,0,-1
EndSplineSet
EndChar

StartChar: logicalnot
Encoding: 172 172 151
Width: 575
Flags: W
LayerCount: 2
Fore
SplineSet
420 106 m 1,0,-1
 420 275 l 1,1,-1
 70 275 l 1,2,-1
 70 350 l 1,3,-1
 505 350 l 1,4,-1
 505 106 l 1,5,-1
 420 106 l 1,0,-1
EndSplineSet
EndChar

StartChar: mu
Encoding: 181 181 152
Width: 494
Flags: W
LayerCount: 2
Fore
SplineSet
80 -170 m 1,0,-1
 80 500 l 1,1,-1
 165 500 l 1,2,-1
 165 140 l 2,3,4
 165 110 165 110 182.5 92.5 c 128,-1,5
 200 75 200 75 230 75 c 2,6,-1
 264 75 l 2,7,8
 283 75 283 75 295.5 81 c 128,-1,9
 308 87 308 87 315.5 95 c 128,-1,10
 323 103 323 103 326 113 c 128,-1,11
 329 123 329 123 329 130 c 2,12,-1
 329 500 l 1,13,-1
 414 500 l 1,14,-1
 414 0 l 1,15,-1
 334 0 l 1,16,-1
 334 23 l 1,17,18
 301 0 301 0 254 0 c 2,19,-1
 240 0 l 2,20,21
 195 0 195 0 165 10 c 1,22,-1
 165 -170 l 1,23,-1
 80 -170 l 1,0,-1
EndSplineSet
EndChar

StartChar: trademark
Encoding: 8482 8482 153
Width: 740
Flags: W
LayerCount: 2
Fore
SplineSet
609 194 m 1,0,-1
 609 644 l 1,1,-1
 531 361 l 1,2,-1
 468 361 l 1,3,-1
 389 644 l 1,4,-1
 389 194 l 1,5,-1
 324 194 l 1,6,-1
 324 641 l 1,7,-1
 224 641 l 1,8,-1
 224 194 l 1,9,-1
 156 194 l 1,10,-1
 156 641 l 1,11,-1
 40 641 l 1,12,-1
 40 700 l 1,13,-1
 440 700 l 1,14,-1
 502 463 l 1,15,-1
 562 700 l 1,16,-1
 675 700 l 1,17,-1
 675 194 l 1,18,-1
 609 194 l 1,0,-1
EndSplineSet
EndChar

StartChar: Eth
Encoding: 208 208 154
Width: 531
Flags: W
LayerCount: 2
Fore
SplineSet
456 158 m 1,0,1
 456 72 456 72 416 36 c 128,-1,2
 376 0 376 0 286 0 c 2,3,-1
 90 0 l 1,4,-1
 90 325 l 1,5,-1
 25 325 l 1,6,-1
 25 400 l 1,7,-1
 90 400 l 1,8,-1
 90 700 l 1,9,-1
 274 700 l 2,10,11
 360 700 360 700 408 665 c 128,-1,12
 456 630 456 630 456 544 c 2,13,-1
 456 158 l 1,14,-1
 456 158 l 1,0,1
369 553 m 2,15,16
 369 586 369 586 348.5 605.5 c 128,-1,17
 328 625 328 625 296 625 c 2,18,-1
 177 625 l 1,19,-1
 177 400 l 1,20,-1
 295 400 l 1,21,-1
 295 325 l 1,22,-1
 177 325 l 1,23,-1
 177 75 l 1,24,-1
 295 75 l 2,25,26
 333 75 333 75 351 92.5 c 128,-1,27
 369 110 369 110 369 148 c 2,28,-1
 369 553 l 2,15,16
EndSplineSet
Position2: "'cpsp' Capital Spacing in Latin lookup 0 subtable" dx=5 dy=0 dh=10 dv=0
EndChar

StartChar: onehalf
Encoding: 189 189 155
Width: 875
Flags: W
LayerCount: 2
Fore
SplineSet
92 205 m 1,0,-1
 92 269 l 1,1,-1
 183 269 l 1,2,-1
 183 633 l 1,3,-1
 84 594 l 1,4,-1
 84 662 l 1,5,-1
 175 700 l 1,6,-1
 257 700 l 1,7,-1
 257 269 l 1,8,-1
 331 269 l 1,9,-1
 331 205 l 1,10,-1
 92 205 l 1,0,-1
581 0 m 1,11,-1
 581 73 l 1,12,-1
 693 226 l 2,13,14
 709 247 709 247 718.5 261.5 c 128,-1,15
 728 276 728 276 733.5 288 c 128,-1,16
 739 300 739 300 741 313.5 c 128,-1,17
 743 327 743 327 743 346 c 2,18,-1
 743 382 l 2,19,20
 743 405 743 405 729 418 c 128,-1,21
 715 431 715 431 682 431 c 2,22,-1
 596 431 l 1,23,-1
 596 495 l 1,24,-1
 675 495 l 2,25,26
 750 495 750 495 783 466.5 c 128,-1,27
 816 438 816 438 816 376 c 2,28,-1
 816 353 l 2,29,30
 816 323 816 323 813 303.5 c 128,-1,31
 810 284 810 284 804 268.5 c 128,-1,32
 798 253 798 253 787.5 238 c 128,-1,33
 777 223 777 223 762 203 c 2,34,-1
 659 64 l 1,35,-1
 821 64 l 1,36,-1
 821 0 l 1,37,-1
 581 0 l 1,11,-1
331 -100 m 1,38,-1
 251 -100 l 1,39,-1
 581 810 l 1,40,-1
 651 810 l 1,41,-1
 331 -100 l 1,38,-1
EndSplineSet
Ligature2: "'frac' Diagonal Fractions in Latin lookup 1 subtable" onesuperior fraction twosuperior
Ligature2: "'frac' Diagonal Fractions in Latin lookup 1 subtable" onesuperior fraction two
Ligature2: "'frac' Diagonal Fractions in Latin lookup 1 subtable" onesuperior slash twosuperior
Ligature2: "'frac' Diagonal Fractions in Latin lookup 1 subtable" onesuperior slash two
Ligature2: "'frac' Diagonal Fractions in Latin lookup 1 subtable" one fraction twosuperior
Ligature2: "'frac' Diagonal Fractions in Latin lookup 1 subtable" one fraction two
Ligature2: "'frac' Diagonal Fractions in Latin lookup 1 subtable" one slash twosuperior
Ligature2: "'frac' Diagonal Fractions in Latin lookup 1 subtable" one slash two
EndChar

StartChar: plusminus
Encoding: 177 177 156
Width: 550
Flags: W
LayerCount: 2
Fore
SplineSet
315 275 m 1,0,-1
 315 143 l 1,1,-1
 235 143 l 1,2,-1
 235 275 l 1,3,-1
 85 275 l 1,4,-1
 85 350 l 1,5,-1
 235 350 l 1,6,-1
 235 508 l 1,7,-1
 315 508 l 1,8,-1
 315 350 l 1,9,-1
 465 350 l 1,10,-1
 465 275 l 1,11,-1
 315 275 l 1,0,-1
85 0 m 1,12,-1
 85 75 l 1,13,-1
 465 75 l 1,14,-1
 465 0 l 1,15,-1
 85 0 l 1,12,-1
EndSplineSet
EndChar

StartChar: Thorn
Encoding: 222 222 157
Width: 511
Flags: W
LayerCount: 2
Fore
SplineSet
436 300 m 1,0,1
 436 217 436 217 392.5 179.5 c 128,-1,2
 349 142 349 142 266 142 c 2,3,-1
 172 142 l 1,4,-1
 172 0 l 1,5,-1
 85 0 l 1,6,-1
 85 700 l 1,7,-1
 172 700 l 1,8,-1
 172 570 l 1,9,-1
 264 570 l 2,10,11
 347 570 347 570 391.5 533.5 c 128,-1,12
 436 497 436 497 436 414 c 2,13,-1
 436 300 l 1,14,-1
 436 300 l 1,0,1
349 423 m 2,15,16
 349 461 349 461 331.5 478 c 128,-1,17
 314 495 314 495 276 495 c 2,18,-1
 172 495 l 1,19,-1
 172 217 l 1,20,-1
 276 217 l 2,21,22
 314 217 314 217 331.5 234.5 c 128,-1,23
 349 252 349 252 349 290 c 2,24,-1
 349 423 l 2,15,16
EndSplineSet
Position2: "'cpsp' Capital Spacing in Latin lookup 0 subtable" dx=5 dy=0 dh=10 dv=0
EndChar

StartChar: onequarter
Encoding: 188 188 158
Width: 875
Flags: W
LayerCount: 2
Fore
SplineSet
92 205 m 1,0,-1
 92 269 l 1,1,-1
 183 269 l 1,2,-1
 183 633 l 1,3,-1
 84 594 l 1,4,-1
 84 662 l 1,5,-1
 175 700 l 1,6,-1
 257 700 l 1,7,-1
 257 269 l 1,8,-1
 331 269 l 1,9,-1
 331 205 l 1,10,-1
 92 205 l 1,0,-1
735 117 m 1,11,-1
 735 0 l 1,12,-1
 661 0 l 1,13,-1
 661 117 l 1,14,-1
 514 117 l 1,15,-1
 514 191 l 1,16,-1
 588 495 l 1,17,-1
 657 495 l 1,18,-1
 584 181 l 1,19,-1
 661 181 l 1,20,-1
 668 324 l 1,21,-1
 735 324 l 1,22,-1
 735 181 l 1,23,-1
 785 181 l 1,24,-1
 785 117 l 1,25,-1
 735 117 l 1,11,-1
326 -100 m 1,26,-1
 246 -100 l 1,27,-1
 566 810 l 1,28,-1
 646 810 l 1,29,-1
 326 -100 l 1,26,-1
EndSplineSet
Ligature2: "'frac' Diagonal Fractions in Latin lookup 1 subtable" onesuperior fraction four
Ligature2: "'frac' Diagonal Fractions in Latin lookup 1 subtable" onesuperior slash four
Ligature2: "'frac' Diagonal Fractions in Latin lookup 1 subtable" one fraction four
Ligature2: "'frac' Diagonal Fractions in Latin lookup 1 subtable" one slash four
EndChar

StartChar: divide
Encoding: 247 247 159
Width: 550
Flags: W
LayerCount: 2
Fore
SplineSet
85 275 m 1,0,-1
 85 350 l 1,1,-1
 465 350 l 1,2,-1
 465 275 l 1,3,-1
 85 275 l 1,0,-1
225 65 m 1,4,-1
 225 165 l 1,5,-1
 325 165 l 1,6,-1
 325 65 l 1,7,-1
 225 65 l 1,4,-1
225 460 m 1,8,-1
 225 560 l 1,9,-1
 325 560 l 1,10,-1
 325 460 l 1,11,-1
 225 460 l 1,8,-1
EndSplineSet
EndChar

StartChar: brokenbar
Encoding: 166 166 160
Width: 290
Flags: W
LayerCount: 2
Fore
SplineSet
105 -110 m 1,0,-1
 105 250 l 1,1,-1
 185 250 l 1,2,-1
 185 -110 l 1,3,-1
 105 -110 l 1,0,-1
105 450 m 1,4,-1
 105 810 l 1,5,-1
 185 810 l 1,6,-1
 185 450 l 1,7,-1
 105 450 l 1,4,-1
EndSplineSet
EndChar

StartChar: degree
Encoding: 176 176 161
Width: 363
Flags: W
LayerCount: 2
Fore
SplineSet
323 516 m 1,0,1
 323 486 323 486 313 463.5 c 128,-1,2
 303 441 303 441 286 426.5 c 128,-1,3
 269 412 269 412 245.5 404.5 c 128,-1,4
 222 397 222 397 196 397 c 2,5,-1
 168 397 l 2,6,7
 142 397 142 397 119 404.5 c 128,-1,8
 96 412 96 412 78.5 426.5 c 128,-1,9
 61 441 61 441 51 463.5 c 128,-1,10
 41 486 41 486 41 516 c 2,11,-1
 41 582 l 2,12,13
 41 612 41 612 51 634.5 c 128,-1,14
 61 657 61 657 78.5 672 c 128,-1,15
 96 687 96 687 119 694 c 128,-1,16
 142 701 142 701 168 701 c 2,17,-1
 196 701 l 2,18,19
 222 701 222 701 245.5 694 c 128,-1,20
 269 687 269 687 286 672 c 128,-1,21
 303 657 303 657 313 634.5 c 128,-1,22
 323 612 323 612 323 582 c 2,23,-1
 323 516 l 1,24,-1
 323 516 l 1,0,1
254 585 m 2,25,26
 254 606 254 606 238 622.5 c 128,-1,27
 222 639 222 639 196 639 c 2,28,-1
 168 639 l 2,29,30
 142 639 142 639 126 622.5 c 128,-1,31
 110 606 110 606 110 585 c 2,32,-1
 110 513 l 2,33,34
 110 492 110 492 126 475.5 c 128,-1,35
 142 459 142 459 168 459 c 2,36,-1
 196 459 l 2,37,38
 222 459 222 459 238 475.5 c 128,-1,39
 254 492 254 492 254 513 c 2,40,-1
 254 585 l 2,25,26
EndSplineSet
EndChar

StartChar: thorn
Encoding: 254 254 162
Width: 504
Flags: W
LayerCount: 2
Fore
SplineSet
80 -170 m 1,0,-1
 80 700 l 1,1,-1
 165 700 l 1,2,-1
 165 -170 l 1,3,-1
 80 -170 l 1,0,-1
426 160 m 1,4,5
 426 74 426 74 384.5 37 c 128,-1,6
 343 0 343 0 256 0 c 2,7,-1
 135 0 l 1,8,-1
 135 75 l 1,9,-1
 266 75 l 2,10,11
 304 75 304 75 322.5 92.5 c 128,-1,12
 341 110 341 110 341 140 c 2,13,-1
 341 360 l 2,14,15
 341 390 341 390 322.5 407.5 c 128,-1,16
 304 425 304 425 266 425 c 2,17,-1
 230 425 l 2,18,19
 211 425 211 425 198.5 419 c 128,-1,20
 186 413 186 413 178.5 405 c 128,-1,21
 171 397 171 397 168 387.5 c 128,-1,22
 165 378 165 378 165 370 c 1,23,-1
 108 399 l 1,24,25
 125 453 125 453 160 476.5 c 128,-1,26
 195 500 195 500 240 500 c 2,27,-1
 256 500 l 2,28,29
 343 500 343 500 384.5 463.5 c 128,-1,30
 426 427 426 427 426 340 c 2,31,-1
 426 160 l 1,32,-1
 426 160 l 1,4,5
EndSplineSet
EndChar

StartChar: threequarters
Encoding: 190 190 163
Width: 875
Flags: W
LayerCount: 2
Fore
SplineSet
324 324 m 1,0,1
 324 261 324 261 295 233 c 128,-1,2
 266 205 266 205 197 205 c 2,3,-1
 101 205 l 1,4,-1
 101 269 l 1,5,-1
 194 269 l 2,6,7
 220 269 220 269 235 279.5 c 128,-1,8
 250 290 250 290 250 319 c 2,9,-1
 250 374 l 2,10,11
 250 399 250 399 234.5 412.5 c 128,-1,12
 219 426 219 426 195 426 c 2,13,-1
 124 426 l 1,14,-1
 124 490 l 1,15,-1
 187 490 l 2,16,17
 210 490 210 490 226 503 c 128,-1,18
 242 516 242 516 242 542 c 2,19,-1
 242 584 l 2,20,21
 242 613 242 613 229 624.5 c 128,-1,22
 216 636 216 636 187 636 c 2,23,-1
 101 636 l 1,24,-1
 101 700 l 1,25,-1
 188 700 l 2,26,27
 251 700 251 700 284 672.5 c 128,-1,28
 317 645 317 645 317 583 c 2,29,-1
 317 548 l 2,30,31
 317 519 317 519 305 497 c 128,-1,32
 293 475 293 475 273 461 c 1,33,34
 297 448 297 448 310.5 425.5 c 128,-1,35
 324 403 324 403 324 369 c 2,36,-1
 324 324 l 1,37,-1
 324 324 l 1,0,1
728 117 m 1,38,-1
 728 0 l 1,39,-1
 654 0 l 1,40,-1
 654 117 l 1,41,-1
 507 117 l 1,42,-1
 507 191 l 1,43,-1
 581 495 l 1,44,-1
 650 495 l 1,45,-1
 577 181 l 1,46,-1
 654 181 l 1,47,-1
 661 324 l 1,48,-1
 728 324 l 1,49,-1
 728 181 l 1,50,-1
 778 181 l 1,51,-1
 778 117 l 1,52,-1
 728 117 l 1,38,-1
315 -100 m 1,53,-1
 235 -100 l 1,54,-1
 555 810 l 1,55,-1
 635 810 l 1,56,-1
 315 -100 l 1,53,-1
EndSplineSet
Ligature2: "'frac' Diagonal Fractions in Latin lookup 1 subtable" threesuperior fraction four
Ligature2: "'frac' Diagonal Fractions in Latin lookup 1 subtable" threesuperior slash four
Ligature2: "'frac' Diagonal Fractions in Latin lookup 1 subtable" three fraction four
Ligature2: "'frac' Diagonal Fractions in Latin lookup 1 subtable" three slash four
EndChar

StartChar: twosuperior
Encoding: 178 178 164
Width: 410
Flags: W
LayerCount: 2
Fore
SplineSet
87 205 m 1,0,-1
 87 278 l 1,1,-1
 199 431 l 2,2,3
 215 452 215 452 224.5 466.5 c 128,-1,4
 234 481 234 481 239.5 493 c 128,-1,5
 245 505 245 505 247 518.5 c 128,-1,6
 249 532 249 532 249 551 c 2,7,-1
 249 587 l 2,8,9
 249 610 249 610 235 623 c 128,-1,10
 221 636 221 636 188 636 c 2,11,-1
 102 636 l 1,12,-1
 102 700 l 1,13,-1
 181 700 l 2,14,15
 256 700 256 700 289 671.5 c 128,-1,16
 322 643 322 643 322 581 c 2,17,-1
 322 558 l 2,18,19
 322 528 322 528 319 508.5 c 128,-1,20
 316 489 316 489 310 473.5 c 128,-1,21
 304 458 304 458 293.5 443 c 128,-1,22
 283 428 283 428 268 408 c 2,23,-1
 165 269 l 1,24,-1
 327 269 l 1,25,-1
 327 205 l 1,26,-1
 87 205 l 1,0,-1
EndSplineSet
EndChar

StartChar: registered
Encoding: 174 174 165
Width: 800
Flags: W
LayerCount: 2
Fore
SplineSet
695 170 m 1,0,1
 695 84 695 84 648.5 42 c 128,-1,2
 602 0 602 0 527 0 c 2,3,-1
 273 0 l 2,4,5
 198 0 198 0 151.5 42 c 128,-1,6
 105 84 105 84 105 170 c 2,7,-1
 105 530 l 2,8,9
 105 617 105 617 151.5 658.5 c 128,-1,10
 198 700 198 700 273 700 c 2,11,-1
 527 700 l 2,12,13
 602 700 602 700 648.5 658.5 c 128,-1,14
 695 617 695 617 695 530 c 2,15,-1
 695 170 l 1,16,-1
 695 170 l 1,0,1
618 549 m 2,17,18
 618 564 618 564 612 579 c 128,-1,19
 606 594 606 594 595 606 c 128,-1,20
 584 618 584 618 567 625.5 c 128,-1,21
 550 633 550 633 527 633 c 2,22,-1
 273 633 l 2,23,24
 250 633 250 633 233 625.5 c 128,-1,25
 216 618 216 618 204.5 606 c 128,-1,26
 193 594 193 594 187.5 579 c 128,-1,27
 182 564 182 564 182 549 c 2,28,-1
 182 151 l 2,29,30
 182 136 182 136 187.5 121 c 128,-1,31
 193 106 193 106 204.5 94 c 128,-1,32
 216 82 216 82 233 74.5 c 128,-1,33
 250 67 250 67 273 67 c 2,34,-1
 527 67 l 2,35,36
 550 67 550 67 567.5 74.5 c 128,-1,37
 585 82 585 82 596 94 c 128,-1,38
 607 106 607 106 612.5 121 c 128,-1,39
 618 136 618 136 618 151 c 2,40,-1
 618 549 l 2,17,18
483 159 m 1,41,-1
 405 317 l 1,42,-1
 360 317 l 1,43,-1
 360 159 l 1,44,-1
 304 159 l 1,45,-1
 304 543 l 1,46,-1
 411 543 l 2,47,48
 461 543 461 543 488 522.5 c 128,-1,49
 515 502 515 502 515 457 c 2,50,-1
 515 404 l 2,51,52
 515 371 515 371 501 352.5 c 128,-1,53
 487 334 487 334 461 326 c 1,54,-1
 544 159 l 1,55,-1
 483 159 l 1,41,-1
454 457 m 2,56,57
 454 478 454 478 444 487 c 128,-1,58
 434 496 434 496 411 496 c 2,59,-1
 360 496 l 1,60,-1
 360 363 l 1,61,-1
 411 363 l 2,62,63
 454 363 454 363 454 403 c 2,64,-1
 454 457 l 2,56,57
EndSplineSet
EndChar

StartChar: minus
Encoding: 8722 8722 166
Width: 550
Flags: W
LayerCount: 2
Fore
SplineSet
85 275 m 1,0,-1
 85 350 l 1,1,-1
 465 350 l 1,2,-1
 465 275 l 1,3,-1
 85 275 l 1,0,-1
EndSplineSet
EndChar

StartChar: eth
Encoding: 240 240 167
Width: 503
Flags: W
LayerCount: 2
Fore
SplineSet
244 566 m 1,0,-1
 162 566 l 1,1,-1
 197 626 l 1,2,-1
 126 626 l 1,3,-1
 126 700 l 1,4,-1
 240 700 l 1,5,-1
 270 750 l 1,6,-1
 352 750 l 1,7,-1
 316 690 l 1,8,9
 419 658 419 658 419 530 c 2,10,-1
 419 170 l 2,11,12
 419 127 419 127 406.5 95 c 128,-1,13
 394 63 394 63 372 42 c 128,-1,14
 350 21 350 21 321.5 10.5 c 128,-1,15
 293 0 293 0 261 0 c 2,16,-1
 236 0 l 2,17,18
 204 0 204 0 175.5 10.5 c 128,-1,19
 147 21 147 21 125 42 c 128,-1,20
 103 63 103 63 90.5 95 c 128,-1,21
 78 127 78 127 78 170 c 2,22,-1
 78 300 l 2,23,24
 78 386 78 386 119.5 423 c 128,-1,25
 161 460 161 460 246 460 c 2,26,-1
 334 460 l 1,27,-1
 334 549 l 2,28,29
 334 573 334 573 318.5 593.5 c 128,-1,30
 303 614 303 614 277 622 c 1,31,-1
 244 566 l 1,0,-1
236 385 m 2,32,33
 198 385 198 385 180.5 367 c 128,-1,34
 163 349 163 349 163 319 c 2,35,-1
 163 151 l 2,36,37
 163 121 163 121 183 98 c 128,-1,38
 203 75 203 75 241 75 c 2,39,-1
 256 75 l 2,40,41
 294 75 294 75 314 98 c 128,-1,42
 334 121 334 121 334 151 c 2,43,-1
 334 385 l 1,44,-1
 236 385 l 2,32,33
EndSplineSet
EndChar

StartChar: multiply
Encoding: 215 215 168
Width: 550
Flags: W
LayerCount: 2
Fore
SplineSet
275 253 m 1,0,-1
 158 137 l 1,1,-1
 102 193 l 1,2,-1
 218 310 l 1,3,-1
 102 427 l 1,4,-1
 158 483 l 1,5,-1
 275 367 l 1,6,-1
 392 483 l 1,7,-1
 448 427 l 1,8,-1
 332 310 l 1,9,-1
 448 193 l 1,10,-1
 392 137 l 1,11,-1
 275 253 l 1,0,-1
EndSplineSet
EndChar

StartChar: threesuperior
Encoding: 179 179 169
Width: 410
Flags: W
LayerCount: 2
Fore
SplineSet
317 324 m 1,0,1
 317 261 317 261 288 233 c 128,-1,2
 259 205 259 205 190 205 c 2,3,-1
 94 205 l 1,4,-1
 94 269 l 1,5,-1
 187 269 l 2,6,7
 213 269 213 269 228 279.5 c 128,-1,8
 243 290 243 290 243 319 c 2,9,-1
 243 374 l 2,10,11
 243 399 243 399 227.5 412.5 c 128,-1,12
 212 426 212 426 188 426 c 2,13,-1
 117 426 l 1,14,-1
 117 490 l 1,15,-1
 180 490 l 2,16,17
 203 490 203 490 219 503 c 128,-1,18
 235 516 235 516 235 542 c 2,19,-1
 235 584 l 2,20,21
 235 613 235 613 222 624.5 c 128,-1,22
 209 636 209 636 180 636 c 2,23,-1
 94 636 l 1,24,-1
 94 700 l 1,25,-1
 181 700 l 2,26,27
 244 700 244 700 277 672.5 c 128,-1,28
 310 645 310 645 310 583 c 2,29,-1
 310 548 l 2,30,31
 310 519 310 519 298 497 c 128,-1,32
 286 475 286 475 266 461 c 1,33,34
 290 448 290 448 303.5 425.5 c 128,-1,35
 317 403 317 403 317 369 c 2,36,-1
 317 324 l 1,37,-1
 317 324 l 1,0,1
EndSplineSet
EndChar

StartChar: copyright
Encoding: 169 169 170
Width: 800
Flags: W
LayerCount: 2
Fore
SplineSet
695 170 m 1,0,1
 695 84 695 84 648.5 42 c 128,-1,2
 602 0 602 0 527 0 c 2,3,-1
 273 0 l 2,4,5
 198 0 198 0 151.5 42 c 128,-1,6
 105 84 105 84 105 170 c 2,7,-1
 105 530 l 2,8,9
 105 617 105 617 151.5 658.5 c 128,-1,10
 198 700 198 700 273 700 c 2,11,-1
 527 700 l 2,12,13
 602 700 602 700 648.5 658.5 c 128,-1,14
 695 617 695 617 695 530 c 2,15,-1
 695 170 l 1,16,-1
 695 170 l 1,0,1
403 157 m 2,17,18
 351 157 351 157 323 180 c 128,-1,19
 295 203 295 203 295 251 c 2,20,-1
 295 449 l 2,21,22
 295 497 295 497 323 520 c 128,-1,23
 351 543 351 543 403 543 c 2,24,-1
 478 543 l 1,25,-1
 478 492 l 1,26,-1
 398 492 l 2,27,28
 375 492 375 492 363.5 479.5 c 128,-1,29
 352 467 352 467 352 450 c 2,30,-1
 352 250 l 2,31,32
 352 233 352 233 363.5 220.5 c 128,-1,33
 375 208 375 208 398 208 c 2,34,-1
 477 208 l 1,35,-1
 477 157 l 1,36,-1
 403 157 l 2,17,18
618 549 m 2,37,38
 618 564 618 564 612 579 c 128,-1,39
 606 594 606 594 595 606 c 128,-1,40
 584 618 584 618 567 625.5 c 128,-1,41
 550 633 550 633 527 633 c 2,42,-1
 273 633 l 2,43,44
 250 633 250 633 233 625.5 c 128,-1,45
 216 618 216 618 204.5 606 c 128,-1,46
 193 594 193 594 187.5 579 c 128,-1,47
 182 564 182 564 182 549 c 2,48,-1
 182 151 l 2,49,50
 182 136 182 136 187.5 121 c 128,-1,51
 193 106 193 106 204.5 94 c 128,-1,52
 216 82 216 82 233 74.5 c 128,-1,53
 250 67 250 67 273 67 c 2,54,-1
 527 67 l 2,55,56
 550 67 550 67 567.5 74.5 c 128,-1,57
 585 82 585 82 596 94 c 128,-1,58
 607 106 607 106 612.5 121 c 128,-1,59
 618 136 618 136 618 151 c 2,60,-1
 618 549 l 2,37,38
EndSplineSet
EndChar

StartChar: Aacute
Encoding: 193 193 171
Width: 500
Flags: W
LayerCount: 2
Fore
SplineSet
161 726 m 1,0,-1
 265 841 l 1,1,-1
 376 841 l 1,2,-1
 244 726 l 1,3,-1
 161 726 l 1,0,-1
249 627 m 1,4,-1
 161 252 l 1,5,-1
 330 252 l 1,6,-1
 249 627 l 1,4,-1
384 0 m 1,7,-1
 346 177 l 1,8,-1
 153 177 l 1,9,-1
 114 0 l 1,10,-1
 25 0 l 1,11,-1
 194 700 l 1,12,-1
 309 700 l 1,13,-1
 475 0 l 1,14,-1
 384 0 l 1,7,-1
EndSplineSet
Position2: "'cpsp' Capital Spacing in Latin lookup 0 subtable" dx=5 dy=0 dh=10 dv=0
EndChar

StartChar: Acircumflex
Encoding: 194 194 172
Width: 500
Flags: W
LayerCount: 2
Fore
SplineSet
309 730 m 1,0,-1
 249 794 l 1,1,-1
 189 730 l 1,2,-1
 93 730 l 1,3,-1
 203 845 l 1,4,-1
 295 845 l 1,5,-1
 406 730 l 1,6,-1
 309 730 l 1,0,-1
249 627 m 1,7,-1
 169 252 l 1,8,-1
 330 252 l 1,9,-1
 249 627 l 1,7,-1
384 0 m 1,10,-1
 346 177 l 1,11,-1
 153 177 l 1,12,-1
 114 0 l 1,13,-1
 25 0 l 1,14,-1
 194 700 l 1,15,-1
 309 700 l 1,16,-1
 475 0 l 1,17,-1
 384 0 l 1,10,-1
EndSplineSet
Position2: "'cpsp' Capital Spacing in Latin lookup 0 subtable" dx=5 dy=0 dh=10 dv=0
EndChar

StartChar: Adieresis
Encoding: 196 196 173
Width: 500
Flags: W
LayerCount: 2
Fore
SplineSet
249 627 m 1,0,-1
 169 252 l 1,1,-1
 330 252 l 1,2,-1
 249 627 l 1,0,-1
384 0 m 1,3,-1
 346 177 l 1,4,-1
 153 177 l 1,5,-1
 114 0 l 1,6,-1
 25 0 l 1,7,-1
 194 700 l 1,8,-1
 309 700 l 1,9,-1
 475 0 l 1,10,-1
 384 0 l 1,3,-1
313 735 m 1,11,-1
 313 815 l 1,12,-1
 384 815 l 1,13,-1
 398 735 l 1,14,-1
 313 735 l 1,11,-1
113 735 m 1,15,-1
 113 815 l 1,16,-1
 198 815 l 1,17,-1
 198 735 l 1,18,-1
 113 735 l 1,15,-1
EndSplineSet
Position2: "'cpsp' Capital Spacing in Latin lookup 0 subtable" dx=5 dy=0 dh=10 dv=0
EndChar

StartChar: Agrave
Encoding: 192 192 174
Width: 500
Flags: W
LayerCount: 2
Fore
SplineSet
254 726 m 1,0,-1
 122 841 l 1,1,-1
 233 841 l 1,2,-1
 337 726 l 1,3,-1
 254 726 l 1,0,-1
249 627 m 1,4,-1
 169 252 l 1,5,-1
 330 252 l 1,6,-1
 249 627 l 1,4,-1
384 0 m 1,7,-1
 346 177 l 1,8,-1
 153 177 l 1,9,-1
 114 0 l 1,10,-1
 25 0 l 1,11,-1
 194 700 l 1,12,-1
 309 700 l 1,13,-1
 475 0 l 1,14,-1
 384 0 l 1,7,-1
EndSplineSet
Position2: "'cpsp' Capital Spacing in Latin lookup 0 subtable" dx=5 dy=0 dh=10 dv=0
EndChar

StartChar: Aring
Encoding: 197 197 175
Width: 500
Flags: W
LayerCount: 2
Fore
SplineSet
343 741 m 1,0,1
 341 696 341 696 315 675 c 1,2,-1
 475 0 l 1,3,-1
 384 0 l 1,4,-1
 346 177 l 1,5,-1
 153 177 l 1,6,-1
 114 0 l 1,7,-1
 25 0 l 1,8,-1
 188 674 l 1,9,10
 159 697 159 697 159 741 c 2,11,-1
 159 770 l 2,12,13
 159 814 159 814 184.5 834.5 c 128,-1,14
 210 855 210 855 248 855 c 2,15,-1
 254 855 l 2,16,17
 292 855 292 855 317.5 834.5 c 128,-1,18
 343 814 343 814 343 770 c 2,19,-1
 343 741 l 1,20,-1
 343 741 l 1,0,1
249 627 m 1,21,-1
 169 252 l 1,22,-1
 330 252 l 1,23,-1
 249 627 l 1,21,-1
286 771 m 2,24,25
 286 786 286 786 279.5 797.5 c 128,-1,26
 273 809 273 809 254 809 c 2,27,-1
 248 809 l 2,28,29
 229 809 229 809 221.5 797.5 c 128,-1,30
 214 786 214 786 214 771 c 2,31,-1
 214 740 l 2,32,33
 214 725 214 725 221.5 713.5 c 128,-1,34
 229 702 229 702 248 702 c 2,35,-1
 254 702 l 2,36,37
 273 702 273 702 279.5 713.5 c 128,-1,38
 286 725 286 725 286 740 c 2,39,-1
 286 771 l 2,24,25
EndSplineSet
Position2: "'cpsp' Capital Spacing in Latin lookup 0 subtable" dx=5 dy=0 dh=10 dv=0
EndChar

StartChar: Atilde
Encoding: 195 195 176
Width: 500
Flags: W
LayerCount: 2
Fore
SplineSet
249 627 m 1,0,-1
 169 252 l 1,1,-1
 330 252 l 1,2,-1
 249 627 l 1,0,-1
384 0 m 1,3,-1
 346 177 l 1,4,-1
 153 177 l 1,5,-1
 114 0 l 1,6,-1
 25 0 l 1,7,-1
 194 700 l 1,8,-1
 309 700 l 1,9,-1
 475 0 l 1,10,-1
 384 0 l 1,3,-1
114 807 m 1,11,12
 130 817 130 817 145 824 c 0,13,14
 158 830 158 830 171 835 c 128,-1,15
 184 840 184 840 191 840 c 2,16,-1
 206 840 l 2,17,18
 215 840 215 840 230 834 c 128,-1,19
 245 828 245 828 261.5 820.5 c 128,-1,20
 278 813 278 813 293 806.5 c 128,-1,21
 308 800 308 800 317 800 c 2,22,-1
 327 800 l 2,23,24
 332 800 332 800 343 805.5 c 128,-1,25
 354 811 354 811 365 818 c 0,26,27
 378 826 378 826 394 836 c 1,28,-1
 394 764 l 1,29,30
 379 755 379 755 366 748 c 0,31,32
 355 742 355 742 344 736.5 c 128,-1,33
 333 731 333 731 326 731 c 2,34,-1
 311 731 l 2,35,36
 306 731 306 731 291 737.5 c 128,-1,37
 276 744 276 744 258.5 751.5 c 128,-1,38
 241 759 241 759 225 765 c 128,-1,39
 209 771 209 771 201 771 c 2,40,-1
 191 771 l 2,41,42
 186 771 186 771 173.5 765.5 c 128,-1,43
 161 760 161 760 147 753 c 0,44,45
 131 745 131 745 114 735 c 1,46,-1
 114 807 l 1,11,12
EndSplineSet
Position2: "'cpsp' Capital Spacing in Latin lookup 0 subtable" dx=5 dy=0 dh=10 dv=0
EndChar

StartChar: Ccedilla
Encoding: 199 199 177
Width: 417
Flags: W
LayerCount: 2
Fore
SplineSet
197 -200 m 1,0,-1
 197 -136 l 1,1,-1
 264 -136 l 2,2,3
 297 -136 297 -136 297 -105 c 0,4,5
 297 -88 297 -88 288 -82 c 128,-1,6
 279 -76 279 -76 262 -76 c 2,7,-1
 213 -76 l 1,8,-1
 213 2 l 1,9,10
 146 12 146 12 110.5 53.5 c 128,-1,11
 75 95 75 95 75 170 c 2,12,-1
 75 530 l 2,13,14
 75 616 75 616 121.5 658 c 128,-1,15
 168 700 168 700 255 700 c 2,16,-1
 377 700 l 1,17,-1
 377 624 l 1,18,-1
 245 624 l 2,19,20
 207 624 207 624 184.5 601.5 c 128,-1,21
 162 579 162 579 162 549 c 2,22,-1
 162 151 l 2,23,24
 162 121 162 121 184.5 98.5 c 128,-1,25
 207 76 207 76 245 76 c 2,26,-1
 377 76 l 1,27,-1
 377 0 l 1,28,-1
 283 0 l 1,29,-1
 283 -21 l 1,30,31
 327 -21 327 -21 348.5 -37 c 128,-1,32
 370 -53 370 -53 370 -105 c 0,33,34
 370 -138 370 -138 361 -157 c 128,-1,35
 352 -176 352 -176 339 -185.5 c 128,-1,36
 326 -195 326 -195 310.5 -197.5 c 128,-1,37
 295 -200 295 -200 282 -200 c 2,38,-1
 197 -200 l 1,0,-1
EndSplineSet
Position2: "'cpsp' Capital Spacing in Latin lookup 0 subtable" dx=5 dy=0 dh=10 dv=0
EndChar

StartChar: Eacute
Encoding: 201 201 178
Width: 473
Flags: W
LayerCount: 2
Fore
SplineSet
182 726 m 1,0,-1
 286 841 l 1,1,-1
 397 841 l 1,2,-1
 265 726 l 1,3,-1
 182 726 l 1,0,-1
85 0 m 1,4,-1
 85 700 l 1,5,-1
 413 700 l 1,6,-1
 413 627 l 1,7,-1
 172 627 l 1,8,-1
 172 398 l 1,9,-1
 388 398 l 1,10,-1
 388 325 l 1,11,-1
 172 325 l 1,12,-1
 172 73 l 1,13,-1
 413 73 l 1,14,-1
 413 0 l 1,15,-1
 85 0 l 1,4,-1
EndSplineSet
Position2: "'cpsp' Capital Spacing in Latin lookup 0 subtable" dx=5 dy=0 dh=10 dv=0
EndChar

StartChar: Ecircumflex
Encoding: 202 202 179
Width: 473
Flags: W
LayerCount: 2
Fore
SplineSet
309 730 m 1,0,-1
 249 794 l 1,1,-1
 189 730 l 1,2,-1
 93 730 l 1,3,-1
 203 845 l 1,4,-1
 295 845 l 1,5,-1
 406 730 l 1,6,-1
 309 730 l 1,0,-1
85 0 m 1,7,-1
 85 700 l 1,8,-1
 413 700 l 1,9,-1
 413 627 l 1,10,-1
 172 627 l 1,11,-1
 172 398 l 1,12,-1
 388 398 l 1,13,-1
 388 325 l 1,14,-1
 172 325 l 1,15,-1
 172 73 l 1,16,-1
 413 73 l 1,17,-1
 413 0 l 1,18,-1
 85 0 l 1,7,-1
EndSplineSet
Position2: "'cpsp' Capital Spacing in Latin lookup 0 subtable" dx=5 dy=0 dh=10 dv=0
EndChar

StartChar: Edieresis
Encoding: 203 203 180
Width: 473
Flags: W
LayerCount: 2
Fore
SplineSet
85 0 m 1,0,-1
 85 700 l 1,1,-1
 413 700 l 1,2,-1
 413 627 l 1,3,-1
 172 627 l 1,4,-1
 172 398 l 1,5,-1
 388 398 l 1,6,-1
 388 325 l 1,7,-1
 172 325 l 1,8,-1
 172 73 l 1,9,-1
 413 73 l 1,10,-1
 413 0 l 1,11,-1
 85 0 l 1,0,-1
308 735 m 1,12,-1
 308 815 l 1,13,-1
 393 815 l 1,14,-1
 393 735 l 1,15,-1
 308 735 l 1,12,-1
108 735 m 1,16,-1
 108 815 l 1,17,-1
 193 815 l 1,18,-1
 193 735 l 1,19,-1
 108 735 l 1,16,-1
EndSplineSet
Position2: "'cpsp' Capital Spacing in Latin lookup 0 subtable" dx=5 dy=0 dh=10 dv=0
EndChar

StartChar: Egrave
Encoding: 200 200 181
Width: 473
Flags: W
LayerCount: 2
Fore
SplineSet
244 726 m 1,0,-1
 112 841 l 1,1,-1
 223 841 l 1,2,-1
 327 726 l 1,3,-1
 244 726 l 1,0,-1
85 0 m 1,4,-1
 85 700 l 1,5,-1
 413 700 l 1,6,-1
 413 627 l 1,7,-1
 172 627 l 1,8,-1
 172 398 l 1,9,-1
 388 398 l 1,10,-1
 388 325 l 1,11,-1
 172 325 l 1,12,-1
 172 73 l 1,13,-1
 413 73 l 1,14,-1
 413 0 l 1,15,-1
 85 0 l 1,4,-1
EndSplineSet
Position2: "'cpsp' Capital Spacing in Latin lookup 0 subtable" dx=5 dy=0 dh=10 dv=0
EndChar

StartChar: Iacute
Encoding: 205 205 182
Width: 317
Flags: W
LayerCount: 2
Fore
SplineSet
61 726 m 1,0,-1
 165 841 l 1,1,-1
 276 841 l 1,2,-1
 144 726 l 1,3,-1
 61 726 l 1,0,-1
45 0 m 1,4,-1
 45 73 l 1,5,-1
 115 73 l 1,6,-1
 115 627 l 1,7,-1
 45 627 l 1,8,-1
 45 700 l 1,9,-1
 272 700 l 1,10,-1
 272 627 l 1,11,-1
 202 627 l 1,12,-1
 202 73 l 1,13,-1
 272 73 l 1,14,-1
 272 0 l 1,15,-1
 45 0 l 1,4,-1
EndSplineSet
Position2: "'cpsp' Capital Spacing in Latin lookup 0 subtable" dx=5 dy=0 dh=10 dv=0
EndChar

StartChar: Icircumflex
Encoding: 206 206 183
Width: 317
Flags: W
LayerCount: 2
Fore
SplineSet
218 730 m 1,0,-1
 158 794 l 1,1,-1
 98 730 l 1,2,-1
 2 730 l 1,3,-1
 112 845 l 1,4,-1
 204 845 l 1,5,-1
 315 730 l 1,6,-1
 218 730 l 1,0,-1
45 0 m 1,7,-1
 45 73 l 1,8,-1
 115 73 l 1,9,-1
 115 627 l 1,10,-1
 45 627 l 1,11,-1
 45 700 l 1,12,-1
 272 700 l 1,13,-1
 272 627 l 1,14,-1
 202 627 l 1,15,-1
 202 73 l 1,16,-1
 272 73 l 1,17,-1
 272 0 l 1,18,-1
 45 0 l 1,7,-1
EndSplineSet
Position2: "'cpsp' Capital Spacing in Latin lookup 0 subtable" dx=5 dy=0 dh=10 dv=0
EndChar

StartChar: Idieresis
Encoding: 207 207 184
Width: 317
Flags: W
LayerCount: 2
Fore
SplineSet
45 0 m 1,0,-1
 45 73 l 1,1,-1
 115 73 l 1,2,-1
 115 627 l 1,3,-1
 45 627 l 1,4,-1
 45 700 l 1,5,-1
 272 700 l 1,6,-1
 272 627 l 1,7,-1
 202 627 l 1,8,-1
 202 73 l 1,9,-1
 272 73 l 1,10,-1
 272 0 l 1,11,-1
 45 0 l 1,0,-1
216 735 m 1,12,-1
 216 815 l 1,13,-1
 301 815 l 1,14,-1
 301 735 l 1,15,-1
 216 735 l 1,12,-1
16 735 m 1,16,-1
 16 815 l 1,17,-1
 101 815 l 1,18,-1
 101 735 l 1,19,-1
 16 735 l 1,16,-1
EndSplineSet
Position2: "'cpsp' Capital Spacing in Latin lookup 0 subtable" dx=5 dy=0 dh=10 dv=0
EndChar

StartChar: Igrave
Encoding: 204 204 185
Width: 317
Flags: W
LayerCount: 2
Fore
SplineSet
170 726 m 1,0,-1
 38 841 l 1,1,-1
 149 841 l 1,2,-1
 253 726 l 1,3,-1
 170 726 l 1,0,-1
45 0 m 1,4,-1
 45 73 l 1,5,-1
 115 73 l 1,6,-1
 115 627 l 1,7,-1
 45 627 l 1,8,-1
 45 700 l 1,9,-1
 272 700 l 1,10,-1
 272 627 l 1,11,-1
 202 627 l 1,12,-1
 202 73 l 1,13,-1
 272 73 l 1,14,-1
 272 0 l 1,15,-1
 45 0 l 1,4,-1
EndSplineSet
Position2: "'cpsp' Capital Spacing in Latin lookup 0 subtable" dx=5 dy=0 dh=10 dv=0
EndChar

StartChar: Ntilde
Encoding: 209 209 186
Width: 547
Flags: W
LayerCount: 2
Fore
SplineSet
319 0 m 1,0,-1
 166 626 l 1,1,-1
 166 0 l 1,2,-1
 85 0 l 1,3,-1
 85 700 l 1,4,-1
 227 700 l 1,5,-1
 381 74 l 1,6,-1
 381 700 l 1,7,-1
 462 700 l 1,8,-1
 462 0 l 1,9,-1
 319 0 l 1,0,-1
137 807 m 1,10,11
 153 817 153 817 168 824 c 0,12,13
 181 830 181 830 194 835 c 128,-1,14
 207 840 207 840 214 840 c 2,15,-1
 229 840 l 2,16,17
 238 840 238 840 253 834 c 128,-1,18
 268 828 268 828 284.5 820.5 c 128,-1,19
 301 813 301 813 316 806.5 c 128,-1,20
 331 800 331 800 340 800 c 2,21,-1
 350 800 l 2,22,23
 355 800 355 800 366 805.5 c 128,-1,24
 377 811 377 811 388 818 c 0,25,26
 401 826 401 826 417 836 c 1,27,-1
 417 764 l 1,28,29
 402 755 402 755 389 748 c 0,30,31
 378 742 378 742 367 736.5 c 128,-1,32
 356 731 356 731 349 731 c 2,33,-1
 334 731 l 2,34,35
 329 731 329 731 314 737.5 c 128,-1,36
 299 744 299 744 281.5 751.5 c 128,-1,37
 264 759 264 759 248 765 c 128,-1,38
 232 771 232 771 224 771 c 2,39,-1
 214 771 l 2,40,41
 209 771 209 771 196.5 765.5 c 128,-1,42
 184 760 184 760 170 753 c 0,43,44
 154 745 154 745 137 735 c 1,45,-1
 137 807 l 1,10,11
EndSplineSet
Position2: "'cpsp' Capital Spacing in Latin lookup 0 subtable" dx=5 dy=0 dh=10 dv=0
EndChar

StartChar: Oacute
Encoding: 211 211 187
Width: 544
Flags: W
LayerCount: 2
Fore
SplineSet
211 726 m 1,0,-1
 315 841 l 1,1,-1
 426 841 l 1,2,-1
 294 726 l 1,3,-1
 211 726 l 1,0,-1
469 170 m 1,4,5
 469 84 469 84 422.5 42 c 128,-1,6
 376 0 376 0 289 0 c 2,7,-1
 255 0 l 2,8,9
 168 0 168 0 121.5 42 c 128,-1,10
 75 84 75 84 75 170 c 2,11,-1
 75 530 l 2,12,13
 75 616 75 616 121.5 658 c 128,-1,14
 168 700 168 700 255 700 c 2,15,-1
 289 700 l 2,16,17
 376 700 376 700 422.5 658 c 128,-1,18
 469 616 469 616 469 530 c 2,19,-1
 469 170 l 1,20,-1
 469 170 l 1,4,5
382 549 m 2,21,22
 382 579 382 579 359.5 601.5 c 128,-1,23
 337 624 337 624 299 624 c 2,24,-1
 245 624 l 2,25,26
 207 624 207 624 184.5 601.5 c 128,-1,27
 162 579 162 579 162 549 c 2,28,-1
 162 151 l 2,29,30
 162 121 162 121 184.5 98.5 c 128,-1,31
 207 76 207 76 245 76 c 2,32,-1
 299 76 l 2,33,34
 337 76 337 76 359.5 98.5 c 128,-1,35
 382 121 382 121 382 151 c 2,36,-1
 382 549 l 2,21,22
EndSplineSet
Position2: "'cpsp' Capital Spacing in Latin lookup 0 subtable" dx=5 dy=0 dh=10 dv=0
EndChar

StartChar: Ocircumflex
Encoding: 212 212 188
Width: 544
Flags: W
LayerCount: 2
Fore
SplineSet
329 730 m 1,0,-1
 269 794 l 1,1,-1
 209 730 l 1,2,-1
 113 730 l 1,3,-1
 223 845 l 1,4,-1
 315 845 l 1,5,-1
 426 730 l 1,6,-1
 329 730 l 1,0,-1
469 170 m 1,7,8
 469 84 469 84 422.5 42 c 128,-1,9
 376 0 376 0 289 0 c 2,10,-1
 255 0 l 2,11,12
 168 0 168 0 121.5 42 c 128,-1,13
 75 84 75 84 75 170 c 2,14,-1
 75 530 l 2,15,16
 75 616 75 616 121.5 658 c 128,-1,17
 168 700 168 700 255 700 c 2,18,-1
 289 700 l 2,19,20
 376 700 376 700 422.5 658 c 128,-1,21
 469 616 469 616 469 530 c 2,22,-1
 469 170 l 1,23,-1
 469 170 l 1,7,8
382 549 m 2,24,25
 382 579 382 579 359.5 601.5 c 128,-1,26
 337 624 337 624 299 624 c 2,27,-1
 245 624 l 2,28,29
 207 624 207 624 184.5 601.5 c 128,-1,30
 162 579 162 579 162 549 c 2,31,-1
 162 151 l 2,32,33
 162 121 162 121 184.5 98.5 c 128,-1,34
 207 76 207 76 245 76 c 2,35,-1
 299 76 l 2,36,37
 337 76 337 76 359.5 98.5 c 128,-1,38
 382 121 382 121 382 151 c 2,39,-1
 382 549 l 2,24,25
EndSplineSet
Position2: "'cpsp' Capital Spacing in Latin lookup 0 subtable" dx=5 dy=0 dh=10 dv=0
EndChar

StartChar: Odieresis
Encoding: 214 214 189
Width: 544
Flags: W
LayerCount: 2
Fore
SplineSet
333 735 m 1,0,-1
 333 815 l 1,1,-1
 418 815 l 1,2,-1
 418 735 l 1,3,-1
 333 735 l 1,0,-1
133 735 m 1,4,-1
 133 815 l 1,5,-1
 218 815 l 1,6,-1
 218 735 l 1,7,-1
 133 735 l 1,4,-1
469 170 m 1,8,9
 469 84 469 84 422.5 42 c 128,-1,10
 376 0 376 0 289 0 c 2,11,-1
 255 0 l 2,12,13
 168 0 168 0 121.5 42 c 128,-1,14
 75 84 75 84 75 170 c 2,15,-1
 75 530 l 2,16,17
 75 616 75 616 121.5 658 c 128,-1,18
 168 700 168 700 255 700 c 2,19,-1
 289 700 l 2,20,21
 376 700 376 700 422.5 658 c 128,-1,22
 469 616 469 616 469 530 c 2,23,-1
 469 170 l 1,24,-1
 469 170 l 1,8,9
382 549 m 2,25,26
 382 579 382 579 359.5 601.5 c 128,-1,27
 337 624 337 624 299 624 c 2,28,-1
 245 624 l 2,29,30
 207 624 207 624 184.5 601.5 c 128,-1,31
 162 579 162 579 162 549 c 2,32,-1
 162 151 l 2,33,34
 162 121 162 121 184.5 98.5 c 128,-1,35
 207 76 207 76 245 76 c 2,36,-1
 299 76 l 2,37,38
 337 76 337 76 359.5 98.5 c 128,-1,39
 382 121 382 121 382 151 c 2,40,-1
 382 549 l 2,25,26
EndSplineSet
Position2: "'cpsp' Capital Spacing in Latin lookup 0 subtable" dx=5 dy=0 dh=10 dv=0
EndChar

StartChar: Ograve
Encoding: 210 210 190
Width: 544
Flags: W
LayerCount: 2
Fore
SplineSet
268 726 m 1,0,-1
 136 841 l 1,1,-1
 247 841 l 1,2,-1
 351 726 l 1,3,-1
 268 726 l 1,0,-1
469 170 m 1,4,5
 469 84 469 84 422.5 42 c 128,-1,6
 376 0 376 0 289 0 c 2,7,-1
 255 0 l 2,8,9
 168 0 168 0 121.5 42 c 128,-1,10
 75 84 75 84 75 170 c 2,11,-1
 75 530 l 2,12,13
 75 616 75 616 121.5 658 c 128,-1,14
 168 700 168 700 255 700 c 2,15,-1
 289 700 l 2,16,17
 376 700 376 700 422.5 658 c 128,-1,18
 469 616 469 616 469 530 c 2,19,-1
 469 170 l 1,20,-1
 469 170 l 1,4,5
382 549 m 2,21,22
 382 579 382 579 359.5 601.5 c 128,-1,23
 337 624 337 624 299 624 c 2,24,-1
 245 624 l 2,25,26
 207 624 207 624 184.5 601.5 c 128,-1,27
 162 579 162 579 162 549 c 2,28,-1
 162 151 l 2,29,30
 162 121 162 121 184.5 98.5 c 128,-1,31
 207 76 207 76 245 76 c 2,32,-1
 299 76 l 2,33,34
 337 76 337 76 359.5 98.5 c 128,-1,35
 382 121 382 121 382 151 c 2,36,-1
 382 549 l 2,21,22
EndSplineSet
Position2: "'cpsp' Capital Spacing in Latin lookup 0 subtable" dx=5 dy=0 dh=10 dv=0
EndChar

StartChar: Otilde
Encoding: 213 213 191
Width: 544
Flags: W
LayerCount: 2
Fore
SplineSet
469 170 m 1,0,1
 469 84 469 84 422.5 42 c 128,-1,2
 376 0 376 0 289 0 c 2,3,-1
 255 0 l 2,4,5
 168 0 168 0 121.5 42 c 128,-1,6
 75 84 75 84 75 170 c 2,7,-1
 75 530 l 2,8,9
 75 616 75 616 121.5 658 c 128,-1,10
 168 700 168 700 255 700 c 2,11,-1
 289 700 l 2,12,13
 376 700 376 700 422.5 658 c 128,-1,14
 469 616 469 616 469 530 c 2,15,-1
 469 170 l 1,16,-1
 469 170 l 1,0,1
382 549 m 2,17,18
 382 579 382 579 359.5 601.5 c 128,-1,19
 337 624 337 624 299 624 c 2,20,-1
 245 624 l 2,21,22
 207 624 207 624 184.5 601.5 c 128,-1,23
 162 579 162 579 162 549 c 2,24,-1
 162 151 l 2,25,26
 162 121 162 121 184.5 98.5 c 128,-1,27
 207 76 207 76 245 76 c 2,28,-1
 299 76 l 2,29,30
 337 76 337 76 359.5 98.5 c 128,-1,31
 382 121 382 121 382 151 c 2,32,-1
 382 549 l 2,17,18
133 807 m 1,33,34
 149 817 149 817 164 824 c 0,35,36
 177 830 177 830 190 835 c 128,-1,37
 203 840 203 840 210 840 c 2,38,-1
 225 840 l 2,39,40
 234 840 234 840 249 834 c 128,-1,41
 264 828 264 828 280.5 820.5 c 128,-1,42
 297 813 297 813 312 806.5 c 128,-1,43
 327 800 327 800 336 800 c 2,44,-1
 346 800 l 2,45,46
 351 800 351 800 362 805.5 c 128,-1,47
 373 811 373 811 384 818 c 0,48,49
 397 826 397 826 413 836 c 1,50,-1
 413 764 l 1,51,52
 398 755 398 755 385 748 c 0,53,54
 374 742 374 742 363 736.5 c 128,-1,55
 352 731 352 731 345 731 c 2,56,-1
 330 731 l 2,57,58
 325 731 325 731 310 737.5 c 128,-1,59
 295 744 295 744 277.5 751.5 c 128,-1,60
 260 759 260 759 244 765 c 128,-1,61
 228 771 228 771 220 771 c 2,62,-1
 210 771 l 2,63,64
 205 771 205 771 192.5 765.5 c 128,-1,65
 180 760 180 760 166 753 c 0,66,67
 150 745 150 745 133 735 c 1,68,-1
 133 807 l 1,33,34
EndSplineSet
Position2: "'cpsp' Capital Spacing in Latin lookup 0 subtable" dx=5 dy=0 dh=10 dv=0
EndChar

StartChar: Scaron
Encoding: 352 352 192
Width: 439
Flags: W
LayerCount: 2
Fore
SplineSet
181 845 m 1,0,-1
 241 778 l 1,1,-1
 301 845 l 1,2,-1
 397 845 l 1,3,-1
 285 730 l 1,4,-1
 197 730 l 1,5,-1
 84 845 l 1,6,-1
 181 845 l 1,0,-1
384 170 m 1,7,8
 384 84 384 84 337.5 42 c 128,-1,9
 291 0 291 0 204 0 c 2,10,-1
 72 0 l 1,11,-1
 72 76 l 1,12,-1
 214 76 l 2,13,14
 252 76 252 76 274.5 98.5 c 128,-1,15
 297 121 297 121 297 151 c 2,16,-1
 297 255 l 2,17,18
 297 284 297 284 282 303 c 128,-1,19
 267 322 267 322 235 322 c 2,20,-1
 215 322 l 2,21,22
 143 322 143 322 99 364 c 128,-1,23
 55 406 55 406 55 492 c 2,24,-1
 55 530 l 2,25,26
 55 616 55 616 101.5 658 c 128,-1,27
 148 700 148 700 235 700 c 2,28,-1
 368 700 l 1,29,-1
 368 624 l 1,30,-1
 225 624 l 2,31,32
 187 624 187 624 164.5 601.5 c 128,-1,33
 142 579 142 579 142 549 c 2,34,-1
 142 473 l 2,35,36
 142 443 142 443 161.5 422 c 128,-1,37
 181 401 181 401 214 401 c 2,38,-1
 234 401 l 2,39,40
 303 401 303 401 343.5 361.5 c 128,-1,41
 384 322 384 322 384 236 c 2,42,-1
 384 170 l 1,43,-1
 384 170 l 1,7,8
EndSplineSet
Position2: "'cpsp' Capital Spacing in Latin lookup 0 subtable" dx=5 dy=0 dh=10 dv=0
EndChar

StartChar: Uacute
Encoding: 218 218 193
Width: 535
Flags: W
LayerCount: 2
Fore
SplineSet
206 726 m 1,0,-1
 310 841 l 1,1,-1
 421 841 l 1,2,-1
 289 726 l 1,3,-1
 206 726 l 1,0,-1
450 170 m 1,4,5
 450 84 450 84 403.5 42 c 128,-1,6
 357 0 357 0 270 0 c 2,7,-1
 255 0 l 2,8,9
 168 0 168 0 121.5 42 c 128,-1,10
 75 84 75 84 75 170 c 2,11,-1
 75 700 l 1,12,-1
 162 700 l 1,13,-1
 162 151 l 2,14,15
 162 121 162 121 184.5 98.5 c 128,-1,16
 207 76 207 76 245 76 c 2,17,-1
 280 76 l 2,18,19
 318 76 318 76 340.5 98.5 c 128,-1,20
 363 121 363 121 363 151 c 2,21,-1
 363 700 l 1,22,-1
 450 700 l 1,23,-1
 450 170 l 1,24,-1
 450 170 l 1,4,5
EndSplineSet
Position2: "'cpsp' Capital Spacing in Latin lookup 0 subtable" dx=5 dy=0 dh=10 dv=0
EndChar

StartChar: Ucircumflex
Encoding: 219 219 194
Width: 535
Flags: W
LayerCount: 2
Fore
SplineSet
321 730 m 1,0,-1
 261 794 l 1,1,-1
 201 730 l 1,2,-1
 105 730 l 1,3,-1
 215 845 l 1,4,-1
 307 845 l 1,5,-1
 418 730 l 1,6,-1
 321 730 l 1,0,-1
450 170 m 1,7,8
 450 84 450 84 403.5 42 c 128,-1,9
 357 0 357 0 270 0 c 2,10,-1
 255 0 l 2,11,12
 168 0 168 0 121.5 42 c 128,-1,13
 75 84 75 84 75 170 c 2,14,-1
 75 700 l 1,15,-1
 162 700 l 1,16,-1
 162 151 l 2,17,18
 162 121 162 121 184.5 98.5 c 128,-1,19
 207 76 207 76 245 76 c 2,20,-1
 280 76 l 2,21,22
 318 76 318 76 340.5 98.5 c 128,-1,23
 363 121 363 121 363 151 c 2,24,-1
 363 700 l 1,25,-1
 450 700 l 1,26,-1
 450 170 l 1,27,-1
 450 170 l 1,7,8
EndSplineSet
Position2: "'cpsp' Capital Spacing in Latin lookup 0 subtable" dx=5 dy=0 dh=10 dv=0
EndChar

StartChar: Udieresis
Encoding: 220 220 195
Width: 535
Flags: W
LayerCount: 2
Fore
SplineSet
323 735 m 1,0,-1
 323 815 l 1,1,-1
 408 815 l 1,2,-1
 408 735 l 1,3,-1
 323 735 l 1,0,-1
123 735 m 1,4,-1
 123 815 l 1,5,-1
 208 815 l 1,6,-1
 208 735 l 1,7,-1
 123 735 l 1,4,-1
450 170 m 1,8,9
 450 84 450 84 403.5 42 c 128,-1,10
 357 0 357 0 270 0 c 2,11,-1
 255 0 l 2,12,13
 168 0 168 0 121.5 42 c 128,-1,14
 75 84 75 84 75 170 c 2,15,-1
 75 700 l 1,16,-1
 162 700 l 1,17,-1
 162 151 l 2,18,19
 162 121 162 121 184.5 98.5 c 128,-1,20
 207 76 207 76 245 76 c 2,21,-1
 280 76 l 2,22,23
 318 76 318 76 340.5 98.5 c 128,-1,24
 363 121 363 121 363 151 c 2,25,-1
 363 700 l 1,26,-1
 450 700 l 1,27,-1
 450 170 l 1,28,-1
 450 170 l 1,8,9
EndSplineSet
Position2: "'cpsp' Capital Spacing in Latin lookup 0 subtable" dx=5 dy=0 dh=10 dv=0
EndChar

StartChar: Ugrave
Encoding: 217 217 196
Width: 535
Flags: W
LayerCount: 2
Fore
SplineSet
253 726 m 1,0,-1
 121 841 l 1,1,-1
 232 841 l 1,2,-1
 336 726 l 1,3,-1
 253 726 l 1,0,-1
450 170 m 1,4,5
 450 84 450 84 403.5 42 c 128,-1,6
 357 0 357 0 270 0 c 2,7,-1
 255 0 l 2,8,9
 168 0 168 0 121.5 42 c 128,-1,10
 75 84 75 84 75 170 c 2,11,-1
 75 700 l 1,12,-1
 162 700 l 1,13,-1
 162 151 l 2,14,15
 162 121 162 121 184.5 98.5 c 128,-1,16
 207 76 207 76 245 76 c 2,17,-1
 280 76 l 2,18,19
 318 76 318 76 340.5 98.5 c 128,-1,20
 363 121 363 121 363 151 c 2,21,-1
 363 700 l 1,22,-1
 450 700 l 1,23,-1
 450 170 l 1,24,-1
 450 170 l 1,4,5
EndSplineSet
Position2: "'cpsp' Capital Spacing in Latin lookup 0 subtable" dx=5 dy=0 dh=10 dv=0
EndChar

StartChar: Yacute
Encoding: 221 221 197
Width: 491
Flags: W
LayerCount: 2
Fore
SplineSet
186 726 m 1,0,-1
 290 841 l 1,1,-1
 401 841 l 1,2,-1
 269 726 l 1,3,-1
 186 726 l 1,0,-1
289 325 m 1,4,-1
 289 0 l 1,5,-1
 199 0 l 1,6,-1
 199 325 l 1,7,-1
 20 700 l 1,8,-1
 116 700 l 1,9,-1
 248 409 l 1,10,-1
 380 700 l 1,11,-1
 471 700 l 1,12,-1
 289 325 l 1,4,-1
EndSplineSet
Position2: "'cpsp' Capital Spacing in Latin lookup 0 subtable" dx=5 dy=0 dh=10 dv=0
EndChar

StartChar: Ydieresis
Encoding: 376 376 198
Width: 491
Flags: W
LayerCount: 2
Fore
SplineSet
289 325 m 1,0,-1
 289 0 l 1,1,-1
 199 0 l 1,2,-1
 199 325 l 1,3,-1
 20 700 l 1,4,-1
 116 700 l 1,5,-1
 248 409 l 1,6,-1
 380 700 l 1,7,-1
 471 700 l 1,8,-1
 289 325 l 1,0,-1
307 735 m 1,9,-1
 307 815 l 1,10,-1
 392 815 l 1,11,-1
 392 735 l 1,12,-1
 307 735 l 1,9,-1
107 735 m 1,13,-1
 107 815 l 1,14,-1
 192 815 l 1,15,-1
 192 735 l 1,16,-1
 107 735 l 1,13,-1
EndSplineSet
Position2: "'cpsp' Capital Spacing in Latin lookup 0 subtable" dx=5 dy=0 dh=10 dv=0
EndChar

StartChar: Zcaron
Encoding: 381 381 199
Width: 436
Flags: W
LayerCount: 2
Fore
SplineSet
169 845 m 1,0,-1
 229 778 l 1,1,-1
 289 845 l 1,2,-1
 385 845 l 1,3,-1
 273 730 l 1,4,-1
 185 730 l 1,5,-1
 72 845 l 1,6,-1
 169 845 l 1,0,-1
134 74 m 1,7,-1
 381 74 l 1,8,-1
 381 0 l 1,9,-1
 45 0 l 1,10,-1
 45 88 l 1,11,-1
 303 626 l 1,12,-1
 68 626 l 1,13,-1
 68 700 l 1,14,-1
 391 700 l 1,15,-1
 391 612 l 1,16,-1
 134 74 l 1,7,-1
EndSplineSet
Position2: "'cpsp' Capital Spacing in Latin lookup 0 subtable" dx=5 dy=0 dh=10 dv=0
EndChar

StartChar: aacute
Encoding: 225 225 200
Width: 470
Flags: W
LayerCount: 2
Fore
SplineSet
375 0 m 2,0,1
 361 0 361 0 346 8 c 128,-1,2
 331 16 331 16 320 30 c 1,3,4
 309 16 309 16 294 8 c 128,-1,5
 279 0 279 0 259 0 c 2,6,-1
 190 0 l 2,7,8
 115 0 115 0 80 30 c 128,-1,9
 45 60 45 60 45 135 c 2,10,-1
 45 155 l 2,11,12
 45 230 45 230 80.5 270 c 128,-1,13
 116 310 116 310 191 310 c 2,14,-1
 295 310 l 1,15,-1
 295 360 l 2,16,17
 295 390 295 390 276.5 407.5 c 128,-1,18
 258 425 258 425 220 425 c 2,19,-1
 85 425 l 1,20,-1
 85 500 l 1,21,-1
 210 500 l 2,22,23
 297 500 297 500 338.5 463 c 128,-1,24
 380 426 380 426 380 340 c 2,25,-1
 380 100 l 2,26,27
 380 85 380 85 391 77.5 c 128,-1,28
 402 70 402 70 430 70 c 1,29,-1
 430 0 l 1,30,-1
 375 0 l 2,0,1
249 75 m 1,31,32
 266 75 266 75 275.5 80 c 128,-1,33
 285 85 285 85 289.5 92.5 c 128,-1,34
 294 100 294 100 294.5 109 c 128,-1,35
 295 118 295 118 295 125 c 2,36,-1
 295 235 l 1,37,-1
 190 235 l 2,38,39
 164 235 164 235 147 218 c 128,-1,40
 130 201 130 201 130 175 c 2,41,-1
 130 125 l 2,42,43
 130 75 130 75 180 75 c 2,44,-1
 249 75 l 1,45,-1
 249 75 l 1,31,32
174 580 m 1,46,-1
 278 715 l 1,47,-1
 387 715 l 1,48,-1
 260 580 l 1,49,-1
 174 580 l 1,46,-1
EndSplineSet
EndChar

StartChar: acircumflex
Encoding: 226 226 201
Width: 470
Flags: W
LayerCount: 2
Fore
SplineSet
375 0 m 2,0,1
 361 0 361 0 346 8 c 128,-1,2
 331 16 331 16 320 30 c 1,3,4
 309 16 309 16 294 8 c 128,-1,5
 279 0 279 0 259 0 c 2,6,-1
 190 0 l 2,7,8
 115 0 115 0 80 30 c 128,-1,9
 45 60 45 60 45 135 c 2,10,-1
 45 155 l 2,11,12
 45 230 45 230 80.5 270 c 128,-1,13
 116 310 116 310 191 310 c 2,14,-1
 295 310 l 1,15,-1
 295 360 l 2,16,17
 295 390 295 390 276.5 407.5 c 128,-1,18
 258 425 258 425 220 425 c 2,19,-1
 85 425 l 1,20,-1
 85 500 l 1,21,-1
 210 500 l 2,22,23
 297 500 297 500 338.5 463 c 128,-1,24
 380 426 380 426 380 340 c 2,25,-1
 380 100 l 2,26,27
 380 85 380 85 391 77.5 c 128,-1,28
 402 70 402 70 430 70 c 1,29,-1
 430 0 l 1,30,-1
 375 0 l 2,0,1
249 75 m 1,31,32
 266 75 266 75 275.5 80 c 128,-1,33
 285 85 285 85 289.5 92.5 c 128,-1,34
 294 100 294 100 294.5 109 c 128,-1,35
 295 118 295 118 295 125 c 2,36,-1
 295 235 l 1,37,-1
 190 235 l 2,38,39
 164 235 164 235 147 218 c 128,-1,40
 130 201 130 201 130 175 c 2,41,-1
 130 125 l 2,42,43
 130 75 130 75 180 75 c 2,44,-1
 249 75 l 1,45,-1
 249 75 l 1,31,32
280 580 m 1,46,-1
 220 655 l 1,47,-1
 160 580 l 1,48,-1
 64 580 l 1,49,-1
 176 715 l 1,50,-1
 264 715 l 1,51,-1
 377 580 l 1,52,-1
 280 580 l 1,46,-1
EndSplineSet
EndChar

StartChar: adieresis
Encoding: 228 228 202
Width: 470
Flags: W
LayerCount: 2
Fore
SplineSet
375 0 m 2,0,1
 361 0 361 0 346 8 c 128,-1,2
 331 16 331 16 320 30 c 1,3,4
 309 16 309 16 294 8 c 128,-1,5
 279 0 279 0 259 0 c 2,6,-1
 190 0 l 2,7,8
 115 0 115 0 80 30 c 128,-1,9
 45 60 45 60 45 135 c 2,10,-1
 45 155 l 2,11,12
 45 230 45 230 80.5 270 c 128,-1,13
 116 310 116 310 191 310 c 2,14,-1
 295 310 l 1,15,-1
 295 360 l 2,16,17
 295 390 295 390 276.5 407.5 c 128,-1,18
 258 425 258 425 220 425 c 2,19,-1
 85 425 l 1,20,-1
 85 500 l 1,21,-1
 210 500 l 2,22,23
 297 500 297 500 338.5 463 c 128,-1,24
 380 426 380 426 380 340 c 2,25,-1
 380 100 l 2,26,27
 380 85 380 85 391 77.5 c 128,-1,28
 402 70 402 70 430 70 c 1,29,-1
 430 0 l 1,30,-1
 375 0 l 2,0,1
249 75 m 1,31,32
 266 75 266 75 275.5 80 c 128,-1,33
 285 85 285 85 289.5 92.5 c 128,-1,34
 294 100 294 100 294.5 109 c 128,-1,35
 295 118 295 118 295 125 c 2,36,-1
 295 235 l 1,37,-1
 190 235 l 2,38,39
 164 235 164 235 147 218 c 128,-1,40
 130 201 130 201 130 175 c 2,41,-1
 130 125 l 2,42,43
 130 75 130 75 180 75 c 2,44,-1
 249 75 l 1,45,-1
 249 75 l 1,31,32
284 595 m 1,46,-1
 284 675 l 1,47,-1
 369 675 l 1,48,-1
 369 595 l 1,49,-1
 284 595 l 1,46,-1
84 595 m 1,50,-1
 84 675 l 1,51,-1
 169 675 l 1,52,-1
 169 595 l 1,53,-1
 84 595 l 1,50,-1
EndSplineSet
EndChar

StartChar: agrave
Encoding: 224 224 203
Width: 470
Flags: W
LayerCount: 2
Fore
SplineSet
375 0 m 2,0,1
 361 0 361 0 346 8 c 128,-1,2
 331 16 331 16 320 30 c 1,3,4
 309 16 309 16 294 8 c 128,-1,5
 279 0 279 0 259 0 c 2,6,-1
 190 0 l 2,7,8
 115 0 115 0 80 30 c 128,-1,9
 45 60 45 60 45 135 c 2,10,-1
 45 155 l 2,11,12
 45 230 45 230 80.5 270 c 128,-1,13
 116 310 116 310 191 310 c 2,14,-1
 295 310 l 1,15,-1
 295 360 l 2,16,17
 295 390 295 390 276.5 407.5 c 128,-1,18
 258 425 258 425 220 425 c 2,19,-1
 85 425 l 1,20,-1
 85 500 l 1,21,-1
 210 500 l 2,22,23
 297 500 297 500 338.5 463 c 128,-1,24
 380 426 380 426 380 340 c 2,25,-1
 380 100 l 2,26,27
 380 85 380 85 391 77.5 c 128,-1,28
 402 70 402 70 430 70 c 1,29,-1
 430 0 l 1,30,-1
 375 0 l 2,0,1
249 75 m 1,31,32
 266 75 266 75 275.5 80 c 128,-1,33
 285 85 285 85 289.5 92.5 c 128,-1,34
 294 100 294 100 294.5 109 c 128,-1,35
 295 118 295 118 295 125 c 2,36,-1
 295 235 l 1,37,-1
 190 235 l 2,38,39
 164 235 164 235 147 218 c 128,-1,40
 130 201 130 201 130 175 c 2,41,-1
 130 125 l 2,42,43
 130 75 130 75 180 75 c 2,44,-1
 249 75 l 1,45,-1
 249 75 l 1,31,32
240 580 m 1,46,-1
 113 715 l 1,47,-1
 222 715 l 1,48,-1
 326 580 l 1,49,-1
 240 580 l 1,46,-1
EndSplineSet
EndChar

StartChar: aring
Encoding: 229 229 204
Width: 470
Flags: W
LayerCount: 2
Fore
SplineSet
305 633 m 1,0,1
 305 590 305 590 279.5 569 c 128,-1,2
 254 548 254 548 216 548 c 2,3,-1
 210 548 l 2,4,5
 172 548 172 548 146.5 569 c 128,-1,6
 121 590 121 590 121 633 c 2,7,-1
 121 662 l 2,8,9
 121 706 121 706 146.5 726.5 c 128,-1,10
 172 747 172 747 210 747 c 2,11,-1
 216 747 l 2,12,13
 254 747 254 747 279.5 726.5 c 128,-1,14
 305 706 305 706 305 662 c 2,15,-1
 305 633 l 1,16,-1
 305 633 l 1,0,1
248 663 m 2,17,18
 248 678 248 678 241.5 689.5 c 128,-1,19
 235 701 235 701 216 701 c 2,20,-1
 210 701 l 2,21,22
 191 701 191 701 183.5 689.5 c 128,-1,23
 176 678 176 678 176 663 c 2,24,-1
 176 632 l 2,25,26
 176 617 176 617 183.5 605.5 c 128,-1,27
 191 594 191 594 210 594 c 2,28,-1
 216 594 l 2,29,30
 235 594 235 594 241.5 605.5 c 128,-1,31
 248 617 248 617 248 632 c 2,32,-1
 248 663 l 2,17,18
375 0 m 2,33,34
 361 0 361 0 346 8 c 128,-1,35
 331 16 331 16 320 30 c 1,36,37
 309 16 309 16 294 8 c 128,-1,38
 279 0 279 0 259 0 c 2,39,-1
 190 0 l 2,40,41
 115 0 115 0 80 30 c 128,-1,42
 45 60 45 60 45 135 c 2,43,-1
 45 155 l 2,44,45
 45 230 45 230 80.5 270 c 128,-1,46
 116 310 116 310 191 310 c 2,47,-1
 295 310 l 1,48,-1
 295 360 l 2,49,50
 295 390 295 390 276.5 407.5 c 128,-1,51
 258 425 258 425 220 425 c 2,52,-1
 85 425 l 1,53,-1
 85 500 l 1,54,-1
 210 500 l 2,55,56
 297 500 297 500 338.5 463 c 128,-1,57
 380 426 380 426 380 340 c 2,58,-1
 380 100 l 2,59,60
 380 85 380 85 391 77.5 c 128,-1,61
 402 70 402 70 430 70 c 1,62,-1
 430 0 l 1,63,-1
 375 0 l 2,33,34
249 75 m 1,64,65
 266 75 266 75 275.5 80 c 128,-1,66
 285 85 285 85 289.5 92.5 c 128,-1,67
 294 100 294 100 294.5 109 c 128,-1,68
 295 118 295 118 295 125 c 2,69,-1
 295 235 l 1,70,-1
 190 235 l 2,71,72
 164 235 164 235 147 218 c 128,-1,73
 130 201 130 201 130 175 c 2,74,-1
 130 125 l 2,75,76
 130 75 130 75 180 75 c 2,77,-1
 249 75 l 1,78,-1
 249 75 l 1,64,65
EndSplineSet
EndChar

StartChar: atilde
Encoding: 227 227 205
Width: 470
Flags: W
LayerCount: 2
Fore
SplineSet
375 0 m 2,0,1
 361 0 361 0 346 8 c 128,-1,2
 331 16 331 16 320 30 c 1,3,4
 309 16 309 16 294 8 c 128,-1,5
 279 0 279 0 259 0 c 2,6,-1
 190 0 l 2,7,8
 115 0 115 0 80 30 c 128,-1,9
 45 60 45 60 45 135 c 2,10,-1
 45 155 l 2,11,12
 45 230 45 230 80.5 270 c 128,-1,13
 116 310 116 310 191 310 c 2,14,-1
 295 310 l 1,15,-1
 295 360 l 2,16,17
 295 390 295 390 276.5 407.5 c 128,-1,18
 258 425 258 425 220 425 c 2,19,-1
 85 425 l 1,20,-1
 85 500 l 1,21,-1
 210 500 l 2,22,23
 297 500 297 500 338.5 463 c 128,-1,24
 380 426 380 426 380 340 c 2,25,-1
 380 100 l 2,26,27
 380 85 380 85 391 77.5 c 128,-1,28
 402 70 402 70 430 70 c 1,29,-1
 430 0 l 1,30,-1
 375 0 l 2,0,1
249 75 m 1,31,32
 266 75 266 75 275.5 80 c 128,-1,33
 285 85 285 85 289.5 92.5 c 128,-1,34
 294 100 294 100 294.5 109 c 128,-1,35
 295 118 295 118 295 125 c 2,36,-1
 295 235 l 1,37,-1
 190 235 l 2,38,39
 164 235 164 235 147 218 c 128,-1,40
 130 201 130 201 130 175 c 2,41,-1
 130 125 l 2,42,43
 130 75 130 75 180 75 c 2,44,-1
 249 75 l 1,45,-1
 249 75 l 1,31,32
85 667 m 1,46,47
 101 677 101 677 116 684 c 0,48,49
 129 690 129 690 142 695 c 128,-1,50
 155 700 155 700 162 700 c 2,51,-1
 177 700 l 2,52,53
 186 700 186 700 201 694 c 128,-1,54
 216 688 216 688 232.5 680.5 c 128,-1,55
 249 673 249 673 264 666.5 c 128,-1,56
 279 660 279 660 288 660 c 2,57,-1
 298 660 l 2,58,59
 303 660 303 660 314 665.5 c 128,-1,60
 325 671 325 671 336 678 c 0,61,62
 349 686 349 686 365 696 c 1,63,-1
 365 624 l 1,64,65
 350 615 350 615 337 608 c 0,66,67
 326 602 326 602 315 596.5 c 128,-1,68
 304 591 304 591 297 591 c 2,69,-1
 282 591 l 2,70,71
 277 591 277 591 262 597.5 c 128,-1,72
 247 604 247 604 229.5 611.5 c 128,-1,73
 212 619 212 619 196 625 c 128,-1,74
 180 631 180 631 172 631 c 2,75,-1
 162 631 l 2,76,77
 157 631 157 631 144.5 625.5 c 128,-1,78
 132 620 132 620 118 613 c 0,79,80
 102 605 102 605 85 595 c 1,81,-1
 85 667 l 1,46,47
EndSplineSet
EndChar

StartChar: ccedilla
Encoding: 231 231 206
Width: 399
Flags: W
LayerCount: 2
Fore
SplineSet
167 -200 m 1,0,-1
 167 -136 l 1,1,-1
 234 -136 l 2,2,3
 267 -136 267 -136 267 -105 c 0,4,5
 267 -88 267 -88 258 -82 c 128,-1,6
 249 -76 249 -76 232 -76 c 2,7,-1
 183 -76 l 1,8,-1
 183 4 l 1,9,10
 126 15 126 15 98 52 c 128,-1,11
 70 89 70 89 70 160 c 2,12,-1
 70 340 l 2,13,14
 70 426 70 426 111.5 463 c 128,-1,15
 153 500 153 500 240 500 c 2,16,-1
 349 500 l 1,17,-1
 349 425 l 1,18,-1
 230 425 l 2,19,20
 192 425 192 425 173.5 407.5 c 128,-1,21
 155 390 155 390 155 360 c 2,22,-1
 155 140 l 2,23,24
 155 110 155 110 173.5 92.5 c 128,-1,25
 192 75 192 75 230 75 c 2,26,-1
 349 75 l 1,27,-1
 349 0 l 1,28,-1
 253 0 l 1,29,-1
 253 -21 l 1,30,31
 297 -21 297 -21 318.5 -37 c 128,-1,32
 340 -53 340 -53 340 -105 c 0,33,34
 340 -138 340 -138 331 -157 c 128,-1,35
 322 -176 322 -176 309 -185.5 c 128,-1,36
 296 -195 296 -195 280.5 -197.5 c 128,-1,37
 265 -200 265 -200 252 -200 c 2,38,-1
 167 -200 l 1,0,-1
EndSplineSet
EndChar

StartChar: eacute
Encoding: 233 233 207
Width: 466
Flags: W
LayerCount: 2
Fore
SplineSet
240 0 m 2,0,1
 153 0 153 0 111.5 36.5 c 128,-1,2
 70 73 70 73 70 160 c 2,3,-1
 70 340 l 2,4,5
 70 426 70 426 107 463 c 128,-1,6
 144 500 144 500 230 500 c 2,7,-1
 257 500 l 2,8,9
 329 500 329 500 365 460 c 128,-1,10
 401 420 401 420 401 345 c 2,11,-1
 401 215 l 1,12,-1
 155 215 l 1,13,-1
 155 140 l 2,14,15
 155 110 155 110 173.5 92.5 c 128,-1,16
 192 75 192 75 230 75 c 2,17,-1
 369 75 l 1,18,-1
 369 0 l 1,19,-1
 240 0 l 2,0,1
155 290 m 1,20,-1
 318 290 l 1,21,-1
 318 365 l 2,22,23
 318 391 318 391 301 408 c 128,-1,24
 284 425 284 425 258 425 c 2,25,-1
 220 425 l 2,26,27
 182 425 182 425 168.5 407.5 c 128,-1,28
 155 390 155 390 155 360 c 2,29,-1
 155 290 l 1,20,-1
164 580 m 1,30,-1
 268 715 l 1,31,-1
 377 715 l 1,32,-1
 250 580 l 1,33,-1
 164 580 l 1,30,-1
EndSplineSet
EndChar

StartChar: ecircumflex
Encoding: 234 234 208
Width: 466
Flags: W
LayerCount: 2
Fore
SplineSet
240 0 m 2,0,1
 153 0 153 0 111.5 36.5 c 128,-1,2
 70 73 70 73 70 160 c 2,3,-1
 70 340 l 2,4,5
 70 426 70 426 107 463 c 128,-1,6
 144 500 144 500 230 500 c 2,7,-1
 257 500 l 2,8,9
 329 500 329 500 365 460 c 128,-1,10
 401 420 401 420 401 345 c 2,11,-1
 401 215 l 1,12,-1
 155 215 l 1,13,-1
 155 140 l 2,14,15
 155 110 155 110 173.5 92.5 c 128,-1,16
 192 75 192 75 230 75 c 2,17,-1
 369 75 l 1,18,-1
 369 0 l 1,19,-1
 240 0 l 2,0,1
155 290 m 1,20,-1
 318 290 l 1,21,-1
 318 365 l 2,22,23
 318 391 318 391 301 408 c 128,-1,24
 284 425 284 425 258 425 c 2,25,-1
 220 425 l 2,26,27
 182 425 182 425 168.5 407.5 c 128,-1,28
 155 390 155 390 155 360 c 2,29,-1
 155 290 l 1,20,-1
302 580 m 1,30,-1
 242 655 l 1,31,-1
 182 580 l 1,32,-1
 86 580 l 1,33,-1
 198 715 l 1,34,-1
 286 715 l 1,35,-1
 399 580 l 1,36,-1
 302 580 l 1,30,-1
EndSplineSet
EndChar

StartChar: edieresis
Encoding: 235 235 209
Width: 466
Flags: W
LayerCount: 2
Fore
SplineSet
240 0 m 2,0,1
 153 0 153 0 111.5 36.5 c 128,-1,2
 70 73 70 73 70 160 c 2,3,-1
 70 340 l 2,4,5
 70 426 70 426 107 463 c 128,-1,6
 144 500 144 500 230 500 c 2,7,-1
 257 500 l 2,8,9
 329 500 329 500 365 460 c 128,-1,10
 401 420 401 420 401 345 c 2,11,-1
 401 215 l 1,12,-1
 155 215 l 1,13,-1
 155 140 l 2,14,15
 155 110 155 110 173.5 92.5 c 128,-1,16
 192 75 192 75 230 75 c 2,17,-1
 369 75 l 1,18,-1
 369 0 l 1,19,-1
 240 0 l 2,0,1
155 290 m 1,20,-1
 318 290 l 1,21,-1
 318 365 l 2,22,23
 318 391 318 391 301 408 c 128,-1,24
 284 425 284 425 258 425 c 2,25,-1
 220 425 l 2,26,27
 182 425 182 425 168.5 407.5 c 128,-1,28
 155 390 155 390 155 360 c 2,29,-1
 155 290 l 1,20,-1
297 595 m 1,30,-1
 297 675 l 1,31,-1
 382 675 l 1,32,-1
 382 595 l 1,33,-1
 297 595 l 1,30,-1
97 595 m 1,34,-1
 97 675 l 1,35,-1
 182 675 l 1,36,-1
 182 595 l 1,37,-1
 97 595 l 1,34,-1
EndSplineSet
EndChar

StartChar: egrave
Encoding: 232 232 210
Width: 466
Flags: W
LayerCount: 2
Fore
SplineSet
240 0 m 2,0,1
 153 0 153 0 111.5 36.5 c 128,-1,2
 70 73 70 73 70 160 c 2,3,-1
 70 340 l 2,4,5
 70 426 70 426 107 463 c 128,-1,6
 144 500 144 500 230 500 c 2,7,-1
 257 500 l 2,8,9
 329 500 329 500 365 460 c 128,-1,10
 401 420 401 420 401 345 c 2,11,-1
 401 215 l 1,12,-1
 155 215 l 1,13,-1
 155 140 l 2,14,15
 155 110 155 110 173.5 92.5 c 128,-1,16
 192 75 192 75 230 75 c 2,17,-1
 369 75 l 1,18,-1
 369 0 l 1,19,-1
 240 0 l 2,0,1
155 290 m 1,20,-1
 318 290 l 1,21,-1
 318 365 l 2,22,23
 318 391 318 391 301 408 c 128,-1,24
 284 425 284 425 258 425 c 2,25,-1
 220 425 l 2,26,27
 182 425 182 425 168.5 407.5 c 128,-1,28
 155 390 155 390 155 360 c 2,29,-1
 155 290 l 1,20,-1
240 580 m 1,30,-1
 113 715 l 1,31,-1
 222 715 l 1,32,-1
 326 580 l 1,33,-1
 240 580 l 1,30,-1
EndSplineSet
EndChar

StartChar: iacute
Encoding: 237 237 211
Width: 245
Flags: W
LayerCount: 2
Fore
SplineSet
80 0 m 1,0,-1
 80 500 l 1,1,-1
 165 500 l 1,2,-1
 165 0 l 1,3,-1
 80 0 l 1,0,-1
55 580 m 1,4,-1
 159 715 l 1,5,-1
 268 715 l 1,6,-1
 141 580 l 1,7,-1
 55 580 l 1,4,-1
EndSplineSet
EndChar

StartChar: icircumflex
Encoding: 238 238 212
Width: 245
Flags: W
LayerCount: 2
Fore
SplineSet
80 0 m 1,0,-1
 80 500 l 1,1,-1
 165 500 l 1,2,-1
 165 0 l 1,3,-1
 80 0 l 1,0,-1
182 580 m 1,4,-1
 122 655 l 1,5,-1
 62 580 l 1,6,-1
 -34 580 l 1,7,-1
 78 715 l 1,8,-1
 166 715 l 1,9,-1
 279 580 l 1,10,-1
 182 580 l 1,4,-1
EndSplineSet
EndChar

StartChar: idieresis
Encoding: 239 239 213
Width: 245
Flags: W
LayerCount: 2
Fore
SplineSet
80 0 m 1,0,-1
 80 500 l 1,1,-1
 165 500 l 1,2,-1
 165 0 l 1,3,-1
 80 0 l 1,0,-1
180 595 m 1,4,-1
 180 675 l 1,5,-1
 265 675 l 1,6,-1
 265 595 l 1,7,-1
 180 595 l 1,4,-1
-20 595 m 1,8,-1
 -20 675 l 1,9,-1
 65 675 l 1,10,-1
 65 595 l 1,11,-1
 -20 595 l 1,8,-1
EndSplineSet
EndChar

StartChar: igrave
Encoding: 236 236 214
Width: 245
Flags: W
LayerCount: 2
Fore
SplineSet
80 0 m 1,0,-1
 80 500 l 1,1,-1
 165 500 l 1,2,-1
 165 0 l 1,3,-1
 80 0 l 1,0,-1
108 580 m 1,4,-1
 -19 715 l 1,5,-1
 80 715 l 1,6,-1
 194 580 l 1,7,-1
 108 580 l 1,4,-1
EndSplineSet
EndChar

StartChar: ntilde
Encoding: 241 241 215
Width: 501
Flags: W
LayerCount: 2
Fore
SplineSet
80 0 m 1,0,-1
 80 500 l 1,1,-1
 160 500 l 1,2,-1
 160 476 l 1,3,4
 177 489 177 489 197 494.5 c 128,-1,5
 217 500 217 500 240 500 c 2,6,-1
 266 500 l 2,7,8
 345 500 345 500 385.5 463.5 c 128,-1,9
 426 427 426 427 426 340 c 2,10,-1
 426 0 l 1,11,-1
 341 0 l 1,12,-1
 341 360 l 2,13,14
 341 390 341 390 323.5 407.5 c 128,-1,15
 306 425 306 425 276 425 c 2,16,-1
 230 425 l 2,17,18
 211 425 211 425 198.5 419 c 128,-1,19
 186 413 186 413 178.5 405 c 128,-1,20
 171 397 171 397 168 387.5 c 128,-1,21
 165 378 165 378 165 370 c 2,22,-1
 165 0 l 1,23,-1
 80 0 l 1,0,-1
130 667 m 1,24,25
 146 677 146 677 161 684 c 0,26,27
 174 690 174 690 187 695 c 128,-1,28
 200 700 200 700 207 700 c 2,29,-1
 222 700 l 2,30,31
 231 700 231 700 246 694 c 128,-1,32
 261 688 261 688 277.5 680.5 c 128,-1,33
 294 673 294 673 309 666.5 c 128,-1,34
 324 660 324 660 333 660 c 2,35,-1
 343 660 l 2,36,37
 348 660 348 660 359 665.5 c 128,-1,38
 370 671 370 671 381 678 c 0,39,40
 394 686 394 686 410 696 c 1,41,-1
 410 624 l 1,42,43
 395 615 395 615 382 608 c 0,44,45
 371 602 371 602 360 596.5 c 128,-1,46
 349 591 349 591 342 591 c 2,47,-1
 327 591 l 2,48,49
 322 591 322 591 307 597.5 c 128,-1,50
 292 604 292 604 274.5 611.5 c 128,-1,51
 257 619 257 619 241 625 c 128,-1,52
 225 631 225 631 217 631 c 2,53,-1
 207 631 l 2,54,55
 202 631 202 631 189.5 625.5 c 128,-1,56
 177 620 177 620 163 613 c 0,57,58
 147 605 147 605 130 595 c 1,59,-1
 130 667 l 1,24,25
EndSplineSet
EndChar

StartChar: oacute
Encoding: 243 243 216
Width: 493
Flags: W
LayerCount: 2
Fore
SplineSet
423 160 m 1,0,1
 423 74 423 74 381.5 37 c 128,-1,2
 340 0 340 0 253 0 c 2,3,-1
 240 0 l 2,4,5
 153 0 153 0 111.5 37 c 128,-1,6
 70 74 70 74 70 160 c 2,7,-1
 70 340 l 2,8,9
 70 426 70 426 111.5 463 c 128,-1,10
 153 500 153 500 240 500 c 2,11,-1
 253 500 l 2,12,13
 340 500 340 500 381.5 463 c 128,-1,14
 423 426 423 426 423 340 c 2,15,-1
 423 160 l 1,16,-1
 423 160 l 1,0,1
338 360 m 2,17,18
 338 390 338 390 319.5 407.5 c 128,-1,19
 301 425 301 425 263 425 c 2,20,-1
 230 425 l 2,21,22
 192 425 192 425 173.5 407.5 c 128,-1,23
 155 390 155 390 155 360 c 2,24,-1
 155 140 l 2,25,26
 155 110 155 110 173.5 92.5 c 128,-1,27
 192 75 192 75 230 75 c 2,28,-1
 263 75 l 2,29,30
 301 75 301 75 319.5 92.5 c 128,-1,31
 338 110 338 110 338 140 c 2,32,-1
 338 360 l 2,17,18
182 580 m 1,33,-1
 286 715 l 1,34,-1
 395 715 l 1,35,-1
 268 580 l 1,36,-1
 182 580 l 1,33,-1
EndSplineSet
EndChar

StartChar: ocircumflex
Encoding: 244 244 217
Width: 493
Flags: W
LayerCount: 2
Fore
SplineSet
423 160 m 1,0,1
 423 74 423 74 381.5 37 c 128,-1,2
 340 0 340 0 253 0 c 2,3,-1
 240 0 l 2,4,5
 153 0 153 0 111.5 37 c 128,-1,6
 70 74 70 74 70 160 c 2,7,-1
 70 340 l 2,8,9
 70 426 70 426 111.5 463 c 128,-1,10
 153 500 153 500 240 500 c 2,11,-1
 253 500 l 2,12,13
 340 500 340 500 381.5 463 c 128,-1,14
 423 426 423 426 423 340 c 2,15,-1
 423 160 l 1,16,-1
 423 160 l 1,0,1
338 360 m 2,17,18
 338 390 338 390 319.5 407.5 c 128,-1,19
 301 425 301 425 263 425 c 2,20,-1
 230 425 l 2,21,22
 192 425 192 425 173.5 407.5 c 128,-1,23
 155 390 155 390 155 360 c 2,24,-1
 155 140 l 2,25,26
 155 110 155 110 173.5 92.5 c 128,-1,27
 192 75 192 75 230 75 c 2,28,-1
 263 75 l 2,29,30
 301 75 301 75 319.5 92.5 c 128,-1,31
 338 110 338 110 338 140 c 2,32,-1
 338 360 l 2,17,18
308 580 m 1,33,-1
 248 655 l 1,34,-1
 188 580 l 1,35,-1
 92 580 l 1,36,-1
 204 715 l 1,37,-1
 292 715 l 1,38,-1
 405 580 l 1,39,-1
 308 580 l 1,33,-1
EndSplineSet
EndChar

StartChar: odieresis
Encoding: 246 246 218
Width: 493
Flags: W
LayerCount: 2
Fore
SplineSet
423 160 m 1,0,1
 423 74 423 74 381.5 37 c 128,-1,2
 340 0 340 0 253 0 c 2,3,-1
 240 0 l 2,4,5
 153 0 153 0 111.5 37 c 128,-1,6
 70 74 70 74 70 160 c 2,7,-1
 70 340 l 2,8,9
 70 426 70 426 111.5 463 c 128,-1,10
 153 500 153 500 240 500 c 2,11,-1
 253 500 l 2,12,13
 340 500 340 500 381.5 463 c 128,-1,14
 423 426 423 426 423 340 c 2,15,-1
 423 160 l 1,16,-1
 423 160 l 1,0,1
338 360 m 2,17,18
 338 390 338 390 319.5 407.5 c 128,-1,19
 301 425 301 425 263 425 c 2,20,-1
 230 425 l 2,21,22
 192 425 192 425 173.5 407.5 c 128,-1,23
 155 390 155 390 155 360 c 2,24,-1
 155 140 l 2,25,26
 155 110 155 110 173.5 92.5 c 128,-1,27
 192 75 192 75 230 75 c 2,28,-1
 263 75 l 2,29,30
 301 75 301 75 319.5 92.5 c 128,-1,31
 338 110 338 110 338 140 c 2,32,-1
 338 360 l 2,17,18
306 595 m 1,33,-1
 306 675 l 1,34,-1
 391 675 l 1,35,-1
 391 595 l 1,36,-1
 306 595 l 1,33,-1
106 595 m 1,37,-1
 106 675 l 1,38,-1
 191 675 l 1,39,-1
 191 595 l 1,40,-1
 106 595 l 1,37,-1
EndSplineSet
EndChar

StartChar: ograve
Encoding: 242 242 219
Width: 493
Flags: W
LayerCount: 2
Fore
SplineSet
423 160 m 1,0,1
 423 74 423 74 381.5 37 c 128,-1,2
 340 0 340 0 253 0 c 2,3,-1
 240 0 l 2,4,5
 153 0 153 0 111.5 37 c 128,-1,6
 70 74 70 74 70 160 c 2,7,-1
 70 340 l 2,8,9
 70 426 70 426 111.5 463 c 128,-1,10
 153 500 153 500 240 500 c 2,11,-1
 253 500 l 2,12,13
 340 500 340 500 381.5 463 c 128,-1,14
 423 426 423 426 423 340 c 2,15,-1
 423 160 l 1,16,-1
 423 160 l 1,0,1
338 360 m 2,17,18
 338 390 338 390 319.5 407.5 c 128,-1,19
 301 425 301 425 263 425 c 2,20,-1
 230 425 l 2,21,22
 192 425 192 425 173.5 407.5 c 128,-1,23
 155 390 155 390 155 360 c 2,24,-1
 155 140 l 2,25,26
 155 110 155 110 173.5 92.5 c 128,-1,27
 192 75 192 75 230 75 c 2,28,-1
 263 75 l 2,29,30
 301 75 301 75 319.5 92.5 c 128,-1,31
 338 110 338 110 338 140 c 2,32,-1
 338 360 l 2,17,18
255 580 m 1,33,-1
 128 715 l 1,34,-1
 237 715 l 1,35,-1
 341 580 l 1,36,-1
 255 580 l 1,33,-1
EndSplineSet
EndChar

StartChar: otilde
Encoding: 245 245 220
Width: 493
Flags: W
LayerCount: 2
Fore
SplineSet
423 160 m 1,0,1
 423 74 423 74 381.5 37 c 128,-1,2
 340 0 340 0 253 0 c 2,3,-1
 240 0 l 2,4,5
 153 0 153 0 111.5 37 c 128,-1,6
 70 74 70 74 70 160 c 2,7,-1
 70 340 l 2,8,9
 70 426 70 426 111.5 463 c 128,-1,10
 153 500 153 500 240 500 c 2,11,-1
 253 500 l 2,12,13
 340 500 340 500 381.5 463 c 128,-1,14
 423 426 423 426 423 340 c 2,15,-1
 423 160 l 1,16,-1
 423 160 l 1,0,1
338 360 m 2,17,18
 338 390 338 390 319.5 407.5 c 128,-1,19
 301 425 301 425 263 425 c 2,20,-1
 230 425 l 2,21,22
 192 425 192 425 173.5 407.5 c 128,-1,23
 155 390 155 390 155 360 c 2,24,-1
 155 140 l 2,25,26
 155 110 155 110 173.5 92.5 c 128,-1,27
 192 75 192 75 230 75 c 2,28,-1
 263 75 l 2,29,30
 301 75 301 75 319.5 92.5 c 128,-1,31
 338 110 338 110 338 140 c 2,32,-1
 338 360 l 2,17,18
105 667 m 1,33,34
 121 677 121 677 136 684 c 0,35,36
 149 690 149 690 162 695 c 128,-1,37
 175 700 175 700 182 700 c 2,38,-1
 197 700 l 2,39,40
 206 700 206 700 221 694 c 128,-1,41
 236 688 236 688 252.5 680.5 c 128,-1,42
 269 673 269 673 284 666.5 c 128,-1,43
 299 660 299 660 308 660 c 2,44,-1
 318 660 l 2,45,46
 323 660 323 660 334 665.5 c 128,-1,47
 345 671 345 671 356 678 c 0,48,49
 369 686 369 686 385 696 c 1,50,-1
 385 624 l 1,51,52
 370 615 370 615 357 608 c 0,53,54
 346 602 346 602 335 596.5 c 128,-1,55
 324 591 324 591 317 591 c 2,56,-1
 302 591 l 2,57,58
 297 591 297 591 282 597.5 c 128,-1,59
 267 604 267 604 249.5 611.5 c 128,-1,60
 232 619 232 619 216 625 c 128,-1,61
 200 631 200 631 192 631 c 2,62,-1
 182 631 l 2,63,64
 177 631 177 631 164.5 625.5 c 128,-1,65
 152 620 152 620 138 613 c 0,66,67
 122 605 122 605 105 595 c 1,68,-1
 105 667 l 1,33,34
EndSplineSet
EndChar

StartChar: scaron
Encoding: 353 353 221
Width: 399
Flags: W
LayerCount: 2
Fore
SplineSet
344 125 m 1,0,1
 344 60 344 60 305 30 c 128,-1,2
 266 0 266 0 194 0 c 2,3,-1
 65 0 l 1,4,-1
 65 75 l 1,5,-1
 204 75 l 2,6,7
 259 75 259 75 259 120 c 2,8,-1
 259 173 l 2,9,10
 259 218 259 218 216 218 c 2,11,-1
 199 218 l 2,12,13
 130 218 130 218 95 247.5 c 128,-1,14
 60 277 60 277 60 345 c 2,15,-1
 60 374 l 2,16,17
 60 444 60 444 99 472 c 128,-1,18
 138 500 138 500 210 500 c 2,19,-1
 324 500 l 1,20,-1
 324 425 l 1,21,-1
 200 425 l 2,22,23
 176 425 176 425 160.5 414 c 128,-1,24
 145 403 145 403 145 380 c 2,25,-1
 145 344 l 2,26,27
 145 320 145 320 159.5 309.5 c 128,-1,28
 174 299 174 299 193 299 c 2,29,-1
 207 299 l 2,30,31
 274 299 274 299 309 266.5 c 128,-1,32
 344 234 344 234 344 170 c 2,33,-1
 344 125 l 1,34,-1
 344 125 l 1,0,1
152 714 m 1,35,-1
 212 639 l 1,36,-1
 272 714 l 1,37,-1
 368 714 l 1,38,-1
 256 579 l 1,39,-1
 168 579 l 1,40,-1
 55 714 l 1,41,-1
 152 714 l 1,35,-1
EndSplineSet
EndChar

StartChar: uacute
Encoding: 250 250 222
Width: 489
Flags: W
LayerCount: 2
Fore
SplineSet
329 0 m 1,0,-1
 329 23 l 1,1,2
 296 0 296 0 249 0 c 2,3,-1
 235 0 l 2,4,5
 156 0 156 0 115.5 36.5 c 128,-1,6
 75 73 75 73 75 160 c 2,7,-1
 75 500 l 1,8,-1
 160 500 l 1,9,-1
 160 140 l 2,10,11
 160 110 160 110 177.5 92.5 c 128,-1,12
 195 75 195 75 225 75 c 2,13,-1
 259 75 l 2,14,15
 277 75 277 75 289 80 c 128,-1,16
 301 85 301 85 308.5 93 c 128,-1,17
 316 101 316 101 319.5 110 c 128,-1,18
 323 119 323 119 324 127 c 1,19,-1
 324 500 l 1,20,-1
 409 500 l 1,21,-1
 409 0 l 1,22,-1
 329 0 l 1,0,-1
164 580 m 1,23,-1
 268 715 l 1,24,-1
 377 715 l 1,25,-1
 250 580 l 1,26,-1
 164 580 l 1,23,-1
EndSplineSet
EndChar

StartChar: ucircumflex
Encoding: 251 251 223
Width: 489
Flags: W
LayerCount: 2
Fore
SplineSet
329 0 m 1,0,-1
 329 23 l 1,1,2
 296 0 296 0 249 0 c 2,3,-1
 235 0 l 2,4,5
 156 0 156 0 115.5 36.5 c 128,-1,6
 75 73 75 73 75 160 c 2,7,-1
 75 500 l 1,8,-1
 160 500 l 1,9,-1
 160 140 l 2,10,11
 160 110 160 110 177.5 92.5 c 128,-1,12
 195 75 195 75 225 75 c 2,13,-1
 259 75 l 2,14,15
 277 75 277 75 289 80 c 128,-1,16
 301 85 301 85 308.5 93 c 128,-1,17
 316 101 316 101 319.5 110 c 128,-1,18
 323 119 323 119 324 127 c 1,19,-1
 324 500 l 1,20,-1
 409 500 l 1,21,-1
 409 0 l 1,22,-1
 329 0 l 1,0,-1
303 580 m 1,23,-1
 243 655 l 1,24,-1
 183 580 l 1,25,-1
 87 580 l 1,26,-1
 199 715 l 1,27,-1
 287 715 l 1,28,-1
 400 580 l 1,29,-1
 303 580 l 1,23,-1
EndSplineSet
EndChar

StartChar: udieresis
Encoding: 252 252 224
Width: 489
Flags: W
LayerCount: 2
Fore
SplineSet
329 0 m 1,0,-1
 329 23 l 1,1,2
 296 0 296 0 249 0 c 2,3,-1
 235 0 l 2,4,5
 156 0 156 0 115.5 36.5 c 128,-1,6
 75 73 75 73 75 160 c 2,7,-1
 75 500 l 1,8,-1
 160 500 l 1,9,-1
 160 140 l 2,10,11
 160 110 160 110 177.5 92.5 c 128,-1,12
 195 75 195 75 225 75 c 2,13,-1
 259 75 l 2,14,15
 277 75 277 75 289 80 c 128,-1,16
 301 85 301 85 308.5 93 c 128,-1,17
 316 101 316 101 319.5 110 c 128,-1,18
 323 119 323 119 324 127 c 1,19,-1
 324 500 l 1,20,-1
 409 500 l 1,21,-1
 409 0 l 1,22,-1
 329 0 l 1,0,-1
296 595 m 1,23,-1
 296 675 l 1,24,-1
 381 675 l 1,25,-1
 381 595 l 1,26,-1
 296 595 l 1,23,-1
96 595 m 1,27,-1
 96 675 l 1,28,-1
 181 675 l 1,29,-1
 181 595 l 1,30,-1
 96 595 l 1,27,-1
EndSplineSet
EndChar

StartChar: ugrave
Encoding: 249 249 225
Width: 489
Flags: W
LayerCount: 2
Fore
SplineSet
329 0 m 1,0,-1
 329 23 l 1,1,2
 296 0 296 0 249 0 c 2,3,-1
 235 0 l 2,4,5
 156 0 156 0 115.5 36.5 c 128,-1,6
 75 73 75 73 75 160 c 2,7,-1
 75 500 l 1,8,-1
 160 500 l 1,9,-1
 160 140 l 2,10,11
 160 110 160 110 177.5 92.5 c 128,-1,12
 195 75 195 75 225 75 c 2,13,-1
 259 75 l 2,14,15
 277 75 277 75 289 80 c 128,-1,16
 301 85 301 85 308.5 93 c 128,-1,17
 316 101 316 101 319.5 110 c 128,-1,18
 323 119 323 119 324 127 c 1,19,-1
 324 500 l 1,20,-1
 409 500 l 1,21,-1
 409 0 l 1,22,-1
 329 0 l 1,0,-1
246 580 m 1,23,-1
 119 715 l 1,24,-1
 228 715 l 1,25,-1
 332 580 l 1,26,-1
 246 580 l 1,23,-1
EndSplineSet
EndChar

StartChar: yacute
Encoding: 253 253 226
Width: 463
Flags: W
LayerCount: 2
Fore
SplineSet
283 -44 m 2,0,1
 275 -73 275 -73 266 -97.5 c 128,-1,2
 257 -122 257 -122 243.5 -139 c 128,-1,3
 230 -156 230 -156 209.5 -165.5 c 128,-1,4
 189 -175 189 -175 159 -175 c 0,5,6
 143 -175 143 -175 127 -173 c 128,-1,7
 111 -171 111 -171 102 -169 c 1,8,-1
 102 -96 l 1,9,10
 113 -98 113 -98 126 -99 c 128,-1,11
 139 -100 139 -100 154 -100 c 0,12,13
 182 -100 182 -100 194 -55 c 1,14,-1
 210 0 l 1,15,-1
 190 0 l 1,16,-1
 35 500 l 1,17,-1
 127 500 l 1,18,-1
 243 87 l 1,19,-1
 341 500 l 1,20,-1
 428 500 l 1,21,-1
 283 -44 l 2,0,1
193 580 m 1,22,-1
 297 715 l 1,23,-1
 406 715 l 1,24,-1
 279 580 l 1,25,-1
 193 580 l 1,22,-1
EndSplineSet
EndChar

StartChar: ydieresis
Encoding: 255 255 227
Width: 463
Flags: W
LayerCount: 2
Fore
SplineSet
283 -44 m 2,0,1
 275 -73 275 -73 266 -97.5 c 128,-1,2
 257 -122 257 -122 243.5 -139 c 128,-1,3
 230 -156 230 -156 209.5 -165.5 c 128,-1,4
 189 -175 189 -175 159 -175 c 0,5,6
 143 -175 143 -175 127 -173 c 128,-1,7
 111 -171 111 -171 102 -169 c 1,8,-1
 102 -96 l 1,9,10
 113 -98 113 -98 126 -99 c 128,-1,11
 139 -100 139 -100 154 -100 c 0,12,13
 182 -100 182 -100 194 -55 c 1,14,-1
 210 0 l 1,15,-1
 190 0 l 1,16,-1
 35 500 l 1,17,-1
 127 500 l 1,18,-1
 243 87 l 1,19,-1
 341 500 l 1,20,-1
 428 500 l 1,21,-1
 283 -44 l 2,0,1
290 595 m 1,22,-1
 290 675 l 1,23,-1
 375 675 l 1,24,-1
 375 595 l 1,25,-1
 290 595 l 1,22,-1
90 595 m 1,26,-1
 90 675 l 1,27,-1
 175 675 l 1,28,-1
 175 595 l 1,29,-1
 90 595 l 1,26,-1
EndSplineSet
EndChar

StartChar: zcaron
Encoding: 382 382 228
Width: 403
Flags: W
LayerCount: 2
Fore
SplineSet
137 74 m 1,0,-1
 343 74 l 1,1,-1
 343 0 l 1,2,-1
 45 0 l 1,3,-1
 45 80 l 1,4,-1
 262 426 l 1,5,-1
 65 426 l 1,6,-1
 65 500 l 1,7,-1
 353 500 l 1,8,-1
 353 411 l 1,9,-1
 137 74 l 1,0,-1
157 714 m 1,10,-1
 217 639 l 1,11,-1
 277 714 l 1,12,-1
 373 714 l 1,13,-1
 261 579 l 1,14,-1
 173 579 l 1,15,-1
 60 714 l 1,16,-1
 157 714 l 1,10,-1
EndSplineSet
EndChar

StartChar: quotedbl
Encoding: 34 34 229
Width: 360
Flags: W
LayerCount: 2
Fore
SplineSet
130 453 m 1,0,-1
 75 453 l 1,1,-1
 55 610 l 1,2,-1
 55 700 l 1,3,-1
 150 700 l 1,4,-1
 150 610 l 1,5,-1
 130 453 l 1,0,-1
285 453 m 1,6,-1
 230 453 l 1,7,-1
 210 610 l 1,8,-1
 210 700 l 1,9,-1
 305 700 l 1,10,-1
 305 610 l 1,11,-1
 285 453 l 1,6,-1
EndSplineSet
EndChar

StartChar: exclam
Encoding: 33 33 230
Width: 250
Flags: W
LayerCount: 2
Fore
SplineSet
75 0 m 1,0,-1
 75 100 l 1,1,-1
 175 100 l 1,2,-1
 175 0 l 1,3,-1
 75 0 l 1,0,-1
82 208 m 1,4,-1
 82 700 l 1,5,-1
 167 700 l 1,6,-1
 167 208 l 1,7,-1
 82 208 l 1,4,-1
EndSplineSet
EndChar

StartChar: uni00AD
Encoding: 173 173 232
Width: 495
Flags: W
LayerCount: 2
Fore
SplineSet
85 275 m 1,0,-1
 85 350 l 1,1,-1
 410 350 l 1,2,-1
 410 275 l 1,3,-1
 85 275 l 1,0,-1
EndSplineSet
EndChar

StartChar: uni02C9
Encoding: 713 713 233
Width: 325
Flags: W
LayerCount: 2
Fore
SplineSet
35 605 m 1,0,-1
 35 675 l 1,1,-1
 290 675 l 1,2,-1
 290 605 l 1,3,-1
 35 605 l 1,0,-1
EndSplineSet
EndChar

StartChar: uni03BC
Encoding: 956 956 234
Width: 494
Flags: W
LayerCount: 2
Fore
SplineSet
80 -170 m 1,0,-1
 80 500 l 1,1,-1
 165 500 l 1,2,-1
 165 140 l 2,3,4
 165 110 165 110 182.5 92.5 c 128,-1,5
 200 75 200 75 230 75 c 2,6,-1
 264 75 l 2,7,8
 283 75 283 75 295.5 81 c 128,-1,9
 308 87 308 87 315.5 95 c 128,-1,10
 323 103 323 103 326 113 c 128,-1,11
 329 123 329 123 329 130 c 2,12,-1
 329 500 l 1,13,-1
 414 500 l 1,14,-1
 414 0 l 1,15,-1
 334 0 l 1,16,-1
 334 23 l 1,17,18
 301 0 301 0 254 0 c 2,19,-1
 240 0 l 2,20,21
 195 0 195 0 165 10 c 1,22,-1
 165 -170 l 1,23,-1
 80 -170 l 1,0,-1
EndSplineSet
EndChar

StartChar: pi
Encoding: 960 960 235
Width: 554
Flags: W
LayerCount: 2
Fore
SplineSet
124 0 m 1,0,-1
 124 427 l 1,1,-1
 45 427 l 1,2,-1
 45 500 l 1,3,-1
 509 500 l 1,4,-1
 509 427 l 1,5,-1
 419 427 l 1,6,-1
 419 105 l 2,7,8
 419 89 419 89 426.5 82 c 128,-1,9
 434 75 434 75 454 75 c 2,10,-1
 469 75 l 1,11,-1
 469 0 l 1,12,-1
 419 0 l 2,13,14
 404 0 404 0 389 5 c 128,-1,15
 374 10 374 10 362 21.5 c 128,-1,16
 350 33 350 33 342 52.5 c 128,-1,17
 334 72 334 72 334 100 c 2,18,-1
 334 427 l 1,19,-1
 209 427 l 1,20,-1
 209 0 l 1,21,-1
 124 0 l 1,0,-1
EndSplineSet
EndChar

StartChar: Euro
Encoding: 8364 8364 236
Width: 470
Flags: W
LayerCount: 2
Fore
SplineSet
381 407 m 1,0,-1
 212 407 l 1,1,-1
 212 310 l 1,2,-1
 381 310 l 1,3,-1
 381 237 l 1,4,-1
 212 237 l 1,5,-1
 212 151 l 2,6,7
 212 121 212 121 234.5 98.5 c 128,-1,8
 257 76 257 76 295 76 c 2,9,-1
 417 76 l 1,10,-1
 417 0 l 1,11,-1
 305 0 l 2,12,13
 218 0 218 0 171.5 42 c 128,-1,14
 125 84 125 84 125 170 c 2,15,-1
 125 237 l 1,16,-1
 55 237 l 1,17,-1
 55 310 l 1,18,-1
 125 310 l 1,19,-1
 125 407 l 1,20,-1
 55 407 l 1,21,-1
 55 480 l 1,22,-1
 125 480 l 1,23,-1
 125 530 l 2,24,25
 125 616 125 616 171.5 658 c 128,-1,26
 218 700 218 700 305 700 c 2,27,-1
 417 700 l 1,28,-1
 417 624 l 1,29,-1
 295 624 l 2,30,31
 257 624 257 624 234.5 601.5 c 128,-1,32
 212 579 212 579 212 549 c 2,33,-1
 212 480 l 1,34,-1
 381 480 l 1,35,-1
 381 407 l 1,0,-1
EndSplineSet
EndChar

StartChar: Omega
Encoding: 8486 8486 237
Width: 548
Flags: W
LayerCount: 2
Fore
SplineSet
317 0 m 1,0,-1
 317 76 l 1,1,2
 345 76 345 76 363.5 98.5 c 128,-1,3
 382 121 382 121 382 151 c 2,4,-1
 382 549 l 2,5,6
 382 579 382 579 359.5 601.5 c 128,-1,7
 337 624 337 624 299 624 c 2,8,-1
 245 624 l 2,9,10
 207 624 207 624 184.5 601.5 c 128,-1,11
 162 579 162 579 162 549 c 2,12,-1
 162 151 l 2,13,14
 162 121 162 121 182.5 98.5 c 128,-1,15
 203 76 203 76 233 76 c 1,16,-1
 233 0 l 1,17,-1
 50 0 l 1,18,-1
 50 76 l 1,19,-1
 99 76 l 1,20,21
 88 96 88 96 81.5 120 c 128,-1,22
 75 144 75 144 75 170 c 2,23,-1
 75 530 l 2,24,25
 75 616 75 616 121.5 658 c 128,-1,26
 168 700 168 700 255 700 c 2,27,-1
 289 700 l 2,28,29
 376 700 376 700 422.5 658 c 128,-1,30
 469 616 469 616 469 530 c 2,31,-1
 469 170 l 2,32,33
 469 117 469 117 446 76 c 1,34,-1
 500 76 l 1,35,-1
 500 0 l 1,36,-1
 317 0 l 1,0,-1
EndSplineSet
Position2: "'cpsp' Capital Spacing in Latin lookup 0 subtable" dx=5 dy=0 dh=10 dv=0
EndChar

StartChar: partialdiff
Encoding: 8706 8706 238
Width: 470
Flags: W
LayerCount: 2
Fore
SplineSet
65 280 m 2,0,1
 65 366 65 366 106.5 403 c 128,-1,2
 148 440 148 440 233 440 c 2,3,-1
 321 440 l 1,4,-1
 321 549 l 2,5,6
 321 579 321 579 298.5 601.5 c 128,-1,7
 276 624 276 624 238 624 c 2,8,-1
 113 624 l 1,9,-1
 113 700 l 1,10,-1
 228 700 l 2,11,12
 315 700 315 700 360.5 658 c 128,-1,13
 406 616 406 616 406 530 c 2,14,-1
 406 170 l 2,15,16
 406 127 406 127 393.5 95 c 128,-1,17
 381 63 381 63 359 42 c 128,-1,18
 337 21 337 21 308.5 10.5 c 128,-1,19
 280 0 280 0 248 0 c 2,20,-1
 223 0 l 2,21,22
 191 0 191 0 162.5 10.5 c 128,-1,23
 134 21 134 21 112 42 c 128,-1,24
 90 63 90 63 77.5 95 c 128,-1,25
 65 127 65 127 65 170 c 2,26,-1
 65 280 l 2,0,1
223 365 m 2,27,28
 185 365 185 365 167.5 347 c 128,-1,29
 150 329 150 329 150 299 c 2,30,-1
 150 151 l 2,31,32
 150 121 150 121 170 98 c 128,-1,33
 190 75 190 75 228 75 c 2,34,-1
 243 75 l 2,35,36
 281 75 281 75 301 98 c 128,-1,37
 321 121 321 121 321 151 c 2,38,-1
 321 365 l 1,39,-1
 223 365 l 2,27,28
EndSplineSet
EndChar

StartChar: Delta
Encoding: 8710 8710 239
Width: 510
Flags: W
LayerCount: 2
Fore
SplineSet
25 0 m 1,0,-1
 203 700 l 1,1,-1
 314 700 l 1,2,-1
 485 0 l 1,3,-1
 25 0 l 1,0,-1
258 625 m 1,4,-1
 133 75 l 1,5,-1
 377 75 l 1,6,-1
 258 625 l 1,4,-1
EndSplineSet
Position2: "'cpsp' Capital Spacing in Latin lookup 0 subtable" dx=5 dy=0 dh=10 dv=0
EndChar

StartChar: product
Encoding: 8719 8719 240
Width: 564
Flags: W
LayerCount: 2
Fore
SplineSet
124 0 m 1,0,-1
 124 625 l 1,1,-1
 45 625 l 1,2,-1
 45 700 l 1,3,-1
 519 700 l 1,4,-1
 519 625 l 1,5,-1
 428 625 l 1,6,-1
 428 105 l 2,7,8
 428 89 428 89 434.5 82 c 128,-1,9
 441 75 441 75 461 75 c 2,10,-1
 476 75 l 1,11,-1
 476 0 l 1,12,-1
 426 0 l 2,13,14
 411 0 411 0 396 5 c 128,-1,15
 381 10 381 10 369 21.5 c 128,-1,16
 357 33 357 33 349 52.5 c 128,-1,17
 341 72 341 72 341 100 c 2,18,-1
 341 625 l 1,19,-1
 211 625 l 1,20,-1
 211 0 l 1,21,-1
 124 0 l 1,0,-1
EndSplineSet
EndChar

StartChar: summation
Encoding: 8721 8721 241
Width: 470
Flags: W
LayerCount: 2
Fore
SplineSet
40 -170 m 1,0,-1
 40 -76 l 1,1,-1
 208 267 l 1,2,-1
 53 605 l 1,3,-1
 53 700 l 1,4,-1
 414 700 l 1,5,-1
 414 625 l 1,6,-1
 141 625 l 1,7,-1
 303 267 l 1,8,-1
 126 -96 l 1,9,-1
 425 -96 l 1,10,-1
 425 -170 l 1,11,-1
 40 -170 l 1,0,-1
EndSplineSet
EndChar

StartChar: uni2215
Encoding: 8725 8725 242
Width: 230
Flags: W
LayerCount: 2
Fore
SplineSet
-5 -100 m 1,0,-1
 -85 -100 l 1,1,-1
 235 810 l 1,2,-1
 315 810 l 1,3,-1
 -5 -100 l 1,0,-1
EndSplineSet
EndChar

StartChar: uni2219
Encoding: 8729 8729 243
Width: 230
Flags: W
LayerCount: 2
Fore
SplineSet
65 260 m 1,0,-1
 65 360 l 1,1,-1
 165 360 l 1,2,-1
 165 260 l 1,3,-1
 65 260 l 1,0,-1
EndSplineSet
EndChar

StartChar: radical
Encoding: 8730 8730 244
Width: 555
Flags: W
LayerCount: 2
Fore
SplineSet
457 745 m 1,0,-1
 282 0 l 1,1,-1
 154 0 l 1,2,-1
 35 392 l 1,3,-1
 124 392 l 1,4,-1
 216 61 l 1,5,-1
 393 820 l 1,6,-1
 570 820 l 1,7,-1
 570 745 l 1,8,-1
 457 745 l 1,0,-1
EndSplineSet
EndChar

StartChar: infinity
Encoding: 8734 8734 245
Width: 730
Flags: W
LayerCount: 2
Fore
SplineSet
365 194 m 1,0,1
 328 141 328 141 249 141 c 2,2,-1
 199 141 l 2,3,4
 116 141 116 141 82 182 c 128,-1,5
 48 223 48 223 48 298 c 2,6,-1
 48 318 l 2,7,8
 48 393 48 393 82 434 c 128,-1,9
 116 475 116 475 199 475 c 2,10,-1
 249 475 l 2,11,12
 330 475 330 475 367 422 c 1,13,14
 404 475 404 475 481 475 c 2,15,-1
 531 475 l 2,16,17
 614 475 614 475 648 434 c 128,-1,18
 682 393 682 393 682 318 c 2,19,-1
 682 303 l 2,20,21
 682 266 682 266 674 236 c 128,-1,22
 666 206 666 206 648 185 c 128,-1,23
 630 164 630 164 601 152.5 c 128,-1,24
 572 141 572 141 531 141 c 2,25,-1
 481 141 l 2,26,27
 402 141 402 141 365 194 c 1,0,1
598 338 m 2,28,29
 598 372 598 372 580 386.5 c 128,-1,30
 562 401 562 401 526 401 c 2,31,-1
 479 401 l 2,32,33
 447 401 447 401 426.5 382.5 c 128,-1,34
 406 364 406 364 406 336 c 2,35,-1
 406 286 l 2,36,37
 406 256 406 256 425.5 235.5 c 128,-1,38
 445 215 445 215 479 215 c 2,39,-1
 526 215 l 2,40,41
 564 215 564 215 581 231.5 c 128,-1,42
 598 248 598 248 598 286 c 2,43,-1
 598 338 l 2,28,29
132 278 m 2,44,45
 132 244 132 244 150 229.5 c 128,-1,46
 168 215 168 215 204 215 c 2,47,-1
 251 215 l 2,48,49
 283 215 283 215 303.5 233.5 c 128,-1,50
 324 252 324 252 324 280 c 2,51,-1
 324 330 l 2,52,53
 324 360 324 360 304.5 380.5 c 128,-1,54
 285 401 285 401 251 401 c 2,55,-1
 204 401 l 2,56,57
 166 401 166 401 149 384.5 c 128,-1,58
 132 368 132 368 132 330 c 2,59,-1
 132 278 l 2,44,45
EndSplineSet
EndChar

StartChar: uni2224
Encoding: 8740 8740 246
Width: 230
Flags: W
LayerCount: 2
Fore
SplineSet
65 260 m 1,0,-1
 65 360 l 1,1,-1
 165 360 l 1,2,-1
 165 260 l 1,3,-1
 65 260 l 1,0,-1
EndSplineSet
EndChar

StartChar: logicaland
Encoding: 8743 8743 247
Width: 230
Flags: W
LayerCount: 2
Fore
SplineSet
65 260 m 1,0,-1
 65 360 l 1,1,-1
 165 360 l 1,2,-1
 165 260 l 1,3,-1
 65 260 l 1,0,-1
EndSplineSet
EndChar

StartChar: integral
Encoding: 8747 8747 248
Width: 325
Flags: W
LayerCount: 2
Fore
SplineSet
81 -160 m 2,0,1
 98 -160 98 -160 107 -151.5 c 128,-1,2
 116 -143 116 -143 116 -130 c 2,3,-1
 116 710 l 2,4,5
 116 763 116 763 145.5 791.5 c 128,-1,6
 175 820 175 820 220 820 c 2,7,-1
 332 820 l 1,8,-1
 332 745 l 1,9,-1
 236 745 l 2,10,11
 219 745 219 745 210 736.5 c 128,-1,12
 201 728 201 728 201 715 c 2,13,-1
 201 -125 l 2,14,15
 201 -178 201 -178 171.5 -206.5 c 128,-1,16
 142 -235 142 -235 97 -235 c 2,17,-1
 -10 -235 l 1,18,-1
 -10 -160 l 1,19,-1
 81 -160 l 2,0,1
EndSplineSet
EndChar

StartChar: approxequal
Encoding: 8776 8776 249
Width: 510
Flags: W
LayerCount: 2
Fore
SplineSet
85 423 m 1,0,1
 107 433 107 433 126 441 c 0,2,3
 143 448 143 448 159 453 c 128,-1,4
 175 458 175 458 182 458 c 2,5,-1
 197 458 l 2,6,7
 206 458 206 458 224.5 452 c 128,-1,8
 243 446 243 446 263 438.5 c 128,-1,9
 283 431 283 431 301 424.5 c 128,-1,10
 319 418 319 418 328 418 c 2,11,-1
 338 418 l 2,12,13
 343 418 343 418 357 423.5 c 128,-1,14
 371 429 371 429 386 436 c 0,15,16
 404 444 404 444 425 454 c 1,17,-1
 425 374 l 1,18,19
 405 365 405 365 387 357 c 0,20,21
 372 350 372 350 358 344.5 c 128,-1,22
 344 339 344 339 337 339 c 2,23,-1
 322 339 l 2,24,25
 317 339 317 339 299 345.5 c 128,-1,26
 281 352 281 352 259.5 359.5 c 128,-1,27
 238 367 238 367 219 373 c 128,-1,28
 200 379 200 379 192 379 c 2,29,-1
 182 379 l 2,30,31
 177 379 177 379 161 373.5 c 128,-1,32
 145 368 145 368 128 361 c 0,33,34
 108 353 108 353 85 343 c 1,35,-1
 85 423 l 1,0,1
85 254 m 1,36,37
 107 264 107 264 126 272 c 0,38,39
 143 279 143 279 159 284 c 128,-1,40
 175 289 175 289 182 289 c 2,41,-1
 197 289 l 2,42,43
 206 289 206 289 224.5 283 c 128,-1,44
 243 277 243 277 263 269.5 c 128,-1,45
 283 262 283 262 301 255.5 c 128,-1,46
 319 249 319 249 328 249 c 2,47,-1
 338 249 l 2,48,49
 343 249 343 249 357 254.5 c 128,-1,50
 371 260 371 260 386 267 c 0,51,52
 404 275 404 275 425 285 c 1,53,-1
 425 205 l 1,54,55
 405 196 405 196 387 188 c 0,56,57
 372 181 372 181 358 175.5 c 128,-1,58
 344 170 344 170 337 170 c 2,59,-1
 322 170 l 2,60,61
 317 170 317 170 299 176.5 c 128,-1,62
 281 183 281 183 259.5 190.5 c 128,-1,63
 238 198 238 198 219 204 c 128,-1,64
 200 210 200 210 192 210 c 2,65,-1
 182 210 l 2,66,67
 177 210 177 210 161 204.5 c 128,-1,68
 145 199 145 199 128 192 c 0,69,70
 108 184 108 184 85 174 c 1,71,-1
 85 254 l 1,36,37
EndSplineSet
EndChar

StartChar: notequal
Encoding: 8800 8800 250
Width: 550
Flags: W
LayerCount: 2
Fore
SplineSet
354 375 m 1,0,-1
 276 250 l 1,1,-1
 465 250 l 1,2,-1
 465 175 l 1,3,-1
 230 175 l 1,4,-1
 165 70 l 1,5,-1
 85 70 l 1,6,-1
 150 175 l 1,7,-1
 85 175 l 1,8,-1
 85 250 l 1,9,-1
 196 250 l 1,10,-1
 274 375 l 1,11,-1
 85 375 l 1,12,-1
 85 450 l 1,13,-1
 320 450 l 1,14,-1
 385 555 l 1,15,-1
 465 555 l 1,16,-1
 400 450 l 1,17,-1
 465 450 l 1,18,-1
 465 375 l 1,19,-1
 354 375 l 1,0,-1
EndSplineSet
EndChar

StartChar: lessequal
Encoding: 8804 8804 251
Width: 550
Flags: W
LayerCount: 2
Fore
SplineSet
85 280 m 1,0,-1
 85 385 l 1,1,-1
 465 564 l 1,2,-1
 465 472 l 1,3,-1
 157 336 l 1,4,-1
 465 219 l 1,5,-1
 465 125 l 1,6,-1
 85 280 l 1,0,-1
85 0 m 1,7,-1
 85 75 l 1,8,-1
 465 75 l 1,9,-1
 465 0 l 1,10,-1
 85 0 l 1,7,-1
EndSplineSet
EndChar

StartChar: greaterequal
Encoding: 8805 8805 252
Width: 550
Flags: W
LayerCount: 2
Fore
SplineSet
85 125 m 1,0,-1
 85 219 l 1,1,-1
 393 336 l 1,2,-1
 85 472 l 1,3,-1
 85 564 l 1,4,-1
 465 385 l 1,5,-1
 465 280 l 1,6,-1
 85 125 l 1,0,-1
85 0 m 1,7,-1
 85 75 l 1,8,-1
 465 75 l 1,9,-1
 465 0 l 1,10,-1
 85 0 l 1,7,-1
EndSplineSet
EndChar

StartChar: dotmath
Encoding: 8901 8901 253
Width: 230
Flags: W
LayerCount: 2
Fore
SplineSet
65 260 m 1,0,-1
 65 360 l 1,1,-1
 165 360 l 1,2,-1
 165 260 l 1,3,-1
 65 260 l 1,0,-1
EndSplineSet
EndChar

StartChar: uni25AF
Encoding: 9647 9647 254
Width: 502
Flags: W
LayerCount: 2
Fore
SplineSet
65 700 m 1,0,-1
 437 700 l 1,1,-1
 437 0 l 1,2,-1
 65 0 l 1,3,-1
 65 700 l 1,0,-1
362 72 m 1,4,-1
 362 628 l 1,5,-1
 140 628 l 1,6,-1
 140 72 l 1,7,-1
 362 72 l 1,4,-1
EndSplineSet
EndChar

StartChar: lozenge
Encoding: 9674 9674 255
Width: 470
Flags: W
LayerCount: 2
Fore
SplineSet
290 0 m 1,0,-1
 178 0 l 1,1,-1
 40 350 l 1,2,-1
 180 700 l 1,3,-1
 290 700 l 1,4,-1
 430 350 l 1,5,-1
 290 0 l 1,0,-1
235 630 m 1,6,-1
 127 350 l 1,7,-1
 235 70 l 1,8,-1
 343 350 l 1,9,-1
 235 630 l 1,6,-1
EndSplineSet
EndChar
